<?xml version="1.0" encoding="iso-8859-1"?>
<!-- Generator: Adobe Illustrator 16.0.0, SVG Export Plug-In . SVG Version: 6.00 Build 0)  -->
<!DOCTYPE svg PUBLIC "-//W3C//DTD SVG 1.1//EN" "http://www.w3.org/Graphics/SVG/1.1/DTD/svg11.dtd">
<svg xmlns="http://www.w3.org/2000/svg" xmlns:xlink="http://www.w3.org/1999/xlink" version="1.1" id="Capa_1" x="0px" y="0px" width="512px" height="512px" viewBox="0 0 32.75 32.75" style="enable-background:new 0 0 32.75 32.75;" xml:space="preserve">
<g>
	<g>
		<path d="M29.375,1.25h-1.123c0.029-0.093,0.059-0.186,0.059-0.289C28.311,0.43,27.879,0,27.348,0s-0.961,0.431-0.961,0.961    c0,0.103,0.028,0.196,0.059,0.289h-3.68c0.029-0.093,0.059-0.186,0.059-0.289C22.824,0.43,22.393,0,21.861,0    C21.332,0,20.9,0.431,20.9,0.961c0,0.103,0.029,0.196,0.06,0.289h-3.681c0.029-0.093,0.058-0.186,0.058-0.289    C17.337,0.43,16.907,0,16.376,0c-0.531,0-0.961,0.431-0.961,0.961c0,0.103,0.028,0.196,0.058,0.289h-3.681    c0.029-0.093,0.059-0.186,0.059-0.289C11.851,0.43,11.42,0,10.89,0c-0.531,0-0.962,0.431-0.962,0.961    c0,0.103,0.028,0.196,0.058,0.289h-3.68c0.03-0.093,0.059-0.186,0.059-0.289C6.365,0.43,5.935,0,5.404,0    C4.873,0,4.442,0.431,4.442,0.961c0,0.103,0.028,0.196,0.058,0.289H3.375c-1.518,0-2.75,1.233-2.75,2.75v26    c0,1.518,1.232,2.75,2.75,2.75H26.27l5.855-5.855V4C32.125,2.484,30.893,1.25,29.375,1.25z M30.625,26.273l-0.311,0.311h-2.355    c-1.102,0-2,0.9-2,2v2.355l-0.311,0.311H3.375c-0.689,0-1.25-0.561-1.25-1.25V5h28.5V26.273z" fill="#006DF0"/>
		<rect x="9.892" y="7.535" width="3.536" height="3.536" fill="#006DF0"/>
		<rect x="14.607" y="7.535" width="3.536" height="3.536" fill="#006DF0"/>
		<rect x="19.322" y="7.535" width="3.535" height="3.536" fill="#006DF0"/>
		<rect x="24.037" y="7.535" width="3.537" height="3.536" fill="#006DF0"/>
		<rect x="5.176" y="12.25" width="3.537" height="3.537" fill="#006DF0"/>
		<rect x="9.892" y="12.25" width="3.536" height="3.537" fill="#006DF0"/>
		<rect x="14.607" y="12.25" width="3.536" height="3.537" fill="#006DF0"/>
		<rect x="19.322" y="12.25" width="3.535" height="3.537" fill="#006DF0"/>
		<rect x="24.037" y="12.25" width="3.537" height="3.537" fill="#006DF0"/>
		<rect x="5.176" y="16.965" width="3.537" height="3.537" fill="#006DF0"/>
		<rect x="9.892" y="16.965" width="3.536" height="3.537" fill="#006DF0"/>
		<rect x="14.607" y="16.965" width="3.536" height="3.537" fill="#006DF0"/>
		<rect x="19.322" y="16.965" width="3.535" height="3.537" fill="#006DF0"/>
		<rect x="24.037" y="16.965" width="3.537" height="3.537" fill="#006DF0"/>
		<rect x="5.176" y="21.68" width="3.537" height="3.536" fill="#006DF0"/>
		<rect x="9.892" y="21.68" width="3.536" height="3.536" fill="#006DF0"/>
		<rect x="14.607" y="21.68" width="3.536" height="3.536" fill="#006DF0"/>
		<rect x="19.322" y="21.68" width="3.535" height="3.536" fill="#006DF0"/>
		<rect x="24.037" y="21.68" width="3.537" height="3.536" fill="#006DF0"/>
		<rect x="5.176" y="26.984" width="8.251" height="1.768" fill="#006DF0"/>
	</g>
</g>
<g>
</g>
<g>
</g>
<g>
</g>
<g>
</g>
<g>
</g>
<g>
</g>
<g>
</g>
<g>
</g>
<g>
</g>
<g>
</g>
<g>
</g>
<g>
</g>
<g>
</g>
<g>
</g>
<g>
</g>
</svg>
