<svg xmlns="http://www.w3.org/2000/svg" xmlns:xlink="http://www.w3.org/1999/xlink" viewBox="0 0 11.019 10.877"><defs><style>.cls-1{fill:url(#linear-gradient);}.cls-2{fill:url(#linear-gradient-2);}.cls-3{fill:url(#linear-gradient-3);}.cls-4{fill:url(#linear-gradient-4);}.cls-5{fill:url(#linear-gradient-5);}.cls-6{fill:url(#linear-gradient-6);}.cls-7{fill:url(#linear-gradient-7);}.cls-8{fill:url(#linear-gradient-8);}.cls-9{fill:url(#linear-gradient-9);}.cls-10{fill:url(#linear-gradient-10);}.cls-11{fill:url(#linear-gradient-11);}.cls-12{fill:url(#linear-gradient-12);}.cls-13{fill:url(#linear-gradient-13);}.cls-14{fill:url(#linear-gradient-14);}.cls-15{fill:url(#linear-gradient-15);}.cls-16{fill:url(#linear-gradient-16);}.cls-17{fill:url(#linear-gradient-17);}.cls-18{fill:url(#linear-gradient-18);}.cls-19{fill:url(#linear-gradient-19);}.cls-20{fill:url(#linear-gradient-20);}.cls-21{fill:url(#linear-gradient-21);}.cls-22{fill:url(#linear-gradient-22);}.cls-23{fill:url(#linear-gradient-23);}.cls-24{fill:url(#linear-gradient-24);}.cls-25{fill:url(#linear-gradient-25);}.cls-26{fill:url(#linear-gradient-26);}.cls-27{fill:url(#linear-gradient-27);}.cls-28{fill:url(#linear-gradient-28);}.cls-29{fill:url(#linear-gradient-29);}.cls-30{fill:url(#linear-gradient-30);}.cls-31{fill:url(#linear-gradient-31);}.cls-32{fill:url(#linear-gradient-32);}.cls-33{fill:url(#linear-gradient-33);}.cls-34{fill:url(#linear-gradient-34);}.cls-35{fill:url(#linear-gradient-35);}.cls-36{fill:url(#linear-gradient-36);}.cls-37{fill:url(#linear-gradient-37);}.cls-38{fill:url(#linear-gradient-38);}.cls-39{fill:url(#linear-gradient-39);}.cls-40{fill:url(#linear-gradient-40);}.cls-41{fill:url(#linear-gradient-41);}.cls-42{fill:url(#linear-gradient-42);}.cls-43{fill:url(#linear-gradient-43);}.cls-44{fill:url(#linear-gradient-44);}.cls-45{fill:url(#linear-gradient-45);}.cls-46{fill:url(#linear-gradient-46);}.cls-47{fill:url(#linear-gradient-47);}.cls-48{fill:url(#linear-gradient-48);}.cls-49{fill:url(#linear-gradient-49);}.cls-50{fill:url(#linear-gradient-50);}.cls-51{fill:url(#linear-gradient-51);}.cls-52{fill:url(#linear-gradient-52);}.cls-53{fill:url(#linear-gradient-53);}.cls-54{fill:url(#linear-gradient-54);}.cls-55{fill:url(#linear-gradient-55);}.cls-56{fill:url(#linear-gradient-56);}.cls-57{fill:url(#linear-gradient-57);}.cls-58{fill:url(#linear-gradient-58);}.cls-59{fill:url(#linear-gradient-59);}.cls-60{fill:url(#linear-gradient-60);}.cls-61{fill:url(#linear-gradient-61);}.cls-62{fill:url(#linear-gradient-62);}.cls-63{fill:url(#linear-gradient-63);}.cls-64{fill:url(#linear-gradient-64);}.cls-65{fill:url(#linear-gradient-65);}.cls-66{fill:url(#linear-gradient-66);}.cls-67{fill:url(#linear-gradient-67);}.cls-68{fill:url(#linear-gradient-68);}.cls-69{fill:url(#linear-gradient-69);}.cls-70{fill:url(#linear-gradient-70);}.cls-71{fill:url(#linear-gradient-71);}.cls-72{fill:url(#linear-gradient-72);}.cls-73{fill:url(#linear-gradient-73);}.cls-74{fill:url(#linear-gradient-75);}.cls-75{fill:url(#linear-gradient-76);}.cls-76{fill:url(#linear-gradient-77);}.cls-77{fill:url(#linear-gradient-79);}.cls-78{fill:url(#linear-gradient-80);}.cls-79{fill:url(#linear-gradient-81);}.cls-80{fill:url(#linear-gradient-83);}.cls-81{fill:url(#linear-gradient-84);}.cls-82{fill:url(#linear-gradient-85);}.cls-83{fill:url(#linear-gradient-86);}.cls-84{fill:url(#linear-gradient-87);}.cls-85{fill:url(#linear-gradient-88);}.cls-86{fill:url(#linear-gradient-89);}.cls-87{fill:url(#linear-gradient-91);}.cls-88{fill:url(#linear-gradient-93);}.cls-89{fill:url(#linear-gradient-94);}.cls-90{fill:url(#linear-gradient-95);}.cls-91{fill:url(#linear-gradient-97);}.cls-92{fill:url(#linear-gradient-98);}</style><linearGradient id="linear-gradient" y1="7.058" x2="10.635" y2="7.058" gradientUnits="userSpaceOnUse"><stop offset="0" stop-color="#e6e6e6"/><stop offset="1" stop-color="#fff"/></linearGradient><linearGradient id="linear-gradient-2" x1="-48.099" y1="-44.099" x2="-45.869" y2="-44.099" gradientTransform="translate(-34.584 55.766) rotate(90)" xlink:href="#linear-gradient"/><linearGradient id="linear-gradient-3" x1="-49.296" y1="-45.303" x2="-46.175" y2="-45.303" gradientTransform="translate(-34.584 55.766) rotate(90)" xlink:href="#linear-gradient"/><linearGradient id="linear-gradient-4" x1="-47.723" y1="-45.298" x2="-42.775" y2="-45.298" gradientTransform="translate(-34.584 55.766) rotate(90)" xlink:href="#linear-gradient"/><linearGradient id="linear-gradient-5" x1="-50.963" y1="-41.064" x2="-47.854" y2="-41.064" gradientTransform="translate(-34.584 55.766) rotate(90)" xlink:href="#linear-gradient"/><linearGradient id="linear-gradient-6" x1="-50.687" y1="-40.064" x2="-47.581" y2="-40.064" gradientTransform="translate(-57.623 12.732) rotate(135.284)" xlink:href="#linear-gradient"/><linearGradient id="linear-gradient-7" x1="-52.41" y1="-36.464" x2="-49.303" y2="-36.464" gradientTransform="translate(-34.584 55.766) rotate(90)" xlink:href="#linear-gradient"/><linearGradient id="linear-gradient-8" x1="-49.494" y1="-36.287" x2="-46.114" y2="-36.287" gradientTransform="translate(-34.584 55.766) rotate(90)" xlink:href="#linear-gradient"/><linearGradient id="linear-gradient-9" x1="-48.964" y1="-38.033" x2="-46.189" y2="-38.033" gradientTransform="translate(-34.584 55.766) rotate(90)" xlink:href="#linear-gradient"/><linearGradient id="linear-gradient-10" x1="-45.759" y1="-35.515" x2="-44.657" y2="-35.515" gradientTransform="translate(-34.584 55.766) rotate(90)" xlink:href="#linear-gradient"/><linearGradient id="linear-gradient-11" x1="-46.367" y1="-36.984" x2="-45.264" y2="-36.984" gradientTransform="translate(-34.584 55.766) rotate(90)" xlink:href="#linear-gradient"/><linearGradient id="linear-gradient-12" x1="-50.42" y1="-36.259" x2="-49.316" y2="-36.259" gradientTransform="translate(-59.25 15.368) rotate(135.144)" xlink:href="#linear-gradient"/><linearGradient id="linear-gradient-13" x1="-51.692" y1="-38.08" x2="-50.589" y2="-38.08" gradientTransform="translate(-59.638 13.543) rotate(135.288)" xlink:href="#linear-gradient"/><linearGradient id="linear-gradient-14" x1="-51.481" y1="-43.669" x2="-50.239" y2="-43.669" gradientTransform="translate(-57.772 9.779) rotate(135.181)" xlink:href="#linear-gradient"/><linearGradient id="linear-gradient-15" x1="-50.884" y1="-42.311" x2="-50.103" y2="-42.311" gradientTransform="translate(-34.584 55.766) rotate(90)" xlink:href="#linear-gradient"/><linearGradient id="linear-gradient-16" x1="-50.082" y1="-44.424" x2="-49.497" y2="-44.424" gradientTransform="translate(-34.584 55.766) rotate(90)" xlink:href="#linear-gradient"/><linearGradient id="linear-gradient-17" x1="-46.989" y1="-36.024" x2="-46.402" y2="-36.024" gradientTransform="translate(-34.584 55.766) rotate(90)" xlink:href="#linear-gradient"/><linearGradient id="linear-gradient-18" x1="-45.687" y1="-43.266" x2="-44.32" y2="-43.266" gradientTransform="translate(-34.584 55.766) rotate(90)" xlink:href="#linear-gradient"/><linearGradient id="linear-gradient-19" x1="-46.418" y1="-44.787" x2="-44.507" y2="-44.787" gradientTransform="translate(-34.584 55.766) rotate(90)" xlink:href="#linear-gradient"/><linearGradient id="linear-gradient-20" x1="-45.456" y1="-44.562" x2="-42.423" y2="-44.562" gradientTransform="translate(-34.584 55.766) rotate(90)" xlink:href="#linear-gradient"/><linearGradient id="linear-gradient-21" x1="-47.44" y1="-41.613" x2="-45.536" y2="-41.613" gradientTransform="translate(-34.584 55.766) rotate(90)" xlink:href="#linear-gradient"/><linearGradient id="linear-gradient-22" x1="-47.274" y1="-41.002" x2="-45.368" y2="-41.002" gradientTransform="translate(-55.347 12.875) rotate(135.307)" xlink:href="#linear-gradient"/><linearGradient id="linear-gradient-23" x1="-48.329" y1="-38.857" x2="-46.425" y2="-38.857" gradientTransform="translate(-34.584 55.766) rotate(90)" xlink:href="#linear-gradient"/><linearGradient id="linear-gradient-24" x1="-48.964" y1="-38.664" x2="-46.189" y2="-38.664" gradientTransform="translate(-34.584 55.766) rotate(90)" xlink:href="#linear-gradient"/><linearGradient id="linear-gradient-25" x1="-48.329" y1="-38.664" x2="-46.425" y2="-38.664" gradientTransform="translate(-34.584 55.766) rotate(90)" xlink:href="#linear-gradient"/><linearGradient id="linear-gradient-26" x1="-46.541" y1="-38.629" x2="-44.471" y2="-38.629" gradientTransform="translate(-34.584 55.766) rotate(90)" xlink:href="#linear-gradient"/><linearGradient id="linear-gradient-27" x1="-46.216" y1="-39.691" x2="-44.517" y2="-39.691" gradientTransform="translate(-34.584 55.766) rotate(90)" xlink:href="#linear-gradient"/><linearGradient id="linear-gradient-28" x1="-48.964" y1="-38.669" x2="-46.189" y2="-38.669" gradientTransform="translate(-34.584 55.766) rotate(90)" xlink:href="#linear-gradient"/><linearGradient id="linear-gradient-29" x1="-47.108" y1="-38.669" x2="-46.434" y2="-38.669" gradientTransform="translate(-34.584 55.766) rotate(90)" xlink:href="#linear-gradient"/><linearGradient id="linear-gradient-30" x1="-47.888" y1="-39.785" x2="-47.212" y2="-39.785" gradientTransform="translate(-34.584 55.766) rotate(90)" xlink:href="#linear-gradient"/><linearGradient id="linear-gradient-31" x1="-47.759" y1="-43.179" x2="-46.998" y2="-43.179" gradientTransform="translate(-55.429 11.096) rotate(135.241)" xlink:href="#linear-gradient"/><linearGradient id="linear-gradient-32" x1="-48.099" y1="-43.321" x2="-45.87" y2="-43.321" gradientTransform="translate(-34.584 55.766) rotate(90)" xlink:href="#linear-gradient"/><linearGradient id="linear-gradient-33" x1="-47.759" y1="-43.321" x2="-46.998" y2="-43.321" gradientTransform="translate(-34.584 55.766) rotate(90)" xlink:href="#linear-gradient"/><linearGradient id="linear-gradient-34" x1="-47.393" y1="-42.376" x2="-46.914" y2="-42.376" gradientTransform="translate(-34.584 55.766) rotate(90)" xlink:href="#linear-gradient"/><linearGradient id="linear-gradient-35" x1="-46.902" y1="-43.672" x2="-46.543" y2="-43.672" gradientTransform="translate(-34.584 55.766) rotate(90)" xlink:href="#linear-gradient"/><linearGradient id="linear-gradient-36" x1="-45.008" y1="-38.524" x2="-44.647" y2="-38.524" gradientTransform="translate(-34.584 55.766) rotate(90)" xlink:href="#linear-gradient"/><linearGradient id="linear-gradient-37" x1="-45.335" y1="-41.604" x2="-44.149" y2="-41.604" gradientTransform="translate(-34.584 55.766) rotate(90)" xlink:href="#linear-gradient"/><linearGradient id="linear-gradient-38" x1="-45.23" y1="-41.171" x2="-44.047" y2="-41.171" gradientTransform="translate(-34.584 55.766) rotate(90)" xlink:href="#linear-gradient"/><linearGradient id="linear-gradient-39" x1="-45.887" y1="-40.163" x2="-44.702" y2="-40.163" gradientTransform="translate(-34.584 55.766) rotate(90)" xlink:href="#linear-gradient"/><linearGradient id="linear-gradient-40" x1="-46.216" y1="-40.088" x2="-44.517" y2="-40.088" gradientTransform="translate(-34.584 55.766) rotate(90)" xlink:href="#linear-gradient"/><linearGradient id="linear-gradient-41" x1="-45.887" y1="-40.088" x2="-44.702" y2="-40.088" gradientTransform="translate(-34.584 55.766) rotate(90)" xlink:href="#linear-gradient"/><linearGradient id="linear-gradient-42" x1="-46.216" y1="-40.063" x2="-44.517" y2="-40.063" gradientTransform="translate(-34.584 55.766) rotate(90)" xlink:href="#linear-gradient"/><linearGradient id="linear-gradient-43" x1="-45.127" y1="-40.063" x2="-44.707" y2="-40.063" gradientTransform="translate(-34.584 55.766) rotate(90)" xlink:href="#linear-gradient"/><linearGradient id="linear-gradient-44" x1="-45.611" y1="-40.806" x2="-45.192" y2="-40.806" gradientTransform="translate(-54.761 13.107) rotate(135.477)" xlink:href="#linear-gradient"/><linearGradient id="linear-gradient-45" x1="-45.531" y1="-42.9" x2="-45.059" y2="-42.9" gradientTransform="translate(-54.03 11.868) rotate(135.281)" xlink:href="#linear-gradient"/><linearGradient id="linear-gradient-46" x1="-45.687" y1="-42.989" x2="-44.32" y2="-42.989" gradientTransform="translate(-34.584 55.766) rotate(90)" xlink:href="#linear-gradient"/><linearGradient id="linear-gradient-47" x1="-45.531" y1="-42.989" x2="-45.059" y2="-42.989" gradientTransform="translate(-34.584 55.766) rotate(90)" xlink:href="#linear-gradient"/><linearGradient id="linear-gradient-48" x1="-45.305" y1="-42.416" x2="-45.006" y2="-42.416" gradientTransform="translate(-34.584 55.766) rotate(90)" xlink:href="#linear-gradient"/><linearGradient id="linear-gradient-49" x1="-45.001" y1="-43.223" x2="-44.775" y2="-43.223" gradientTransform="translate(-34.584 55.766) rotate(90)" xlink:href="#linear-gradient"/><linearGradient id="linear-gradient-50" x1="3.54" y1="5.317" x2="10.944" y2="5.317" gradientUnits="userSpaceOnUse"><stop offset="0" stop-color="#ff5858"/><stop offset="1" stop-color="#f09819"/></linearGradient><linearGradient id="linear-gradient-51" x1="-66.164" y1="-19.737" x2="-61.08" y2="-31.57" gradientTransform="matrix(1, 0, 0, -1, 52.48, -62.945)" xlink:href="#linear-gradient-50"/><linearGradient id="linear-gradient-52" x1="-68.298" y1="-20.654" x2="-63.214" y2="-32.487" gradientTransform="matrix(1, 0, 0, -1, 52.48, -62.945)" xlink:href="#linear-gradient-50"/><linearGradient id="linear-gradient-53" x1="-66.753" y1="-19.99" x2="-61.669" y2="-31.823" gradientTransform="matrix(1, 0, 0, -1, 52.48, -62.945)" xlink:href="#linear-gradient-50"/><linearGradient id="linear-gradient-54" x1="-67.109" y1="-20.143" x2="-62.026" y2="-31.976" gradientTransform="matrix(1, 0, 0, -1, 52.48, -62.945)" xlink:href="#linear-gradient-50"/><linearGradient id="linear-gradient-55" x1="-66.516" y1="-19.888" x2="-61.433" y2="-31.722" gradientTransform="matrix(0.711, 0.704, 0.704, -0.711, 87.409, -11.013)" xlink:href="#linear-gradient-50"/><linearGradient id="linear-gradient-56" x1="-66.664" y1="-19.952" x2="-61.58" y2="-31.785" gradientTransform="matrix(1, 0, 0, -1, 52.48, -62.945)" xlink:href="#linear-gradient-50"/><linearGradient id="linear-gradient-57" x1="-64.023" y1="-18.817" x2="-58.94" y2="-30.651" gradientTransform="matrix(1, 0, 0, -1, 52.48, -62.945)" xlink:href="#linear-gradient-50"/><linearGradient id="linear-gradient-58" x1="27.871" y1="20.885" x2="32.955" y2="9.052" gradientTransform="matrix(0, 1, 1, 0, -3.283, -28.36)" xlink:href="#linear-gradient-50"/><linearGradient id="linear-gradient-59" x1="-61.616" y1="-17.783" x2="-56.533" y2="-29.617" gradientTransform="matrix(1, 0, 0, -1, 52.48, -62.945)" xlink:href="#linear-gradient-50"/><linearGradient id="linear-gradient-60" x1="-62.596" y1="-18.204" x2="-57.512" y2="-30.038" gradientTransform="matrix(1, 0, 0, -1, 52.48, -62.945)" xlink:href="#linear-gradient-50"/><linearGradient id="linear-gradient-61" x1="-65.755" y1="-19.561" x2="-60.671" y2="-31.395" gradientTransform="matrix(0.709, 0.705, 0.705, -0.709, 84.551, -11.407)" xlink:href="#linear-gradient-50"/><linearGradient id="linear-gradient-62" x1="-67.489" y1="-20.306" x2="-62.406" y2="-32.14" gradientTransform="matrix(0.711, 0.704, 0.704, -0.711, 85.431, -10.182)" xlink:href="#linear-gradient-50"/><linearGradient id="linear-gradient-63" x1="-69.28" y1="-21.075" x2="-64.196" y2="-32.909" gradientTransform="matrix(0.709, 0.705, 0.705, -0.709, 89.478, -8.605)" xlink:href="#linear-gradient-50"/><linearGradient id="linear-gradient-64" x1="-68.477" y1="-20.731" x2="-63.393" y2="-32.564" gradientTransform="matrix(1, 0, 0, -1, 52.48, -62.945)" xlink:href="#linear-gradient-50"/><linearGradient id="linear-gradient-65" x1="-68.65" y1="-20.805" x2="-63.566" y2="-32.638" gradientTransform="matrix(1, 0, 0, -1, 52.48, -62.945)" xlink:href="#linear-gradient-50"/><linearGradient id="linear-gradient-66" x1="-62.992" y1="-18.374" x2="-57.908" y2="-30.208" gradientTransform="matrix(1, 0, 0, -1, 52.48, -62.945)" xlink:href="#linear-gradient-50"/><linearGradient id="linear-gradient-67" x1="-64.411" y1="-18.984" x2="-59.328" y2="-30.817" gradientTransform="matrix(1, 0, 0, -1, 52.48, -62.945)" xlink:href="#linear-gradient-50"/><linearGradient id="linear-gradient-68" x1="-65.334" y1="-19.381" x2="-60.251" y2="-31.214" gradientTransform="matrix(1, 0, 0, -1, 52.48, -62.945)" xlink:href="#linear-gradient-50"/><linearGradient id="linear-gradient-69" x1="-64.749" y1="-19.129" x2="-59.666" y2="-30.963" gradientTransform="matrix(1, 0, 0, -1, 52.48, -62.945)" xlink:href="#linear-gradient-50"/><linearGradient id="linear-gradient-70" x1="-64.843" y1="-19.17" x2="-59.76" y2="-31.003" gradientTransform="matrix(1, 0, 0, -1, 52.48, -62.945)" xlink:href="#linear-gradient-50"/><linearGradient id="linear-gradient-71" x1="-64.481" y1="-19.014" x2="-59.397" y2="-30.847" gradientTransform="matrix(0.711, 0.703, 0.703, -0.711, 88.875, -12.754)" xlink:href="#linear-gradient-50"/><linearGradient id="linear-gradient-72" x1="-64.572" y1="-19.053" x2="-59.488" y2="-30.886" gradientTransform="matrix(1, 0, 0, -1, 52.48, -62.945)" xlink:href="#linear-gradient-50"/><linearGradient id="linear-gradient-73" x1="-64.587" y1="-19.06" x2="-59.504" y2="-30.893" gradientTransform="matrix(1, 0, 0, -1, 52.48, -62.945)" xlink:href="#linear-gradient-50"/><linearGradient id="linear-gradient-75" x1="-63.063" y1="-18.405" x2="-57.979" y2="-30.238" gradientTransform="matrix(1, 0, 0, -1, 52.48, -62.945)" xlink:href="#linear-gradient-50"/><linearGradient id="linear-gradient-76" x1="-63.336" y1="-18.522" x2="-58.252" y2="-30.355" gradientTransform="matrix(1, 0, 0, -1, 52.48, -62.945)" xlink:href="#linear-gradient-50"/><linearGradient id="linear-gradient-77" x1="-64.014" y1="-18.814" x2="-58.931" y2="-30.647" gradientTransform="matrix(1, 0, 0, -1, 52.48, -62.945)" xlink:href="#linear-gradient-50"/><linearGradient id="linear-gradient-79" x1="-65.076" y1="-19.27" x2="-59.993" y2="-31.103" gradientTransform="matrix(1, 0, 0, -1, 52.48, -62.945)" xlink:href="#linear-gradient-50"/><linearGradient id="linear-gradient-80" x1="-66.137" y1="-19.725" x2="-61.054" y2="-31.559" gradientTransform="matrix(0.71, 0.704, 0.704, -0.71, 90.132, -11.309)" xlink:href="#linear-gradient-50"/><linearGradient id="linear-gradient-81" x1="-66.31" y1="-19.8" x2="-61.227" y2="-31.633" gradientTransform="matrix(1, 0, 0, -1, 52.48, -62.945)" xlink:href="#linear-gradient-50"/><linearGradient id="linear-gradient-83" x1="-65.682" y1="-19.53" x2="-60.598" y2="-31.363" gradientTransform="matrix(1, 0, 0, -1, 52.48, -62.945)" xlink:href="#linear-gradient-50"/><linearGradient id="linear-gradient-84" x1="-65.788" y1="-19.575" x2="-60.704" y2="-31.409" gradientTransform="matrix(1, 0, 0, -1, 52.48, -62.945)" xlink:href="#linear-gradient-50"/><linearGradient id="linear-gradient-85" x1="-62.422" y1="-18.13" x2="-57.339" y2="-29.963" gradientTransform="matrix(1, 0, 0, -1, 52.48, -62.945)" xlink:href="#linear-gradient-50"/><linearGradient id="linear-gradient-86" x1="-63.675" y1="-18.668" x2="-58.592" y2="-30.501" gradientTransform="matrix(1, 0, 0, -1, 52.48, -62.945)" xlink:href="#linear-gradient-50"/><linearGradient id="linear-gradient-87" x1="-63.474" y1="-18.582" x2="-58.391" y2="-30.415" gradientTransform="matrix(1, 0, 0, -1, 52.48, -62.945)" xlink:href="#linear-gradient-50"/><linearGradient id="linear-gradient-88" x1="-63.399" y1="-18.549" x2="-58.316" y2="-30.383" gradientTransform="matrix(1, 0, 0, -1, 52.48, -62.945)" xlink:href="#linear-gradient-50"/><linearGradient id="linear-gradient-89" x1="-63.348" y1="-18.527" x2="-58.264" y2="-30.361" gradientTransform="matrix(1, 0, 0, -1, 52.48, -62.945)" xlink:href="#linear-gradient-50"/><linearGradient id="linear-gradient-91" x1="-63.026" y1="-18.389" x2="-57.942" y2="-30.222" gradientTransform="matrix(1, 0, 0, -1, 52.48, -62.945)" xlink:href="#linear-gradient-50"/><linearGradient id="linear-gradient-93" x1="-63.633" y1="-18.65" x2="-58.55" y2="-30.483" gradientTransform="matrix(0.713, 0.701, 0.701, -0.713, 88.944, -13.689)" xlink:href="#linear-gradient-50"/><linearGradient id="linear-gradient-94" x1="-64.274" y1="-18.925" x2="-59.191" y2="-30.759" gradientTransform="matrix(0.711, 0.704, 0.704, -0.711, 90.526, -12.914)" xlink:href="#linear-gradient-50"/><linearGradient id="linear-gradient-95" x1="-64.382" y1="-18.971" x2="-59.298" y2="-30.805" gradientTransform="matrix(1, 0, 0, -1, 52.48, -62.945)" xlink:href="#linear-gradient-50"/><linearGradient id="linear-gradient-97" x1="-64.009" y1="-18.811" x2="-58.926" y2="-30.645" gradientTransform="matrix(1, 0, 0, -1, 52.48, -62.945)" xlink:href="#linear-gradient-50"/><linearGradient id="linear-gradient-98" x1="-64.128" y1="-18.863" x2="-59.045" y2="-30.696" gradientTransform="matrix(1, 0, 0, -1, 52.48, -62.945)" xlink:href="#linear-gradient-50"/></defs><title>Asset 1</title><g id="Layer_2" data-name="Layer 2"><g id="Layer_1-2" data-name="Layer 1"><path class="cls-1" d="M9.088,9.223a.179.179,0,0,1-.18-.18.18.18,0,1,1,.18.18Zm1.045-3.248a.293.293,0,1,1-.293-.291A.293.293,0,0,1,10.133,5.975Zm-1.2-1.69.777.773-.467.468-.777-.77ZM8.4,8l.324-.328,1.916,1.9-.322.329L8.945,8.541l-.224.227L8.244,8.3l.225-.228ZM1.44,9.363a.294.294,0,1,1,.294-.294A.293.293,0,0,1,1.44,9.363ZM2.621,10.5,1.848,9.73,2.174,9.4l.779.771ZM4.992,9.341l-.207-.205-.439.44L2.113,7.369,2.678,6.8l.7.691.055-.056L5.172,9.164ZM1.9,6.449l-.776-.771.33-.332.778.77ZM4.859,8.082l.2-.2.48.473-.205.2Zm1.448,2.491-.3-.292.125-.127.3.294ZM7.2,10.4,5.457,8.674l.18-.182,1.742,1.726Zm.633.362a.15.15,0,1,1,.148-.149A.149.149,0,0,1,7.832,10.76Zm-.023-.531L6.07,8.506l.178-.181,1.74,1.725ZM7.793,8.852a.24.24,0,1,1,.238-.239A.239.239,0,0,1,7.793,8.852Zm-.068-3.97a.391.391,0,1,1,0,.781.391.391,0,0,1,0-.781ZM5.205,4.8,8.045,7.62l-.293.291L4.916,5.1ZM7.047,7.891l-.291.294L3.914,5.372l.293-.294ZM3.272,4.073l.779.772-.332.332-.777-.771ZM.605,3.356l2.84,2.815-.291.292L.315,3.65ZM.567,6.272,3.406,9.088l-.564.563L0,6.841Z"/><polygon class="cls-2" points="9.006 8.479 8.945 8.541 10.313 9.897 10.635 9.568 8.719 7.667 8.395 7.995 8.469 8.068 8.529 8.007 9.006 8.479"/><polygon class="cls-3" points="10.877 7.158 10.877 6.52 10.561 6.845 10.877 7.158"/><polygon class="cls-4" points="10.877 8.996 10.877 8.342 10.551 8.673 10.877 8.996"/><polygon class="cls-5" points="8.045 7.62 5.205 4.803 4.916 5.099 7.752 7.911 8.045 7.62"/><rect class="cls-6" x="5.274" y="4.633" width="0.414" height="3.998" transform="translate(-3.088 5.86) rotate(-45.284)"/><polygon class="cls-7" points="3.445 6.171 0.605 3.356 0.315 3.65 3.154 6.463 3.445 6.171"/><polygon class="cls-8" points="3.406 9.088 0.567 6.272 0 6.841 2.842 9.651 3.406 9.088"/><path class="cls-9" d="M3.375,7.493l-.7-.691-.565.567L4.346,9.576l.439-.44L3.252,7.619Zm.574,1.165.475.471-.2.2L3.746,8.86Z"/><polygon class="cls-10" points="0.705 10.007 0.377 10.339 0.878 10.835 1.427 10.835 1.484 10.777 0.705 10.007"/><polygon class="cls-11" points="1.848 9.73 2.621 10.502 2.953 10.17 2.174 9.399 1.848 9.73"/><rect class="cls-12" x="1.44" y="5.35" width="0.469" height="1.094" transform="translate(-3.687 2.925) rotate(-45.144)"/><rect class="cls-13" x="3.261" y="4.078" width="0.469" height="1.096" transform="translate(-2.251 3.855) rotate(-45.288)"/><rect class="cls-14" x="8.754" y="4.359" width="0.662" height="1.095" transform="translate(-0.799 7.892) rotate(-45.181)"/><path class="cls-15" d="M7.725,5.663a.391.391,0,1,0-.389-.391A.392.392,0,0,0,7.725,5.663Z"/><path class="cls-16" d="M9.547,5.975a.293.293,0,1,0,.293-.291A.292.292,0,0,0,9.547,5.975Z"/><path class="cls-17" d="M1.44,8.776a.294.294,0,1,0,.294.293A.293.293,0,0,0,1.44,8.776Z"/><polygon class="cls-18" points="8.201 10.281 8.223 10.303 8.291 10.234 8.588 10.528 8.52 10.597 8.761 10.835 9.162 10.835 8.402 10.079 8.201 10.281"/><polygon class="cls-19" points="9.529 9.574 10.801 10.835 10.877 10.835 10.877 10.462 9.752 9.348 9.529 9.574"/><polygon class="cls-20" points="9.524 10.695 9.664 10.835 10.434 10.835 9.904 10.31 9.524 10.695"/><polygon class="cls-21" points="6.07 8.506 7.809 10.229 7.988 10.05 6.248 8.325 6.07 8.506"/><rect class="cls-22" x="6.291" y="8.22" width="0.255" height="2.451" transform="translate(-4.81 7.365) rotate(-45.307)"/><polygon class="cls-23" points="3.375 7.493 4.908 9.013 4.785 9.136 4.992 9.341 5.172 9.164 3.43 7.437 3.375 7.493"/><polygon class="cls-24" points="3.375 7.493 3.252 7.619 4.785 9.136 4.908 9.013 3.375 7.493"/><polygon class="cls-25" points="3.375 7.493 3.252 7.619 4.785 9.136 4.908 9.013 3.375 7.493"/><polygon class="cls-26" points="3.059 9.574 4.335 10.835 5.031 10.835 3.404 9.225 3.059 9.574"/><polygon class="cls-27" points="5.076 9.923 4.699 9.55 4.354 9.898 5.303 10.835 5.387 10.835 5.317 10.765 5.442 10.639 5.641 10.835 5.861 10.835 5.01 9.992 5.076 9.923"/><polygon class="cls-28" points="4.424 9.129 3.949 8.658 3.746 8.86 4.221 9.332 4.424 9.129"/><polygon class="cls-29" points="4.424 9.129 3.949 8.658 3.746 8.86 4.221 9.332 4.424 9.129"/><polygon class="cls-30" points="5.063 7.878 4.859 8.082 5.338 8.554 5.543 8.351 5.063 7.878"/><rect class="cls-31" x="8.435" y="8.083" width="0.319" height="0.671" transform="translate(-3.435 8.594) rotate(-45.241)"/><polygon class="cls-32" points="9.006 8.479 8.529 8.007 8.469 8.068 8.945 8.541 9.006 8.479"/><polygon class="cls-33" points="9.006 8.479 8.529 8.007 8.469 8.068 8.945 8.541 9.006 8.479"/><path class="cls-34" d="M7.793,8.373a.24.24,0,1,0,.238.24A.238.238,0,0,0,7.793,8.373Z"/><path class="cls-35" d="M9.088,8.863a.181.181,0,0,0-.18.18.18.18,0,1,0,.36,0A.182.182,0,0,0,9.088,8.863Z"/><path class="cls-36" d="M3.942,10.758a.174.174,0,0,0-.139.077h.275A.167.167,0,0,0,3.942,10.758Z"/><polygon class="cls-37" points="6.762 10.544 7.055 10.835 7.279 10.835 6.871 10.431 6.762 10.544"/><polygon class="cls-38" points="6.381 10.649 6.569 10.835 6.793 10.835 6.49 10.535 6.381 10.649"/><polygon class="cls-39" points="5.076 9.923 5.999 10.835 6.082 10.835 5.119 9.879 5.076 9.923"/><polygon class="cls-40" points="5.01 9.992 5.861 10.835 5.999 10.835 5.076 9.923 5.01 9.992"/><polygon class="cls-41" points="5.01 9.992 5.861 10.835 5.999 10.835 5.076 9.923 5.01 9.992"/><polygon class="cls-42" points="5.317 10.765 5.387 10.835 5.641 10.835 5.442 10.639 5.317 10.765"/><polygon class="cls-43" points="5.317 10.765 5.387 10.835 5.641 10.835 5.442 10.639 5.317 10.765"/><rect class="cls-44" x="6.132" y="10.155" width="0.178" height="0.418" transform="translate(-5.53 7.532) rotate(-45.477)"/><rect class="cls-45" x="8.239" y="10.296" width="0.155" height="0.418" transform="translate(-5 9.023) rotate(-45.281)"/><polygon class="cls-46" points="8.291 10.234 8.223 10.303 8.52 10.597 8.588 10.528 8.291 10.234"/><polygon class="cls-47" points="8.291 10.234 8.223 10.303 8.52 10.597 8.588 10.528 8.291 10.234"/><path class="cls-48" d="M7.832,10.461a.15.15,0,1,0,.148.15A.149.149,0,0,0,7.832,10.461Z"/><path class="cls-49" d="M8.637,10.765a.1.1,0,0,0-.092.07h.188A.108.108,0,0,0,8.637,10.765Z"/><path class="cls-50" d="M9.227,9.268a.18.18,0,0,1,0-.36.18.18,0,0,1,0,.36ZM5.868,9.84a.293.293,0,1,1,.291.293A.293.293,0,0,1,5.868,9.84ZM4.94,8.463l.77.777-.468.467L4.469,8.93Zm3.312.006.228-.225.472.477-.227.224,1.356,1.368-.329.322-1.9-1.916L8.179,8.4Zm1-6.735a.294.294,0,1,1,.294-.294A.294.294,0,0,1,9.253,1.734Zm1.1,1.219-.771-.779.332-.326.771.773ZM9.348,5.172,7.621,3.43l.056-.055-.691-.7.567-.565L9.76,4.346l-.44.439.205.207ZM6.3,2.229l-.77-.778.332-.33.771.776ZM8.738,5.338l-.2.205-.473-.48.2-.2Zm1.894,1.1-.294-.3.127-.125.292.3Zm-.23.945L8.676,5.637l.182-.18L10.582,7.2Zm.393.6a.148.148,0,1,1,.149-.148A.149.149,0,0,1,10.8,7.98Zm-.561.008L8.509,6.248,8.69,6.07l1.724,1.739ZM8.8,8.031a.239.239,0,1,1,.239-.238A.239.239,0,0,1,8.8,8.031Zm-3.341-.7a.391.391,0,0,1,0,.781.393.393,0,0,1-.392-.392A.388.388,0,0,1,5.456,7.336Zm-.173-2.42L8.1,7.752,7.8,8.045,4.987,5.205Zm-.021-.709.294-.293L8.369,6.756l-.294.291ZM4.59,2.942l.771.777-.332.332-.772-.779ZM3.834.315,6.647,3.154l-.292.291L3.54.606ZM7.025,0l2.81,2.842-.563.564L6.456.567Z"/><polygon class="cls-51" points="8.664 9.006 8.725 8.945 10.081 10.313 9.752 10.635 7.851 8.719 8.179 8.395 8.252 8.469 8.191 8.529 8.664 9.006"/><polygon class="cls-52" points="7.342 10.877 6.704 10.877 7.029 10.561 7.342 10.877"/><polygon class="cls-53" points="9.18 10.877 8.526 10.877 8.857 10.551 9.18 10.877"/><polygon class="cls-54" points="7.804 8.045 4.987 5.205 5.283 4.916 8.095 7.752 7.804 8.045"/><rect class="cls-55" x="6.608" y="3.482" width="0.414" height="3.998" transform="translate(-1.884 6.381) rotate(-44.716)"/><polygon class="cls-56" points="6.355 3.445 3.54 0.606 3.834 0.315 6.647 3.154 6.355 3.445"/><polygon class="cls-57" points="9.272 3.406 6.456 0.567 7.025 0 9.835 2.842 9.272 3.406"/><path class="cls-58" d="M7.8,3.252,9.32,4.785l.44-.439L7.553,2.113l-.567.565.691.7Zm1.241.494.472.475-.2.2-.471-.475Z"/><polygon class="cls-59" points="10.191 0.705 10.523 0.377 11.019 0.879 11.019 1.428 10.961 1.484 10.191 0.705"/><polygon class="cls-60" points="9.915 1.848 10.686 2.621 10.354 2.953 9.583 2.174 9.915 1.848"/><rect class="cls-61" x="5.847" y="1.127" width="0.469" height="1.094" transform="translate(0.589 4.777) rotate(-44.856)"/><rect class="cls-62" x="4.575" y="2.948" width="0.469" height="1.096" transform="translate(-1.068 4.395) rotate(-44.712)"/><rect class="cls-63" x="4.759" y="8.537" width="0.662" height="1.095" transform="translate(-4.924 6.229) rotate(-44.819)"/><path class="cls-64" d="M5.847,7.725a.391.391,0,1,1-.391-.389A.392.392,0,0,1,5.847,7.725Z"/><path class="cls-65" d="M6.159,9.547a.293.293,0,1,1-.291.293A.292.292,0,0,1,6.159,9.547Z"/><path class="cls-66" d="M8.96,1.44a.294.294,0,1,1,.293.294A.293.293,0,0,1,8.96,1.44Z"/><polygon class="cls-67" points="10.465 8.201 10.487 8.223 10.418 8.291 10.712 8.588 10.781 8.52 11.019 8.762 11.019 9.162 10.263 8.402 10.465 8.201"/><polygon class="cls-68" points="9.758 9.529 11.019 10.801 11.019 10.877 10.646 10.877 9.532 9.752 9.758 9.529"/><polygon class="cls-69" points="10.879 9.524 11.019 9.664 11.019 10.434 10.494 9.904 10.879 9.524"/><polygon class="cls-70" points="8.69 6.07 10.414 7.809 10.234 7.988 8.509 6.248 8.69 6.07"/><rect class="cls-71" x="9.502" y="5.192" width="0.255" height="2.451" transform="translate(-1.73 8.628) rotate(-44.693)"/><polygon class="cls-72" points="7.677 3.375 9.197 4.908 9.32 4.785 9.525 4.992 9.348 5.172 7.621 3.43 7.677 3.375"/><polygon class="cls-73" points="7.677 3.375 7.803 3.252 9.32 4.785 9.197 4.908 7.677 3.375"/><polygon class="cls-73" points="7.677 3.375 7.803 3.252 9.32 4.785 9.197 4.908 7.677 3.375"/><polygon class="cls-74" points="9.758 3.059 11.019 4.336 11.019 5.031 9.409 3.404 9.758 3.059"/><polygon class="cls-75" points="10.107 5.076 9.734 4.699 10.082 4.354 11.019 5.303 11.019 5.387 10.949 5.317 10.823 5.442 11.019 5.641 11.019 5.861 10.176 5.01 10.107 5.076"/><polygon class="cls-76" points="9.313 4.424 8.842 3.949 9.044 3.746 9.516 4.221 9.313 4.424"/><polygon class="cls-76" points="9.313 4.424 8.842 3.949 9.044 3.746 9.516 4.221 9.313 4.424"/><polygon class="cls-77" points="8.062 5.063 8.266 4.859 8.738 5.338 8.535 5.543 8.062 5.063"/><rect class="cls-78" x="8.443" y="8.259" width="0.319" height="0.671" transform="translate(-3.558 8.549) rotate(-44.759)"/><polygon class="cls-79" points="8.664 9.006 8.191 8.529 8.252 8.469 8.725 8.945 8.664 9.006"/><polygon class="cls-79" points="8.664 9.006 8.191 8.529 8.252 8.469 8.725 8.945 8.664 9.006"/><path class="cls-80" d="M8.557,7.793a.24.24,0,1,1,.24.238A.238.238,0,0,1,8.557,7.793Z"/><path class="cls-81" d="M9.047,9.088a.181.181,0,0,1,.18-.18.18.18,0,0,1,0,.36A.182.182,0,0,1,9.047,9.088Z"/><path class="cls-82" d="M10.942,3.942a.177.177,0,0,1,.077-.139v.275A.165.165,0,0,1,10.942,3.942Z"/><polygon class="cls-83" points="10.728 6.762 11.019 7.055 11.019 7.279 10.615 6.871 10.728 6.762"/><polygon class="cls-84" points="10.833 6.381 11.019 6.57 11.019 6.793 10.719 6.49 10.833 6.381"/><polygon class="cls-85" points="10.107 5.076 11.019 6 11.019 6.082 10.063 5.119 10.107 5.076"/><polygon class="cls-86" points="10.176 5.01 11.019 5.861 11.019 6 10.107 5.076 10.176 5.01"/><polygon class="cls-86" points="10.176 5.01 11.019 5.861 11.019 6 10.107 5.076 10.176 5.01"/><polygon class="cls-87" points="10.949 5.317 11.019 5.387 11.019 5.641 10.823 5.442 10.949 5.317"/><polygon class="cls-87" points="10.949 5.317 11.019 5.387 11.019 5.641 10.823 5.442 10.949 5.317"/><rect class="cls-88" x="10.459" y="6.012" width="0.178" height="0.418" transform="translate(-1.335 9.182) rotate(-44.523)"/><rect class="cls-89" x="10.611" y="8.108" width="0.155" height="0.418" transform="translate(-2.758 9.928) rotate(-44.719)"/><polygon class="cls-90" points="10.418 8.291 10.487 8.223 10.781 8.52 10.712 8.588 10.418 8.291"/><polygon class="cls-90" points="10.418 8.291 10.487 8.223 10.781 8.52 10.712 8.588 10.418 8.291"/><path class="cls-91" d="M10.645,7.832a.15.15,0,1,1,.15.148A.149.149,0,0,1,10.645,7.832Z"/><path class="cls-92" d="M10.949,8.637a.105.105,0,0,1,.07-.092v.188A.106.106,0,0,1,10.949,8.637Z"/></g></g></svg>