<svg xmlns="http://www.w3.org/2000/svg" xmlns:xlink="http://www.w3.org/1999/xlink" viewBox="0 0 104.788 125.588"><defs><style>.cls-1{fill:none;}.cls-2{fill:#ff5cdc;}.cls-3{fill:#9639d8;}.cls-4{fill:#6ce5c8;}.cls-5{clip-path:url(#clip-path);}.cls-6{fill:#37bf9b;}.cls-7{clip-path:url(#clip-path-2);}.cls-8{fill:#e834c6;}</style><clipPath id="clip-path"><path class="cls-1" d="M55.294,49.445l25.2-34.67H52.4L18.856,61.808a53.51,53.51,0,0,0-8.011,15.318C20.452,52.391,42.212,49.946,55.294,49.445Z"/></clipPath><clipPath id="clip-path-2"><path class="cls-1" d="M55.294,49.445,36.785,77.152A16.294,16.294,0,0,1,49.193,71.6a15.738,15.738,0,1,1,0,31.461A15.867,15.867,0,0,1,32.98,87.329a15.452,15.452,0,0,1,1.666-6.974L15.787,108.588c7.159,10.367,19.473,16.943,33.406,16.943C70.542,125.531,89,109.16,89,87.329A38.157,38.157,0,0,0,55.294,49.445Z"/></clipPath></defs><title>Asset 9</title><g id="Layer_2" data-name="Layer 2"><g id="OBJECTS"><path class="cls-1" d="M32.98,87.329A15.867,15.867,0,0,0,49.193,103.06a15.738,15.738,0,1,0,0-31.461,16.294,16.294,0,0,0-12.408,5.553l-2.139,3.2A15.452,15.452,0,0,0,32.98,87.329Z"/><path class="cls-2" d="M55.294,49.445,36.785,77.152A16.294,16.294,0,0,1,49.193,71.6a15.738,15.738,0,1,1,0,31.461A15.867,15.867,0,0,1,32.98,87.329a15.452,15.452,0,0,1,1.666-6.974L15.787,108.588c7.159,10.367,19.473,16.943,33.406,16.943C70.542,125.531,89,109.16,89,87.329A38.157,38.157,0,0,0,55.294,49.445Z"/><path class="cls-3" d="M36.785,77.152a15.55,15.55,0,0,0-2.139,3.2Z"/><path class="cls-3" d="M36.785,77.152,55.294,49.445c-13.082.5-34.842,2.946-44.449,27.681a34.281,34.281,0,0,0-1.621,10.2,37.1,37.1,0,0,0,6.563,21.259L34.646,80.355A15.55,15.55,0,0,1,36.785,77.152Z"/><path class="cls-4" d="M55.294,49.445l25.2-34.67H52.4L18.856,61.808a53.51,53.51,0,0,0-8.011,15.318C20.452,52.391,42.212,49.946,55.294,49.445Z"/><g class="cls-5"><rect class="cls-6" x="70.655" width="3.816" height="85.423"/><rect class="cls-6" x="63.183" width="3.816" height="85.423"/><rect class="cls-6" x="48.24" width="3.816" height="85.423"/><rect class="cls-6" x="40.768" width="3.817" height="85.423"/><rect class="cls-6" x="33.297" width="3.816" height="85.423"/><rect class="cls-6" x="25.826" width="3.816" height="85.423"/><rect class="cls-6" x="78.127" width="3.816" height="85.423"/><rect class="cls-6" x="55.711" width="3.816" height="85.423"/></g><g class="cls-7"><path class="cls-8" d="M102.25,54.712a2.538,2.538,0,1,1,2.538-2.538A2.539,2.539,0,0,1,102.25,54.712Z"/><path class="cls-8" d="M102.25,64.751a2.538,2.538,0,1,1,2.538-2.538A2.539,2.539,0,0,1,102.25,64.751Z"/><path class="cls-8" d="M102.25,74.79a2.538,2.538,0,1,1,2.538-2.538A2.539,2.539,0,0,1,102.25,74.79Z"/><path class="cls-8" d="M102.25,84.829a2.538,2.538,0,1,1,2.538-2.537A2.539,2.539,0,0,1,102.25,84.829Z"/><path class="cls-8" d="M102.25,94.869a2.538,2.538,0,1,1,2.538-2.539A2.539,2.539,0,0,1,102.25,94.869Z"/><path class="cls-8" d="M102.25,104.908a2.538,2.538,0,1,1,2.538-2.539A2.539,2.539,0,0,1,102.25,104.908Z"/><path class="cls-8" d="M95.135,59.732a2.538,2.538,0,1,1,2.537-2.538A2.538,2.538,0,0,1,95.135,59.732Z"/><path class="cls-8" d="M95.135,69.771a2.538,2.538,0,1,1,2.537-2.538A2.538,2.538,0,0,1,95.135,69.771Z"/><path class="cls-8" d="M95.135,79.811a2.539,2.539,0,1,1,2.537-2.539A2.538,2.538,0,0,1,95.135,79.811Z"/><path class="cls-8" d="M95.135,89.849a2.538,2.538,0,1,1,2.537-2.537A2.538,2.538,0,0,1,95.135,89.849Z"/><path class="cls-8" d="M95.135,99.888a2.538,2.538,0,1,1,2.537-2.538A2.538,2.538,0,0,1,95.135,99.888Z"/><path class="cls-8" d="M88.019,54.712a2.538,2.538,0,1,1,2.538-2.538A2.539,2.539,0,0,1,88.019,54.712Z"/><path class="cls-8" d="M88.019,64.751a2.538,2.538,0,1,1,2.538-2.538A2.539,2.539,0,0,1,88.019,64.751Z"/><path class="cls-8" d="M88.019,74.79a2.538,2.538,0,1,1,2.538-2.538A2.539,2.539,0,0,1,88.019,74.79Z"/><path class="cls-8" d="M88.019,84.829a2.538,2.538,0,1,1,2.538-2.537A2.538,2.538,0,0,1,88.019,84.829Z"/><path class="cls-8" d="M88.019,94.869a2.538,2.538,0,1,1,2.538-2.539A2.538,2.538,0,0,1,88.019,94.869Z"/><path class="cls-8" d="M88.019,104.908a2.538,2.538,0,1,1,2.538-2.539A2.538,2.538,0,0,1,88.019,104.908Z"/><path class="cls-8" d="M80.905,59.732a2.538,2.538,0,1,1,2.538-2.538A2.538,2.538,0,0,1,80.905,59.732Z"/><path class="cls-8" d="M80.905,69.771a2.538,2.538,0,1,1,2.538-2.538A2.538,2.538,0,0,1,80.905,69.771Z"/><path class="cls-8" d="M80.905,79.811a2.539,2.539,0,1,1,2.538-2.539A2.539,2.539,0,0,1,80.905,79.811Z"/><path class="cls-8" d="M80.905,89.849a2.538,2.538,0,1,1,2.538-2.537A2.538,2.538,0,0,1,80.905,89.849Z"/><path class="cls-8" d="M80.905,99.888a2.538,2.538,0,1,1,2.538-2.538A2.538,2.538,0,0,1,80.905,99.888Z"/><path class="cls-8" d="M73.79,54.712a2.538,2.538,0,1,1,2.537-2.538A2.538,2.538,0,0,1,73.79,54.712Z"/><path class="cls-8" d="M73.79,64.751a2.538,2.538,0,1,1,2.537-2.538A2.538,2.538,0,0,1,73.79,64.751Z"/><path class="cls-8" d="M73.79,74.79a2.538,2.538,0,1,1,2.537-2.538A2.538,2.538,0,0,1,73.79,74.79Z"/><path class="cls-8" d="M73.79,84.829a2.538,2.538,0,1,1,2.537-2.537A2.538,2.538,0,0,1,73.79,84.829Z"/><path class="cls-8" d="M73.79,94.869a2.538,2.538,0,1,1,2.537-2.539A2.538,2.538,0,0,1,73.79,94.869Z"/><path class="cls-8" d="M73.79,104.908a2.538,2.538,0,1,1,2.537-2.539A2.538,2.538,0,0,1,73.79,104.908Z"/><path class="cls-8" d="M66.675,59.732a2.538,2.538,0,1,1,2.537-2.538A2.538,2.538,0,0,1,66.675,59.732Z"/><path class="cls-8" d="M66.675,69.771a2.538,2.538,0,1,1,2.537-2.538A2.538,2.538,0,0,1,66.675,69.771Z"/><path class="cls-8" d="M66.675,79.811a2.539,2.539,0,1,1,2.537-2.539A2.539,2.539,0,0,1,66.675,79.811Z"/><path class="cls-8" d="M66.675,89.849a2.538,2.538,0,1,1,2.537-2.537A2.538,2.538,0,0,1,66.675,89.849Z"/><path class="cls-8" d="M66.675,99.888a2.538,2.538,0,1,1,2.537-2.538A2.538,2.538,0,0,1,66.675,99.888Z"/><path class="cls-8" d="M59.56,54.712A2.538,2.538,0,1,1,62.1,52.174,2.538,2.538,0,0,1,59.56,54.712Z"/><path class="cls-8" d="M59.56,64.751A2.538,2.538,0,1,1,62.1,62.213,2.538,2.538,0,0,1,59.56,64.751Z"/><path class="cls-8" d="M59.56,74.79A2.538,2.538,0,1,1,62.1,72.252,2.538,2.538,0,0,1,59.56,74.79Z"/><path class="cls-8" d="M59.56,84.829A2.538,2.538,0,1,1,62.1,82.292,2.538,2.538,0,0,1,59.56,84.829Z"/><path class="cls-8" d="M59.56,94.869A2.538,2.538,0,1,1,62.1,92.33,2.537,2.537,0,0,1,59.56,94.869Z"/><path class="cls-8" d="M59.56,104.908a2.538,2.538,0,1,1,2.537-2.539A2.537,2.537,0,0,1,59.56,104.908Z"/><path class="cls-8" d="M52.443,59.732a2.538,2.538,0,1,1,2.539-2.538A2.537,2.537,0,0,1,52.443,59.732Z"/><path class="cls-8" d="M52.443,69.771a2.538,2.538,0,1,1,2.539-2.538A2.538,2.538,0,0,1,52.443,69.771Z"/><path class="cls-8" d="M52.443,79.811a2.539,2.539,0,1,1,2.539-2.539A2.538,2.538,0,0,1,52.443,79.811Z"/><path class="cls-8" d="M52.443,89.849a2.538,2.538,0,1,1,2.539-2.537A2.538,2.538,0,0,1,52.443,89.849Z"/><path class="cls-8" d="M52.443,99.888a2.538,2.538,0,1,1,2.539-2.538A2.538,2.538,0,0,1,52.443,99.888Z"/><path class="cls-8" d="M45.328,54.712a2.538,2.538,0,1,1,2.539-2.538A2.538,2.538,0,0,1,45.328,54.712Z"/><path class="cls-8" d="M45.328,64.751a2.538,2.538,0,1,1,2.539-2.538A2.538,2.538,0,0,1,45.328,64.751Z"/><path class="cls-8" d="M45.328,74.79a2.538,2.538,0,1,1,2.539-2.538A2.538,2.538,0,0,1,45.328,74.79Z"/><path class="cls-8" d="M45.328,84.829a2.538,2.538,0,1,1,2.539-2.537A2.538,2.538,0,0,1,45.328,84.829Z"/><path class="cls-8" d="M45.328,94.869a2.538,2.538,0,1,1,2.539-2.539A2.538,2.538,0,0,1,45.328,94.869Z"/><path class="cls-8" d="M45.328,104.908a2.538,2.538,0,1,1,2.539-2.539A2.538,2.538,0,0,1,45.328,104.908Z"/><path class="cls-8" d="M38.213,59.732a2.538,2.538,0,1,1,2.539-2.538A2.537,2.537,0,0,1,38.213,59.732Z"/><path class="cls-8" d="M38.213,69.771a2.538,2.538,0,1,1,2.539-2.538A2.537,2.537,0,0,1,38.213,69.771Z"/><path class="cls-8" d="M38.213,79.811a2.539,2.539,0,1,1,2.539-2.539A2.538,2.538,0,0,1,38.213,79.811Z"/><path class="cls-8" d="M38.213,89.849a2.538,2.538,0,1,1,2.539-2.537A2.537,2.537,0,0,1,38.213,89.849Z"/><path class="cls-8" d="M38.213,99.888a2.538,2.538,0,1,1,2.539-2.538A2.537,2.537,0,0,1,38.213,99.888Z"/><path class="cls-8" d="M31.1,54.712a2.538,2.538,0,1,1,2.537-2.538A2.539,2.539,0,0,1,31.1,54.712Z"/><path class="cls-8" d="M31.1,64.751a2.538,2.538,0,1,1,2.537-2.538A2.539,2.539,0,0,1,31.1,64.751Z"/><path class="cls-8" d="M31.1,74.79a2.538,2.538,0,1,1,2.537-2.538A2.539,2.539,0,0,1,31.1,74.79Z"/><path class="cls-8" d="M31.1,84.829a2.538,2.538,0,1,1,2.537-2.537A2.539,2.539,0,0,1,31.1,84.829Z"/><path class="cls-8" d="M31.1,94.869a2.538,2.538,0,1,1,2.537-2.539A2.538,2.538,0,0,1,31.1,94.869Z"/><path class="cls-8" d="M31.1,104.908a2.538,2.538,0,1,1,2.537-2.539A2.538,2.538,0,0,1,31.1,104.908Z"/><path class="cls-8" d="M23.982,59.732a2.538,2.538,0,1,1,2.539-2.538A2.538,2.538,0,0,1,23.982,59.732Z"/><path class="cls-8" d="M23.982,69.771a2.538,2.538,0,1,1,2.539-2.538A2.538,2.538,0,0,1,23.982,69.771Z"/><path class="cls-8" d="M23.982,79.811a2.539,2.539,0,1,1,2.539-2.539A2.538,2.538,0,0,1,23.982,79.811Z"/><path class="cls-8" d="M23.982,89.849a2.538,2.538,0,1,1,2.539-2.537A2.538,2.538,0,0,1,23.982,89.849Z"/><path class="cls-8" d="M23.982,99.888a2.538,2.538,0,1,1,2.539-2.538A2.538,2.538,0,0,1,23.982,99.888Z"/><path class="cls-8" d="M16.867,54.712a2.538,2.538,0,1,1,2.539-2.538A2.539,2.539,0,0,1,16.867,54.712Z"/><path class="cls-8" d="M16.867,64.751a2.538,2.538,0,1,1,2.539-2.538A2.539,2.539,0,0,1,16.867,64.751Z"/><path class="cls-8" d="M16.867,74.79a2.538,2.538,0,1,1,2.539-2.538A2.539,2.539,0,0,1,16.867,74.79Z"/><path class="cls-8" d="M16.867,84.829a2.538,2.538,0,1,1,2.539-2.537A2.538,2.538,0,0,1,16.867,84.829Z"/><path class="cls-8" d="M16.867,94.869a2.538,2.538,0,1,1,2.539-2.539A2.538,2.538,0,0,1,16.867,94.869Z"/><path class="cls-8" d="M16.867,104.908a2.538,2.538,0,1,1,2.539-2.539A2.538,2.538,0,0,1,16.867,104.908Z"/><path class="cls-8" d="M9.753,59.732a2.538,2.538,0,1,1,2.538-2.538A2.539,2.539,0,0,1,9.753,59.732Z"/><path class="cls-8" d="M9.753,69.771a2.538,2.538,0,1,1,2.538-2.538A2.54,2.54,0,0,1,9.753,69.771Z"/><path class="cls-8" d="M9.753,79.811a2.539,2.539,0,1,1,2.538-2.539A2.54,2.54,0,0,1,9.753,79.811Z"/><path class="cls-8" d="M9.753,89.849a2.538,2.538,0,1,1,2.538-2.537A2.54,2.54,0,0,1,9.753,89.849Z"/><path class="cls-8" d="M9.753,99.888a2.538,2.538,0,1,1,2.538-2.538A2.54,2.54,0,0,1,9.753,99.888Z"/><path class="cls-8" d="M95.036,109.206a2.538,2.538,0,1,1,2.538-2.538A2.539,2.539,0,0,1,95.036,109.206Z"/><path class="cls-8" d="M95.036,119.245a2.538,2.538,0,1,1,2.538-2.538A2.539,2.539,0,0,1,95.036,119.245Z"/><path class="cls-8" d="M97.283,125.588a2.519,2.519,0,0,0-4.493,0Z"/><path class="cls-8" d="M87.922,114.227a2.539,2.539,0,1,1,2.537-2.538A2.539,2.539,0,0,1,87.922,114.227Z"/><path class="cls-8" d="M87.922,124.266a2.538,2.538,0,1,1,2.537-2.538A2.539,2.539,0,0,1,87.922,124.266Z"/><path class="cls-8" d="M80.807,109.206a2.538,2.538,0,1,1,2.537-2.538A2.538,2.538,0,0,1,80.807,109.206Z"/><path class="cls-8" d="M80.807,119.245a2.538,2.538,0,1,1,2.537-2.538A2.538,2.538,0,0,1,80.807,119.245Z"/><path class="cls-8" d="M83.052,125.588a2.519,2.519,0,0,0-4.492,0Z"/><circle class="cls-8" cx="73.691" cy="111.689" r="2.539"/><circle class="cls-8" cx="73.691" cy="121.728" r="2.539"/><path class="cls-8" d="M66.576,109.206a2.538,2.538,0,1,1,2.537-2.538A2.538,2.538,0,0,1,66.576,109.206Z"/><path class="cls-8" d="M66.576,119.245a2.538,2.538,0,1,1,2.537-2.538A2.538,2.538,0,0,1,66.576,119.245Z"/><path class="cls-8" d="M68.821,125.588a2.518,2.518,0,0,0-4.491,0Z"/><path class="cls-8" d="M59.461,114.227A2.539,2.539,0,1,1,62,111.689,2.538,2.538,0,0,1,59.461,114.227Z"/><path class="cls-8" d="M59.461,124.266A2.538,2.538,0,1,1,62,121.728,2.538,2.538,0,0,1,59.461,124.266Z"/><path class="cls-8" d="M52.346,109.206a2.538,2.538,0,1,1,2.537-2.538A2.538,2.538,0,0,1,52.346,109.206Z"/><path class="cls-8" d="M52.346,119.245a2.538,2.538,0,1,1,2.537-2.538A2.538,2.538,0,0,1,52.346,119.245Z"/><path class="cls-8" d="M54.592,125.588a2.519,2.519,0,0,0-4.492,0Z"/><path class="cls-8" d="M45.229,114.227a2.539,2.539,0,1,1,2.539-2.538A2.538,2.538,0,0,1,45.229,114.227Z"/><path class="cls-8" d="M45.229,124.266a2.538,2.538,0,1,1,2.539-2.538A2.538,2.538,0,0,1,45.229,124.266Z"/><path class="cls-8" d="M38.115,109.206a2.538,2.538,0,1,1,2.538-2.538A2.537,2.537,0,0,1,38.115,109.206Z"/><path class="cls-8" d="M38.115,119.245a2.538,2.538,0,1,1,2.538-2.538A2.537,2.537,0,0,1,38.115,119.245Z"/><path class="cls-8" d="M40.361,125.588a2.519,2.519,0,0,0-4.492,0Z"/><path class="cls-8" d="M31,114.227a2.539,2.539,0,1,1,2.538-2.538A2.537,2.537,0,0,1,31,114.227Z"/><path class="cls-8" d="M31,124.266a2.538,2.538,0,1,1,2.538-2.538A2.537,2.537,0,0,1,31,124.266Z"/><path class="cls-8" d="M23.885,109.206a2.538,2.538,0,1,1,2.537-2.538A2.537,2.537,0,0,1,23.885,109.206Z"/><path class="cls-8" d="M23.885,119.245a2.538,2.538,0,1,1,2.537-2.538A2.537,2.537,0,0,1,23.885,119.245Z"/><path class="cls-8" d="M26.131,125.588a2.518,2.518,0,0,0-4.491,0Z"/><path class="cls-8" d="M16.769,114.227a2.539,2.539,0,1,1,2.54-2.538A2.539,2.539,0,0,1,16.769,114.227Z"/><path class="cls-8" d="M16.769,124.266a2.538,2.538,0,1,1,2.54-2.538A2.539,2.539,0,0,1,16.769,124.266Z"/><path class="cls-8" d="M9.654,109.206a2.538,2.538,0,1,1,2.539-2.538A2.538,2.538,0,0,1,9.654,109.206Z"/><path class="cls-8" d="M9.654,119.245a2.538,2.538,0,1,1,2.539-2.538A2.538,2.538,0,0,1,9.654,119.245Z"/><path class="cls-8" d="M11.9,125.588a2.518,2.518,0,0,0-4.491,0Z"/><path class="cls-8" d="M2.539,114.227a2.539,2.539,0,1,1,2.539-2.538A2.54,2.54,0,0,1,2.539,114.227Z"/><path class="cls-8" d="M2.539,124.266a2.538,2.538,0,1,1,2.539-2.538A2.54,2.54,0,0,1,2.539,124.266Z"/></g></g></g></svg>