<svg xmlns="http://www.w3.org/2000/svg" xmlns:xlink="http://www.w3.org/1999/xlink" viewBox="0 0 10.879 10.877"><defs><style>.cls-1{fill:url(#linear-gradient);}.cls-2{fill:url(#linear-gradient-2);}.cls-3{fill:url(#linear-gradient-3);}.cls-4{fill:url(#linear-gradient-4);}.cls-5{fill:url(#linear-gradient-5);}.cls-6{fill:url(#linear-gradient-6);}.cls-7{fill:url(#linear-gradient-7);}.cls-8{fill:url(#linear-gradient-8);}.cls-9{fill:url(#linear-gradient-9);}.cls-10{fill:url(#linear-gradient-10);}.cls-11{fill:url(#linear-gradient-11);}.cls-12{fill:url(#linear-gradient-12);}.cls-13{fill:url(#linear-gradient-13);}.cls-14{fill:url(#linear-gradient-14);}.cls-15{fill:url(#linear-gradient-15);}.cls-16{fill:url(#linear-gradient-16);}.cls-17{fill:url(#linear-gradient-17);}.cls-18{fill:url(#linear-gradient-18);}.cls-19{fill:url(#linear-gradient-19);}.cls-20{fill:url(#linear-gradient-20);}.cls-21{fill:url(#linear-gradient-21);}.cls-22{fill:url(#linear-gradient-22);}.cls-23{fill:url(#linear-gradient-23);}.cls-24{fill:url(#linear-gradient-24);}.cls-25{fill:url(#linear-gradient-26);}.cls-26{fill:url(#linear-gradient-27);}.cls-27{fill:url(#linear-gradient-28);}.cls-28{fill:url(#linear-gradient-30);}.cls-29{fill:url(#linear-gradient-31);}.cls-30{fill:url(#linear-gradient-32);}.cls-31{fill:url(#linear-gradient-34);}.cls-32{fill:url(#linear-gradient-35);}.cls-33{fill:url(#linear-gradient-36);}.cls-34{fill:url(#linear-gradient-37);}.cls-35{fill:url(#linear-gradient-38);}.cls-36{fill:url(#linear-gradient-39);}.cls-37{fill:url(#linear-gradient-40);}.cls-38{fill:url(#linear-gradient-42);}.cls-39{fill:url(#linear-gradient-44);}.cls-40{fill:url(#linear-gradient-45);}.cls-41{fill:url(#linear-gradient-46);}.cls-42{fill:url(#linear-gradient-48);}.cls-43{fill:url(#linear-gradient-49);}.cls-44{fill:url(#linear-gradient-50);}.cls-45{fill:url(#linear-gradient-51);}.cls-46{fill:url(#linear-gradient-52);}.cls-47{fill:url(#linear-gradient-53);}.cls-48{fill:url(#linear-gradient-54);}.cls-49{fill:url(#linear-gradient-55);}.cls-50{fill:url(#linear-gradient-56);}.cls-51{fill:url(#linear-gradient-57);}.cls-52{fill:url(#linear-gradient-58);}.cls-53{fill:url(#linear-gradient-59);}.cls-54{fill:url(#linear-gradient-60);}.cls-55{fill:url(#linear-gradient-61);}.cls-56{fill:url(#linear-gradient-62);}.cls-57{fill:url(#linear-gradient-63);}.cls-58{fill:url(#linear-gradient-64);}.cls-59{fill:url(#linear-gradient-65);}.cls-60{fill:url(#linear-gradient-66);}.cls-61{fill:url(#linear-gradient-67);}.cls-62{fill:url(#linear-gradient-68);}.cls-63{fill:url(#linear-gradient-69);}.cls-64{fill:url(#linear-gradient-70);}.cls-65{fill:url(#linear-gradient-71);}.cls-66{fill:url(#linear-gradient-72);}.cls-67{fill:url(#linear-gradient-73);}.cls-68{fill:url(#linear-gradient-75);}.cls-69{fill:url(#linear-gradient-76);}.cls-70{fill:url(#linear-gradient-77);}.cls-71{fill:url(#linear-gradient-79);}.cls-72{fill:url(#linear-gradient-80);}.cls-73{fill:url(#linear-gradient-81);}.cls-74{fill:url(#linear-gradient-83);}.cls-75{fill:url(#linear-gradient-84);}.cls-76{fill:url(#linear-gradient-85);}.cls-77{fill:url(#linear-gradient-86);}.cls-78{fill:url(#linear-gradient-87);}.cls-79{fill:url(#linear-gradient-88);}.cls-80{fill:url(#linear-gradient-89);}.cls-81{fill:url(#linear-gradient-91);}.cls-82{fill:url(#linear-gradient-93);}.cls-83{fill:url(#linear-gradient-94);}.cls-84{fill:url(#linear-gradient-95);}.cls-85{fill:url(#linear-gradient-97);}.cls-86{fill:url(#linear-gradient-98);}</style><linearGradient id="linear-gradient" x1="0.779" y1="2.252" x2="9.657" y2="6.084" gradientUnits="userSpaceOnUse"><stop offset="0"/><stop offset="1" stop-color="#1a1a1a"/></linearGradient><linearGradient id="linear-gradient-2" x1="8.857" y1="1.832" x2="10.173" y2="2.4" xlink:href="#linear-gradient"/><linearGradient id="linear-gradient-3" x1="10.608" y1="3.943" x2="10.993" y2="4.109" xlink:href="#linear-gradient"/><linearGradient id="linear-gradient-4" x1="10.601" y1="2.11" x2="10.996" y2="2.28" xlink:href="#linear-gradient"/><linearGradient id="linear-gradient-5" x1="5.619" y1="4.17" x2="7.339" y2="4.913" xlink:href="#linear-gradient"/><linearGradient id="linear-gradient-6" x1="4.618" y1="3.894" x2="6.343" y2="4.638" gradientTransform="translate(4.588 -2.622) rotate(44.711)" xlink:href="#linear-gradient"/><linearGradient id="linear-gradient-7" x1="1.018" y1="5.617" x2="2.741" y2="6.36" xlink:href="#linear-gradient"/><linearGradient id="linear-gradient-8" x1="0.675" y1="2.492" x2="2.729" y2="3.379" xlink:href="#linear-gradient"/><linearGradient id="linear-gradient-9" x1="2.631" y1="2.329" x2="4.241" y2="3.024" xlink:href="#linear-gradient"/><linearGradient id="linear-gradient-10" x1="0.515" y1="0.239" x2="1.289" y2="0.573" xlink:href="#linear-gradient"/><linearGradient id="linear-gradient-11" x1="2.014" y1="0.782" x2="2.786" y2="1.115" xlink:href="#linear-gradient"/><linearGradient id="linear-gradient-12" x1="1.288" y1="4.834" x2="2.062" y2="5.168" gradientTransform="translate(4.015 0.275) rotate(44.855)" xlink:href="#linear-gradient"/><linearGradient id="linear-gradient-13" x1="3.108" y1="6.106" x2="3.884" y2="6.441" gradientTransform="translate(5.425 -0.644) rotate(44.711)" xlink:href="#linear-gradient"/><linearGradient id="linear-gradient-14" x1="8.615" y1="5.789" x2="9.554" y2="6.195" gradientTransform="translate(6.864 -4.662) rotate(44.817)" xlink:href="#linear-gradient"/><linearGradient id="linear-gradient-15" x1="7.367" y1="5.471" x2="8.084" y2="5.781" xlink:href="#linear-gradient"/><linearGradient id="linear-gradient-16" x1="9.571" y1="4.806" x2="10.109" y2="5.038" xlink:href="#linear-gradient"/><linearGradient id="linear-gradient-17" x1="1.17" y1="1.712" x2="1.71" y2="1.945" xlink:href="#linear-gradient"/><linearGradient id="linear-gradient-18" x1="8.356" y1="0.257" x2="8.965" y2="0.52" xlink:href="#linear-gradient"/><linearGradient id="linear-gradient-19" x1="9.841" y1="0.602" x2="10.654" y2="0.953" xlink:href="#linear-gradient"/><linearGradient id="linear-gradient-20" x1="9.58" y1="0.072" x2="10.296" y2="0.381" xlink:href="#linear-gradient"/><linearGradient id="linear-gradient-21" x1="6.501" y1="1.393" x2="7.557" y2="1.849" xlink:href="#linear-gradient"/><linearGradient id="linear-gradient-22" x1="5.888" y1="1.225" x2="6.947" y2="1.681" gradientTransform="translate(2.877 -4.094) rotate(44.693)" xlink:href="#linear-gradient"/><linearGradient id="linear-gradient-23" x1="3.832" y1="2.346" x2="4.739" y2="2.737" xlink:href="#linear-gradient"/><linearGradient id="linear-gradient-24" x1="3.635" y1="2.391" x2="4.524" y2="2.775" xlink:href="#linear-gradient"/><linearGradient id="linear-gradient-26" x1="3.406" y1="0.518" x2="4.611" y2="1.038" xlink:href="#linear-gradient"/><linearGradient id="linear-gradient-27" x1="4.606" y1="0.415" x2="5.536" y2="0.816" xlink:href="#linear-gradient"/><linearGradient id="linear-gradient-28" x1="3.848" y1="1.801" x2="4.322" y2="2.005" xlink:href="#linear-gradient"/><linearGradient id="linear-gradient-30" x1="4.962" y1="2.579" x2="5.44" y2="2.786" xlink:href="#linear-gradient"/><linearGradient id="linear-gradient-31" x1="8.344" y1="2.372" x2="8.846" y2="2.588" gradientTransform="translate(4.237 -5.332) rotate(44.75)" xlink:href="#linear-gradient"/><linearGradient id="linear-gradient-32" x1="8.586" y1="2.559" x2="8.889" y2="2.689" xlink:href="#linear-gradient"/><linearGradient id="linear-gradient-34" x1="7.572" y1="2.191" x2="8.012" y2="2.38" xlink:href="#linear-gradient"/><linearGradient id="linear-gradient-35" x1="8.923" y1="1.784" x2="9.253" y2="1.926" xlink:href="#linear-gradient"/><linearGradient id="linear-gradient-36" x1="3.819" y1="0.026" x2="4.051" y2="0.126" xlink:href="#linear-gradient"/><linearGradient id="linear-gradient-37" x1="6.843" y1="0.165" x2="7.174" y2="0.308" xlink:href="#linear-gradient"/><linearGradient id="linear-gradient-38" x1="6.435" y1="0.124" x2="6.715" y2="0.244" xlink:href="#linear-gradient"/><linearGradient id="linear-gradient-39" x1="5.316" y1="0.418" x2="5.833" y2="0.641" xlink:href="#linear-gradient"/><linearGradient id="linear-gradient-40" x1="5.233" y1="0.388" x2="5.762" y2="0.615" xlink:href="#linear-gradient"/><linearGradient id="linear-gradient-42" x1="5.342" y1="0.075" x2="5.589" y2="0.182" xlink:href="#linear-gradient"/><linearGradient id="linear-gradient-44" x1="6.073" y1="0.47" x2="6.369" y2="0.598" gradientTransform="translate(2.16 -4.209) rotate(44.522)" xlink:href="#linear-gradient"/><linearGradient id="linear-gradient-45" x1="8.179" y1="0.334" x2="8.454" y2="0.453" gradientTransform="translate(2.683 -5.737) rotate(44.713)" xlink:href="#linear-gradient"/><linearGradient id="linear-gradient-46" x1="8.292" y1="0.434" x2="8.518" y2="0.531" xlink:href="#linear-gradient"/><linearGradient id="linear-gradient-48" x1="7.696" y1="0.229" x2="7.968" y2="0.346" xlink:href="#linear-gradient"/><linearGradient id="linear-gradient-49" x1="8.553" y1="0.045" x2="8.711" y2="0.113" xlink:href="#linear-gradient"/><linearGradient id="linear-gradient-50" x1="7.56" y1="9.019" x2="6.185" y2="1.925" gradientUnits="userSpaceOnUse"><stop offset="0" stop-color="#f83600"/><stop offset="1" stop-color="#f9d423"/></linearGradient><linearGradient id="linear-gradient-51" x1="10.21" y1="8.505" x2="8.835" y2="1.411" xlink:href="#linear-gradient-50"/><linearGradient id="linear-gradient-52" x1="8.592" y1="8.819" x2="7.217" y2="1.725" xlink:href="#linear-gradient-50"/><linearGradient id="linear-gradient-53" x1="10.356" y1="8.477" x2="8.981" y2="1.383" xlink:href="#linear-gradient-50"/><linearGradient id="linear-gradient-54" x1="7.306" y1="9.068" x2="5.931" y2="1.974" xlink:href="#linear-gradient-50"/><linearGradient id="linear-gradient-55" x1="7.384" y1="9.053" x2="6.009" y2="1.959" gradientTransform="translate(5.813 -3.144) rotate(45.283)" xlink:href="#linear-gradient-50"/><linearGradient id="linear-gradient-56" x1="5.052" y1="9.505" x2="3.677" y2="2.411" xlink:href="#linear-gradient-50"/><linearGradient id="linear-gradient-57" x1="7.96" y1="8.941" x2="6.585" y2="1.847" xlink:href="#linear-gradient-50"/><linearGradient id="linear-gradient-58" x1="8.517" y1="8.833" x2="7.142" y2="1.739" xlink:href="#linear-gradient-50"/><linearGradient id="linear-gradient-59" x1="10.212" y1="8.505" x2="8.837" y2="1.411" xlink:href="#linear-gradient-50"/><linearGradient id="linear-gradient-60" x1="10.007" y1="8.544" x2="8.632" y2="1.451" xlink:href="#linear-gradient-50"/><linearGradient id="linear-gradient-61" x1="5.966" y1="9.328" x2="4.591" y2="2.234" gradientTransform="translate(8.274 -1.5) rotate(45.144)" xlink:href="#linear-gradient-50"/><linearGradient id="linear-gradient-62" x1="5.079" y1="9.5" x2="3.704" y2="2.406" gradientTransform="translate(6.63 -1.13) rotate(45.288)" xlink:href="#linear-gradient-50"/><linearGradient id="linear-gradient-63" x1="6.394" y1="9.245" x2="5.019" y2="2.151" gradientTransform="translate(2.732 -2.982) rotate(45.179)" xlink:href="#linear-gradient-50"/><linearGradient id="linear-gradient-64" x1="6.494" y1="9.225" x2="5.119" y2="2.132" xlink:href="#linear-gradient-50"/><linearGradient id="linear-gradient-65" x1="7.567" y1="9.017" x2="6.192" y2="1.924" xlink:href="#linear-gradient-50"/><linearGradient id="linear-gradient-66" x1="8.979" y1="8.744" x2="7.604" y2="1.65" xlink:href="#linear-gradient-50"/><linearGradient id="linear-gradient-67" x1="11.688" y1="8.219" x2="10.313" y2="1.125" xlink:href="#linear-gradient-50"/><linearGradient id="linear-gradient-68" x1="11.622" y1="8.231" x2="10.247" y2="1.138" xlink:href="#linear-gradient-50"/><linearGradient id="linear-gradient-69" x1="12.058" y1="8.147" x2="10.683" y2="1.053" xlink:href="#linear-gradient-50"/><linearGradient id="linear-gradient-70" x1="10.223" y1="8.502" x2="8.848" y2="1.409" xlink:href="#linear-gradient-50"/><linearGradient id="linear-gradient-71" x1="10.271" y1="8.493" x2="8.896" y2="1.4" gradientTransform="translate(5.985 -5.423) rotate(45.307)" xlink:href="#linear-gradient-50"/><linearGradient id="linear-gradient-72" x1="8.841" y1="8.771" x2="7.466" y2="1.677" xlink:href="#linear-gradient-50"/><linearGradient id="linear-gradient-73" x1="8.745" y1="8.789" x2="7.37" y2="1.695" xlink:href="#linear-gradient-50"/><linearGradient id="linear-gradient-75" x1="10.423" y1="8.464" x2="9.048" y2="1.37" xlink:href="#linear-gradient-50"/><linearGradient id="linear-gradient-76" x1="10.779" y1="8.395" x2="9.404" y2="1.301" xlink:href="#linear-gradient-50"/><linearGradient id="linear-gradient-77" x1="9.401" y1="8.662" x2="8.026" y2="1.568" xlink:href="#linear-gradient-50"/><linearGradient id="linear-gradient-79" x1="8.859" y1="8.767" x2="7.484" y2="1.673" xlink:href="#linear-gradient-50"/><linearGradient id="linear-gradient-80" x1="9.688" y1="8.606" x2="8.313" y2="1.513" gradientTransform="translate(4.124 -5.333) rotate(45.24)" xlink:href="#linear-gradient-50"/><linearGradient id="linear-gradient-81" x1="9.576" y1="8.628" x2="8.201" y2="1.534" xlink:href="#linear-gradient-50"/><linearGradient id="linear-gradient-83" x1="9.725" y1="8.599" x2="8.35" y2="1.505" xlink:href="#linear-gradient-50"/><linearGradient id="linear-gradient-84" x1="10.382" y1="8.472" x2="9.007" y2="1.378" xlink:href="#linear-gradient-50"/><linearGradient id="linear-gradient-85" x1="11.122" y1="8.328" x2="9.747" y2="1.235" xlink:href="#linear-gradient-50"/><linearGradient id="linear-gradient-86" x1="11.538" y1="8.248" x2="10.163" y2="1.154" xlink:href="#linear-gradient-50"/><linearGradient id="linear-gradient-87" x1="11.508" y1="8.254" x2="10.133" y2="1.16" xlink:href="#linear-gradient-50"/><linearGradient id="linear-gradient-88" x1="10.997" y1="8.353" x2="9.622" y2="1.259" xlink:href="#linear-gradient-50"/><linearGradient id="linear-gradient-89" x1="11.007" y1="8.351" x2="9.632" y2="1.257" xlink:href="#linear-gradient-50"/><linearGradient id="linear-gradient-91" x1="11.352" y1="8.284" x2="9.977" y2="1.19" xlink:href="#linear-gradient-50"/><linearGradient id="linear-gradient-93" x1="11.12" y1="8.329" x2="9.745" y2="1.235" gradientTransform="translate(6.429 -6.029) rotate(45.475)" xlink:href="#linear-gradient-50"/><linearGradient id="linear-gradient-94" x1="11.647" y1="8.227" x2="10.272" y2="1.133" gradientTransform="translate(4.945 -6.737) rotate(45.278)" xlink:href="#linear-gradient-50"/><linearGradient id="linear-gradient-95" x1="11.578" y1="8.24" x2="10.203" y2="1.146" xlink:href="#linear-gradient-50"/><linearGradient id="linear-gradient-97" x1="11.658" y1="8.224" x2="10.283" y2="1.131" xlink:href="#linear-gradient-50"/><linearGradient id="linear-gradient-98" x1="11.999" y1="8.158" x2="10.624" y2="1.064" xlink:href="#linear-gradient-50"/></defs><title>Asset 3</title><g id="Layer_2" data-name="Layer 2"><g id="Layer_1-2" data-name="Layer 1"><path class="cls-1" d="M9.268,1.855a.18.18,0,0,1-.36,0,.18.18,0,0,1,.36,0ZM9.84,5.214a.293.293,0,1,1,.293-.291A.292.292,0,0,1,9.84,5.214Zm-1.377.928.777-.77.467.468-.777.773ZM8.469,2.83,8.244,2.6l.477-.472.224.227L10.313,1l.322.329-1.916,1.9L8.4,2.9Zm-6.735-1a.294.294,0,1,1-.294-.294A.294.294,0,0,1,1.734,1.829ZM2.953.728,2.174,1.5l-.326-.333L2.621.4ZM5.172,1.734,3.43,3.461l-.055-.056-.7.691-.565-.567L4.346,1.322l.439.44.207-.205ZM2.229,4.782l-.778.77-.33-.332L1.9,4.449ZM5.338,2.344l.205.2-.48.473-.2-.2ZM6.434.45l-.3.294L6.01.617l.3-.292Zm.945.23L5.637,2.406l-.18-.182L7.2.5Zm.6-.393A.148.148,0,1,1,7.832.138.149.149,0,0,1,7.98.287Zm.008.561L6.248,2.573,6.07,2.392,7.809.668Zm.043,1.437a.239.239,0,1,1-.238-.239A.239.239,0,0,1,8.031,2.285Zm-.7,3.341a.391.391,0,1,1,.389.39A.389.389,0,0,1,7.336,5.626ZM4.916,5.8,7.752,2.987l.293.291L5.205,6.1Zm-.709.021-.293-.294L6.756,2.713l.291.294Zm-1.265.672.777-.771.332.332-.779.772ZM.315,7.248,3.154,4.435l.291.292L.605,7.542ZM0,4.057l2.842-2.81.564.563L.567,4.626Z"/><polygon class="cls-2" points="9.006 2.418 8.945 2.357 10.313 1.001 10.635 1.33 8.719 3.231 8.395 2.903 8.469 2.83 8.529 2.891 9.006 2.418"/><polygon class="cls-3" points="10.877 3.74 10.877 4.378 10.561 4.053 10.877 3.74"/><polygon class="cls-4" points="10.877 1.902 10.877 2.556 10.551 2.225 10.877 1.902"/><polygon class="cls-5" points="8.045 3.278 5.205 6.095 4.916 5.799 7.752 2.987 8.045 3.278"/><rect class="cls-6" x="3.482" y="4.059" width="3.998" height="0.414" transform="translate(-1.416 5.091) rotate(-44.711)"/><polygon class="cls-7" points="3.445 4.727 0.605 7.542 0.315 7.248 3.154 4.435 3.445 4.727"/><polygon class="cls-8" points="3.406 1.81 0.567 4.626 0 4.057 2.842 1.247 3.406 1.81"/><path class="cls-9" d="M3.252,3.279,4.785,1.762l-.439-.44L2.113,3.529l.565.567.7-.691Zm.494-1.241.475-.472.2.2-.475.471Z"/><polygon class="cls-10" points="0.705 0.891 0.377 0.559 0.879 0.063 1.428 0.063 1.484 0.121 0.705 0.891"/><polygon class="cls-11" points="1.848 1.167 2.621 0.396 2.953 0.728 2.174 1.5 1.848 1.167"/><rect class="cls-12" x="1.127" y="4.766" width="1.094" height="0.469" transform="translate(-3.04 2.637) rotate(-44.855)"/><rect class="cls-13" x="2.948" y="6.038" width="1.096" height="0.469" transform="translate(-3.402 4.274) rotate(-44.711)"/><rect class="cls-14" x="8.537" y="5.661" width="1.095" height="0.662" transform="translate(-1.583 8.145) rotate(-44.817)"/><path class="cls-15" d="M7.725,5.235a.391.391,0,1,1-.389.391A.392.392,0,0,1,7.725,5.235Z"/><path class="cls-16" d="M9.547,4.923a.293.293,0,1,1,.293.291A.292.292,0,0,1,9.547,4.923Z"/><path class="cls-17" d="M1.44,2.122a.294.294,0,1,1,.294-.293A.293.293,0,0,1,1.44,2.122Z"/><polygon class="cls-18" points="8.201 0.617 8.223 0.595 8.291 0.664 8.588 0.37 8.52 0.301 8.762 0.063 9.162 0.063 8.402 0.819 8.201 0.617"/><polygon class="cls-19" points="9.529 1.324 10.801 0.063 10.877 0.063 10.877 0.436 9.752 1.55 9.529 1.324"/><polygon class="cls-20" points="9.524 0.203 9.664 0.063 10.434 0.063 9.904 0.588 9.524 0.203"/><polygon class="cls-21" points="6.07 2.392 7.809 0.668 7.988 0.848 6.248 2.573 6.07 2.392"/><rect class="cls-22" x="5.192" y="1.325" width="2.451" height="0.255" transform="translate(0.834 4.934) rotate(-44.693)"/><polygon class="cls-23" points="3.375 3.405 4.908 1.885 4.785 1.762 4.992 1.557 5.172 1.734 3.43 3.461 3.375 3.405"/><polygon class="cls-24" points="3.375 3.405 3.252 3.279 4.785 1.762 4.908 1.885 3.375 3.405"/><polygon class="cls-24" points="3.375 3.405 3.252 3.279 4.785 1.762 4.908 1.885 3.375 3.405"/><polygon class="cls-25" points="3.059 1.324 4.336 0.063 5.031 0.063 3.404 1.673 3.059 1.324"/><polygon class="cls-26" points="5.076 0.975 4.699 1.348 4.354 1 5.303 0.063 5.387 0.063 5.317 0.133 5.442 0.259 5.641 0.063 5.861 0.063 5.01 0.906 5.076 0.975"/><polygon class="cls-27" points="4.424 1.769 3.949 2.24 3.746 2.038 4.221 1.566 4.424 1.769"/><polygon class="cls-27" points="4.424 1.769 3.949 2.24 3.746 2.038 4.221 1.566 4.424 1.769"/><polygon class="cls-28" points="5.063 3.02 4.859 2.816 5.338 2.344 5.543 2.547 5.063 3.02"/><rect class="cls-29" x="8.259" y="2.32" width="0.671" height="0.319" transform="translate(0.745 6.77) rotate(-44.75)"/><polygon class="cls-30" points="9.006 2.418 8.529 2.891 8.469 2.83 8.945 2.357 9.006 2.418"/><polygon class="cls-30" points="9.006 2.418 8.529 2.891 8.469 2.83 8.945 2.357 9.006 2.418"/><path class="cls-31" d="M7.793,2.525a.24.24,0,1,1,.238-.24A.238.238,0,0,1,7.793,2.525Z"/><path class="cls-32" d="M9.088,2.035a.181.181,0,0,1-.18-.18.18.18,0,0,1,.36,0A.182.182,0,0,1,9.088,2.035Z"/><path class="cls-33" d="M3.942.14A.177.177,0,0,1,3.8.063h.275A.165.165,0,0,1,3.942.14Z"/><polygon class="cls-34" points="6.762 0.354 7.055 0.063 7.279 0.063 6.871 0.467 6.762 0.354"/><polygon class="cls-35" points="6.381 0.25 6.57 0.063 6.793 0.063 6.49 0.363 6.381 0.25"/><polygon class="cls-36" points="5.076 0.975 6 0.063 6.082 0.063 5.119 1.019 5.076 0.975"/><polygon class="cls-37" points="5.01 0.906 5.861 0.063 6 0.063 5.076 0.975 5.01 0.906"/><polygon class="cls-37" points="5.01 0.906 5.861 0.063 6 0.063 5.076 0.975 5.01 0.906"/><polygon class="cls-38" points="5.317 0.133 5.387 0.063 5.641 0.063 5.442 0.259 5.317 0.133"/><polygon class="cls-38" points="5.317 0.133 5.387 0.063 5.641 0.063 5.442 0.259 5.317 0.133"/><rect class="cls-39" x="6.012" y="0.445" width="0.418" height="0.178" transform="translate(1.411 4.515) rotate(-44.522)"/><rect class="cls-40" x="8.108" y="0.315" width="0.418" height="0.155" transform="translate(2.13 5.965) rotate(-44.713)"/><polygon class="cls-41" points="8.291 0.664 8.223 0.595 8.52 0.301 8.588 0.37 8.291 0.664"/><polygon class="cls-41" points="8.291 0.664 8.223 0.595 8.52 0.301 8.588 0.37 8.291 0.664"/><path class="cls-42" d="M7.832.437A.15.15,0,1,1,7.98.287.149.149,0,0,1,7.832.437Z"/><path class="cls-43" d="M8.637.133a.105.105,0,0,1-.092-.07h.188A.106.106,0,0,1,8.637.133Z"/><path class="cls-44" d="M9.267,1.789a.179.179,0,0,1-.18.18.18.18,0,1,1,.18-.18ZM6.019.744a.293.293,0,1,1-.292.293A.293.293,0,0,1,6.019.744Zm-1.69,1.2L5.1,1.17l.468.467-.77.777Zm3.71.535-.328-.324L9.612.242,9.94.564,8.585,1.932l.226.224-.471.477-.228-.225ZM9.407,9.438a.294.294,0,1,1-.294-.295A.293.293,0,0,1,9.407,9.438Zm1.139-1.182-.772.773L9.442,8.7l.772-.779ZM9.385,5.885l-.205.207.44.439L7.413,8.764,6.846,8.2l.691-.7L7.48,7.447,9.208,5.705ZM6.493,8.98l-.771.776-.332-.33.77-.778ZM8.126,6.018l-.2-.2.473-.48.2.205ZM10.617,4.57l-.292.3L10.2,4.742l.294-.3Zm-.176-.892L8.718,5.42l-.182-.18L10.262,3.5Zm.363-.633a.15.15,0,1,1-.149-.149A.149.149,0,0,1,10.8,3.045Zm-.531.023L8.55,4.807l-.181-.178,1.725-1.74ZM8.9,3.084a.24.24,0,1,1-.239-.238A.239.239,0,0,1,8.9,3.084Zm-3.97.068a.391.391,0,1,1,.781,0,.391.391,0,0,1-.781,0Zm-.079,2.52,2.817-2.84.291.293L5.143,5.961ZM7.935,3.83l.293.291L5.416,6.963,5.122,6.67ZM4.117,7.605l.772-.779.332.332-.771.778ZM3.4,10.271,6.215,7.432l.292.291-2.813,2.84Zm2.916.039L9.132,7.471l.563.564-2.81,2.842Z"/><polygon class="cls-45" points="8.523 1.871 8.585 1.932 9.94 0.564 9.612 0.242 7.711 2.158 8.039 2.482 8.112 2.408 8.051 2.348 8.523 1.871"/><polygon class="cls-46" points="7.202 0 6.564 0 6.889 0.316 7.202 0"/><polygon class="cls-47" points="9.04 0 8.386 0 8.717 0.326 9.04 0"/><polygon class="cls-48" points="7.664 2.832 4.847 5.672 5.143 5.961 7.955 3.125 7.664 2.832"/><rect class="cls-49" x="4.677" y="5.189" width="3.998" height="0.414" transform="translate(-1.856 6.343) rotate(-45.283)"/><polygon class="cls-50" points="6.215 7.432 3.399 10.271 3.694 10.563 6.507 7.723 6.215 7.432"/><polygon class="cls-51" points="9.132 7.471 6.315 10.31 6.885 10.877 9.695 8.035 9.132 7.471"/><path class="cls-52" d="M7.537,7.5l-.691.7.567.565L9.62,6.531l-.44-.439L7.663,7.625ZM8.7,6.928l.471-.475.2.2L8.9,7.131Z"/><polygon class="cls-53" points="10.051 10.172 10.383 10.5 10.879 9.998 10.879 9.449 10.821 9.393 10.051 10.172"/><polygon class="cls-54" points="9.774 9.029 10.546 8.256 10.214 7.924 9.442 8.703 9.774 9.029"/><rect class="cls-55" x="5.394" y="8.968" width="1.094" height="0.469" transform="translate(-4.773 6.923) rotate(-45.144)"/><rect class="cls-56" x="4.121" y="7.147" width="1.096" height="0.469" transform="translate(-3.861 5.506) rotate(-45.288)"/><rect class="cls-57" x="4.403" y="1.461" width="1.095" height="0.662" transform="translate(0.19 4.04) rotate(-45.179)"/><path class="cls-58" d="M5.707,3.152a.391.391,0,1,0-.781,0,.391.391,0,0,0,.781,0Z"/><path class="cls-59" d="M6.019,1.33a.293.293,0,1,0-.292-.293A.292.292,0,0,0,6.019,1.33Z"/><path class="cls-60" d="M8.82,9.438a.294.294,0,1,0,.293-.295A.293.293,0,0,0,8.82,9.438Z"/><polygon class="cls-61" points="10.325 2.676 10.347 2.654 10.278 2.586 10.572 2.289 10.641 2.357 10.879 2.115 10.879 1.715 10.123 2.475 10.325 2.676"/><polygon class="cls-62" points="9.618 1.348 10.879 0.076 10.879 0 10.506 0 9.392 1.125 9.618 1.348"/><polygon class="cls-63" points="10.739 1.354 10.879 1.213 10.879 0.443 10.353 0.973 10.739 1.354"/><polygon class="cls-64" points="8.55 4.807 10.273 3.068 10.094 2.889 8.369 4.629 8.55 4.807"/><rect class="cls-65" x="8.264" y="4.332" width="2.451" height="0.255" transform="translate(-0.354 8.069) rotate(-45.307)"/><polygon class="cls-66" points="7.537 7.502 9.057 5.969 9.18 6.092 9.385 5.885 9.208 5.705 7.48 7.447 7.537 7.502"/><polygon class="cls-67" points="7.537 7.502 7.663 7.625 9.18 6.092 9.057 5.969 7.537 7.502"/><polygon class="cls-67" points="7.537 7.502 7.663 7.625 9.18 6.092 9.057 5.969 7.537 7.502"/><polygon class="cls-68" points="9.618 7.818 10.879 6.541 10.879 5.846 9.269 7.473 9.618 7.818"/><polygon class="cls-69" points="9.967 5.801 9.594 6.178 9.941 6.523 10.879 5.574 10.879 5.49 10.809 5.561 10.683 5.436 10.879 5.236 10.879 5.016 10.036 5.867 9.967 5.801"/><polygon class="cls-70" points="9.173 6.453 8.702 6.928 8.904 7.131 9.376 6.656 9.173 6.453"/><polygon class="cls-70" points="9.173 6.453 8.702 6.928 8.904 7.131 9.376 6.656 9.173 6.453"/><polygon class="cls-71" points="7.922 5.814 8.126 6.018 8.598 5.539 8.395 5.334 7.922 5.814"/><rect class="cls-72" x="8.127" y="2.123" width="0.671" height="0.319" transform="translate(0.883 6.684) rotate(-45.24)"/><polygon class="cls-73" points="8.523 1.871 8.051 2.348 8.112 2.408 8.585 1.932 8.523 1.871"/><polygon class="cls-73" points="8.523 1.871 8.051 2.348 8.112 2.408 8.585 1.932 8.523 1.871"/><path class="cls-74" d="M8.417,3.084a.24.24,0,1,0,.24-.238A.238.238,0,0,0,8.417,3.084Z"/><path class="cls-75" d="M8.907,1.789a.181.181,0,0,0,.18.18.18.18,0,1,0,0-.36A.182.182,0,0,0,8.907,1.789Z"/><path class="cls-76" d="M10.8,6.936a.177.177,0,0,0,.077.138V6.8A.165.165,0,0,0,10.8,6.936Z"/><polygon class="cls-77" points="10.588 4.115 10.879 3.822 10.879 3.598 10.475 4.006 10.588 4.115"/><polygon class="cls-78" points="10.692 4.496 10.879 4.307 10.879 4.084 10.579 4.387 10.692 4.496"/><polygon class="cls-79" points="9.967 5.801 10.879 4.877 10.879 4.795 9.923 5.758 9.967 5.801"/><polygon class="cls-80" points="10.036 5.867 10.879 5.016 10.879 4.877 9.967 5.801 10.036 5.867"/><polygon class="cls-80" points="10.036 5.867 10.879 5.016 10.879 4.877 9.967 5.801 10.036 5.867"/><polygon class="cls-81" points="10.809 5.561 10.879 5.49 10.879 5.236 10.683 5.436 10.809 5.561"/><polygon class="cls-81" points="10.809 5.561 10.879 5.49 10.879 5.236 10.683 5.436 10.809 5.561"/><rect class="cls-82" x="10.199" y="4.567" width="0.418" height="0.178" transform="translate(-0.21 8.811) rotate(-45.475)"/><rect class="cls-83" x="10.34" y="2.483" width="0.418" height="0.155" transform="translate(1.307 8.254) rotate(-45.278)"/><polygon class="cls-84" points="10.278 2.586 10.347 2.654 10.641 2.357 10.572 2.289 10.278 2.586"/><polygon class="cls-84" points="10.278 2.586 10.347 2.654 10.641 2.357 10.572 2.289 10.278 2.586"/><path class="cls-85" d="M10.505,3.045a.15.15,0,1,0,.15-.149A.149.149,0,0,0,10.505,3.045Z"/><path class="cls-86" d="M10.809,2.24a.105.105,0,0,0,.07.092V2.145A.1.1,0,0,0,10.809,2.24Z"/></g></g></svg>