<svg xmlns="http://www.w3.org/2000/svg" xmlns:xlink="http://www.w3.org/1999/xlink" viewBox="0 0 72.128 7.937"><defs><style>.cls-1{fill:url(#radial-gradient);}</style><radialGradient id="radial-gradient" cx="66.064" cy="4.602" r="56.005" gradientUnits="userSpaceOnUse"><stop offset="0" stop-color="#9be15d"/><stop offset="0" stop-color="#a8cf56"/><stop offset="0" stop-color="#bcb24a"/><stop offset="0" stop-color="#cb9d42"/><stop offset="0" stop-color="#d4903d"/><stop offset="0" stop-color="#d78c3b"/><stop offset="0" stop-color="#ca9e42"/><stop offset="0" stop-color="#b6bb4e"/><stop offset="0" stop-color="#a7d056"/><stop offset="0" stop-color="#9edd5b"/><stop offset="0" stop-color="#9be15d"/><stop offset="0.035" stop-color="#90e163"/><stop offset="0.194" stop-color="#65e279"/><stop offset="0.356" stop-color="#40e28c"/><stop offset="0.517" stop-color="#24e39b"/><stop offset="0.678" stop-color="#10e3a6"/><stop offset="0.839" stop-color="#04e3ac"/><stop offset="1" stop-color="#00e3ae"/></radialGradient></defs><title>Asset 3</title><g id="Layer_2" data-name="Layer 2"><g id="BACKGROUND_1" data-name="BACKGROUND 1"><polygon class="cls-1" points="72.128 7.149 64.023 0 57.308 6.583 49.846 0 43.13 6.583 35.668 0 28.953 6.583 21.491 0 14.775 6.583 7.313 0 0 7.168 0.735 7.918 7.351 1.434 14.723 7.937 14.822 7.825 14.913 7.918 21.529 1.434 28.901 7.937 28.999 7.825 29.091 7.918 35.706 1.434 43.078 7.937 43.177 7.825 43.268 7.918 49.884 1.434 57.256 7.937 57.355 7.825 57.446 7.918 64.061 1.434 71.434 7.937 72.128 7.149"/></g></g></svg>