<svg xmlns="http://www.w3.org/2000/svg" xmlns:xlink="http://www.w3.org/1999/xlink" viewBox="0 0 10.877 10.877"><defs><style>.cls-1{fill:url(#linear-gradient);}.cls-2{fill:url(#linear-gradient-2);}.cls-3{fill:url(#linear-gradient-3);}.cls-4{fill:url(#linear-gradient-4);}.cls-5{fill:url(#linear-gradient-5);}.cls-6{fill:url(#linear-gradient-6);}.cls-7{fill:url(#linear-gradient-7);}.cls-8{fill:url(#linear-gradient-8);}.cls-9{fill:url(#linear-gradient-9);}.cls-10{fill:url(#linear-gradient-10);}.cls-11{fill:url(#linear-gradient-11);}.cls-12{fill:url(#linear-gradient-12);}.cls-13{fill:url(#linear-gradient-13);}.cls-14{fill:url(#linear-gradient-14);}.cls-15{fill:url(#linear-gradient-15);}.cls-16{fill:url(#linear-gradient-16);}.cls-17{fill:url(#linear-gradient-17);}.cls-18{fill:url(#linear-gradient-18);}.cls-19{fill:url(#linear-gradient-19);}.cls-20{fill:url(#linear-gradient-20);}.cls-21{fill:url(#linear-gradient-21);}.cls-22{fill:url(#linear-gradient-22);}.cls-23{fill:url(#linear-gradient-23);}.cls-24{fill:url(#linear-gradient-24);}.cls-25{fill:url(#linear-gradient-26);}.cls-26{fill:url(#linear-gradient-27);}.cls-27{fill:url(#linear-gradient-28);}.cls-28{fill:url(#linear-gradient-30);}.cls-29{fill:url(#linear-gradient-31);}.cls-30{fill:url(#linear-gradient-32);}.cls-31{fill:url(#linear-gradient-34);}.cls-32{fill:url(#linear-gradient-35);}.cls-33{fill:url(#linear-gradient-36);}.cls-34{fill:url(#linear-gradient-37);}.cls-35{fill:url(#linear-gradient-38);}.cls-36{fill:url(#linear-gradient-39);}.cls-37{fill:url(#linear-gradient-40);}.cls-38{fill:url(#linear-gradient-42);}.cls-39{fill:url(#linear-gradient-44);}.cls-40{fill:url(#linear-gradient-45);}.cls-41{fill:url(#linear-gradient-46);}.cls-42{fill:url(#linear-gradient-48);}.cls-43{fill:url(#linear-gradient-49);}.cls-44{fill:url(#linear-gradient-50);}.cls-45{fill:url(#linear-gradient-51);}.cls-46{fill:url(#linear-gradient-52);}.cls-47{fill:url(#linear-gradient-53);}.cls-48{fill:url(#linear-gradient-54);}.cls-49{fill:url(#linear-gradient-55);}.cls-50{fill:url(#linear-gradient-56);}.cls-51{fill:url(#linear-gradient-57);}.cls-52{fill:url(#linear-gradient-58);}.cls-53{fill:url(#linear-gradient-59);}.cls-54{fill:url(#linear-gradient-60);}.cls-55{fill:url(#linear-gradient-61);}.cls-56{fill:url(#linear-gradient-62);}.cls-57{fill:url(#linear-gradient-63);}.cls-58{fill:url(#linear-gradient-64);}.cls-59{fill:url(#linear-gradient-65);}.cls-60{fill:url(#linear-gradient-66);}.cls-61{fill:url(#linear-gradient-67);}.cls-62{fill:url(#linear-gradient-68);}.cls-63{fill:url(#linear-gradient-69);}.cls-64{fill:url(#linear-gradient-70);}.cls-65{fill:url(#linear-gradient-71);}.cls-66{fill:url(#linear-gradient-72);}.cls-67{fill:url(#linear-gradient-73);}.cls-68{fill:url(#linear-gradient-75);}.cls-69{fill:url(#linear-gradient-76);}.cls-70{fill:url(#linear-gradient-77);}.cls-71{fill:url(#linear-gradient-79);}.cls-72{fill:url(#linear-gradient-80);}.cls-73{fill:url(#linear-gradient-81);}.cls-74{fill:url(#linear-gradient-83);}.cls-75{fill:url(#linear-gradient-84);}.cls-76{fill:url(#linear-gradient-85);}.cls-77{fill:url(#linear-gradient-86);}.cls-78{fill:url(#linear-gradient-87);}.cls-79{fill:url(#linear-gradient-88);}.cls-80{fill:url(#linear-gradient-89);}.cls-81{fill:url(#linear-gradient-91);}.cls-82{fill:url(#linear-gradient-93);}.cls-83{fill:url(#linear-gradient-94);}.cls-84{fill:url(#linear-gradient-95);}.cls-85{fill:url(#linear-gradient-97);}.cls-86{fill:url(#linear-gradient-98);}</style><linearGradient id="linear-gradient" x1="7.806" y1="2.143" x2="4.098" y2="5.351" gradientUnits="userSpaceOnUse"><stop offset="0" stop-color="#434343"/><stop offset="1"/></linearGradient><linearGradient id="linear-gradient-2" x1="-38.113" y1="-50.932" x2="-41.821" y2="-47.724" gradientTransform="translate(59.716 -27.481) rotate(-90)" xlink:href="#linear-gradient"/><linearGradient id="linear-gradient-3" x1="-39.607" y1="-52.659" x2="-43.316" y2="-49.451" gradientTransform="translate(59.716 -27.481) rotate(-90)" xlink:href="#linear-gradient"/><linearGradient id="linear-gradient-4" x1="-38.824" y1="-51.753" x2="-42.532" y2="-48.545" gradientTransform="translate(59.716 -27.481) rotate(-90)" xlink:href="#linear-gradient"/><linearGradient id="linear-gradient-5" x1="-37.649" y1="-50.395" x2="-41.357" y2="-47.187" gradientTransform="translate(59.716 -27.481) rotate(-90)" xlink:href="#linear-gradient"/><linearGradient id="linear-gradient-6" x1="-37.037" y1="-49.689" x2="-40.746" y2="-46.48" gradientTransform="translate(66.129 20.514) rotate(-44.712)" xlink:href="#linear-gradient"/><linearGradient id="linear-gradient-7" x1="-35.992" y1="-48.481" x2="-39.701" y2="-45.273" gradientTransform="translate(59.716 -27.481) rotate(-90)" xlink:href="#linear-gradient"/><linearGradient id="linear-gradient-8" x1="-34.598" y1="-46.869" x2="-38.306" y2="-43.66" gradientTransform="translate(59.716 -27.481) rotate(-90)" xlink:href="#linear-gradient"/><linearGradient id="linear-gradient-9" x1="35.786" y1="34.484" x2="32.078" y2="37.692" gradientTransform="translate(53.246 28.396) rotate(180)" xlink:href="#linear-gradient"/><linearGradient id="linear-gradient-10" x1="-33.105" y1="-45.144" x2="-36.813" y2="-41.935" gradientTransform="translate(59.716 -27.481) rotate(-90)" xlink:href="#linear-gradient"/><linearGradient id="linear-gradient-11" x1="-34.093" y1="-46.285" x2="-37.801" y2="-43.077" gradientTransform="translate(59.716 -27.481) rotate(-90)" xlink:href="#linear-gradient"/><linearGradient id="linear-gradient-12" x1="-35.469" y1="-47.876" x2="-39.177" y2="-44.667" gradientTransform="translate(67.812 17.88) rotate(-44.856)" xlink:href="#linear-gradient"/><linearGradient id="linear-gradient-13" x1="-36.914" y1="-49.546" x2="-40.622" y2="-46.338" gradientTransform="translate(68.143 19.699) rotate(-44.711)" xlink:href="#linear-gradient"/><linearGradient id="linear-gradient-14" x1="-39.559" y1="-52.603" x2="-43.267" y2="-49.395" gradientTransform="translate(66.32 23.466) rotate(-44.819)" xlink:href="#linear-gradient"/><linearGradient id="linear-gradient-15" x1="-38.73" y1="-51.645" x2="-42.438" y2="-48.437" gradientTransform="translate(59.716 -27.481) rotate(-90)" xlink:href="#linear-gradient"/><linearGradient id="linear-gradient-16" x1="-39.475" y1="-52.506" x2="-43.183" y2="-49.297" gradientTransform="translate(59.716 -27.481) rotate(-90)" xlink:href="#linear-gradient"/><linearGradient id="linear-gradient-17" x1="-33.994" y1="-46.171" x2="-37.703" y2="-42.963" gradientTransform="translate(59.716 -27.481) rotate(-90)" xlink:href="#linear-gradient"/><linearGradient id="linear-gradient-18" x1="-36.94" y1="-49.577" x2="-40.649" y2="-46.368" gradientTransform="translate(59.716 -27.481) rotate(-90)" xlink:href="#linear-gradient"/><linearGradient id="linear-gradient-19" x1="-37.924" y1="-50.714" x2="-41.633" y2="-47.506" gradientTransform="translate(59.716 -27.481) rotate(-90)" xlink:href="#linear-gradient"/><linearGradient id="linear-gradient-20" x1="-37.493" y1="-50.216" x2="-41.202" y2="-47.007" gradientTransform="translate(59.716 -27.481) rotate(-90)" xlink:href="#linear-gradient"/><linearGradient id="linear-gradient-21" x1="-36.671" y1="-49.265" x2="-40.379" y2="-46.057" gradientTransform="translate(59.716 -27.481) rotate(-90)" xlink:href="#linear-gradient"/><linearGradient id="linear-gradient-22" x1="-36.296" y1="-48.832" x2="-40.005" y2="-45.624" gradientTransform="translate(63.846 20.365) rotate(-44.693)" xlink:href="#linear-gradient"/><linearGradient id="linear-gradient-23" x1="-35.711" y1="-48.155" x2="-39.419" y2="-44.947" gradientTransform="translate(59.716 -27.481) rotate(-90)" xlink:href="#linear-gradient"/><linearGradient id="linear-gradient-24" x1="-35.623" y1="-48.054" x2="-39.332" y2="-44.846" gradientTransform="translate(59.716 -27.481) rotate(-90)" xlink:href="#linear-gradient"/><linearGradient id="linear-gradient-26" x1="-34.797" y1="-47.1" x2="-38.506" y2="-43.891" gradientTransform="translate(59.716 -27.481) rotate(-90)" xlink:href="#linear-gradient"/><linearGradient id="linear-gradient-27" x1="-35.255" y1="-47.628" x2="-38.963" y2="-44.42" gradientTransform="translate(59.716 -27.481) rotate(-90)" xlink:href="#linear-gradient"/><linearGradient id="linear-gradient-28" x1="-35.335" y1="-47.721" x2="-39.043" y2="-44.513" gradientTransform="translate(59.716 -27.481) rotate(-90)" xlink:href="#linear-gradient"/><linearGradient id="linear-gradient-30" x1="-36.221" y1="-48.745" x2="-39.929" y2="-45.536" gradientTransform="translate(59.716 -27.481) rotate(-90)" xlink:href="#linear-gradient"/><linearGradient id="linear-gradient-31" x1="-37.813" y1="-50.586" x2="-41.522" y2="-47.377" gradientTransform="translate(63.95 22.155) rotate(-44.751)" xlink:href="#linear-gradient"/><linearGradient id="linear-gradient-32" x1="-37.946" y1="-50.739" x2="-41.654" y2="-47.53" gradientTransform="translate(59.716 -27.481) rotate(-90)" xlink:href="#linear-gradient"/><linearGradient id="linear-gradient-34" x1="-37.333" y1="-50.03" x2="-41.041" y2="-46.822" gradientTransform="translate(59.716 -27.481) rotate(-90)" xlink:href="#linear-gradient"/><linearGradient id="linear-gradient-35" x1="-37.789" y1="-50.558" x2="-41.498" y2="-47.35" gradientTransform="translate(59.716 -27.481) rotate(-90)" xlink:href="#linear-gradient"/><linearGradient id="linear-gradient-36" x1="-34.476" y1="-46.728" x2="-38.184" y2="-43.52" gradientTransform="translate(59.716 -27.481) rotate(-90)" xlink:href="#linear-gradient"/><linearGradient id="linear-gradient-37" x1="-36.062" y1="-48.561" x2="-39.77" y2="-45.353" gradientTransform="translate(59.716 -27.481) rotate(-90)" xlink:href="#linear-gradient"/><linearGradient id="linear-gradient-38" x1="-35.825" y1="-48.288" x2="-39.534" y2="-45.079" gradientTransform="translate(59.716 -27.481) rotate(-90)" xlink:href="#linear-gradient"/><linearGradient id="linear-gradient-39" x1="-35.482" y1="-47.891" x2="-39.19" y2="-44.682" gradientTransform="translate(59.716 -27.481) rotate(-90)" xlink:href="#linear-gradient"/><linearGradient id="linear-gradient-40" x1="-35.43" y1="-47.831" x2="-39.139" y2="-44.623" gradientTransform="translate(59.716 -27.481) rotate(-90)" xlink:href="#linear-gradient"/><linearGradient id="linear-gradient-42" x1="-35.252" y1="-47.625" x2="-38.96" y2="-44.417" gradientTransform="translate(59.716 -27.481) rotate(-90)" xlink:href="#linear-gradient"/><linearGradient id="linear-gradient-44" x1="-35.806" y1="-48.265" x2="-39.514" y2="-45.057" gradientTransform="translate(63.193 20.125) rotate(-44.524)" xlink:href="#linear-gradient"/><linearGradient id="linear-gradient-45" x1="-36.782" y1="-49.394" x2="-40.491" y2="-46.186" gradientTransform="translate(62.538 21.376) rotate(-44.716)" xlink:href="#linear-gradient"/><linearGradient id="linear-gradient-46" x1="-36.865" y1="-49.489" x2="-40.573" y2="-46.281" gradientTransform="translate(59.716 -27.481) rotate(-90)" xlink:href="#linear-gradient"/><linearGradient id="linear-gradient-48" x1="-36.497" y1="-49.065" x2="-40.206" y2="-45.856" gradientTransform="translate(59.716 -27.481) rotate(-90)" xlink:href="#linear-gradient"/><linearGradient id="linear-gradient-49" x1="-36.803" y1="-49.417" x2="-40.511" y2="-46.209" gradientTransform="translate(59.716 -27.481) rotate(-90)" xlink:href="#linear-gradient"/><linearGradient id="linear-gradient-50" x1="1.764" y1="8.028" x2="4.847" y2="4.737" gradientUnits="userSpaceOnUse"><stop offset="0" stop-color="#4481eb"/><stop offset="1" stop-color="#04befe"/></linearGradient><linearGradient id="linear-gradient-51" x1="-35.744" y1="-27.106" x2="-32.661" y2="-30.397" gradientTransform="matrix(-1, 0, 0, 1, -30.879, 31.469)" xlink:href="#linear-gradient-50"/><linearGradient id="linear-gradient-52" x1="-37.458" y1="-28.711" x2="-34.375" y2="-32.003" gradientTransform="matrix(-1, 0, 0, 1, -30.879, 31.469)" xlink:href="#linear-gradient-50"/><linearGradient id="linear-gradient-53" x1="-36.483" y1="-27.798" x2="-33.4" y2="-31.09" gradientTransform="matrix(-1, 0, 0, 1, -30.879, 31.469)" xlink:href="#linear-gradient-50"/><linearGradient id="linear-gradient-54" x1="-35.52" y1="-26.896" x2="-32.437" y2="-30.188" gradientTransform="matrix(-1, 0, 0, 1, -30.879, 31.469)" xlink:href="#linear-gradient-50"/><linearGradient id="linear-gradient-55" x1="-34.877" y1="-26.293" x2="-31.793" y2="-29.585" gradientTransform="matrix(-0.711, -0.704, -0.704, 0.711, -39.071, -0.757)" xlink:href="#linear-gradient-50"/><linearGradient id="linear-gradient-56" x1="-33.997" y1="-25.469" x2="-30.914" y2="-28.761" gradientTransform="matrix(-1, 0, 0, 1, -30.879, 31.469)" xlink:href="#linear-gradient-50"/><linearGradient id="linear-gradient-57" x1="-32.284" y1="-23.864" x2="-29.2" y2="-27.156" gradientTransform="matrix(-1, 0, 0, 1, -30.879, 31.469)" xlink:href="#linear-gradient-50"/><linearGradient id="linear-gradient-58" x1="17.363" y1="22.64" x2="20.446" y2="19.348" gradientTransform="matrix(0, -1, -1, 0, 24.999, 25)" xlink:href="#linear-gradient-50"/><linearGradient id="linear-gradient-59" x1="-30.518" y1="-22.211" x2="-27.435" y2="-25.502" gradientTransform="matrix(-1, 0, 0, 1, -30.879, 31.469)" xlink:href="#linear-gradient-50"/><linearGradient id="linear-gradient-60" x1="-31.57" y1="-23.196" x2="-28.487" y2="-26.488" gradientTransform="matrix(-1, 0, 0, 1, -30.879, 31.469)" xlink:href="#linear-gradient-50"/><linearGradient id="linear-gradient-61" x1="-33.368" y1="-24.88" x2="-30.285" y2="-28.172" gradientTransform="matrix(-0.709, -0.705, -0.705, 0.709, -36.157, -0.275)" xlink:href="#linear-gradient-50"/><linearGradient id="linear-gradient-62" x1="-34.954" y1="-26.366" x2="-31.871" y2="-29.658" gradientTransform="matrix(-0.711, -0.704, -0.704, 0.711, -37.094, -1.594)" xlink:href="#linear-gradient-50"/><linearGradient id="linear-gradient-63" x1="-37.594" y1="-28.838" x2="-34.51" y2="-32.13" gradientTransform="matrix(-0.709, -0.705, -0.705, 0.709, -41.099, -3.102)" xlink:href="#linear-gradient-50"/><linearGradient id="linear-gradient-64" x1="-36.72" y1="-28.02" x2="-33.637" y2="-31.312" gradientTransform="matrix(-1, 0, 0, 1, -30.879, 31.469)" xlink:href="#linear-gradient-50"/><linearGradient id="linear-gradient-65" x1="-37.4" y1="-28.657" x2="-34.317" y2="-31.948" gradientTransform="matrix(-1, 0, 0, 1, -30.879, 31.469)" xlink:href="#linear-gradient-50"/><linearGradient id="linear-gradient-66" x1="-31.562" y1="-23.188" x2="-28.478" y2="-26.48" gradientTransform="matrix(-1, 0, 0, 1, -30.879, 31.469)" xlink:href="#linear-gradient-50"/><linearGradient id="linear-gradient-67" x1="-34.386" y1="-25.833" x2="-31.302" y2="-29.125" gradientTransform="matrix(-1, 0, 0, 1, -30.879, 31.469)" xlink:href="#linear-gradient-50"/><linearGradient id="linear-gradient-68" x1="-35.426" y1="-26.808" x2="-32.343" y2="-30.1" gradientTransform="matrix(-1, 0, 0, 1, -30.879, 31.469)" xlink:href="#linear-gradient-50"/><linearGradient id="linear-gradient-69" x1="-34.924" y1="-26.338" x2="-31.841" y2="-29.63" gradientTransform="matrix(-1, 0, 0, 1, -30.879, 31.469)" xlink:href="#linear-gradient-50"/><linearGradient id="linear-gradient-70" x1="-34.239" y1="-25.696" x2="-31.156" y2="-28.988" gradientTransform="matrix(-1, 0, 0, 1, -30.879, 31.469)" xlink:href="#linear-gradient-50"/><linearGradient id="linear-gradient-71" x1="-33.845" y1="-25.327" x2="-30.762" y2="-28.619" gradientTransform="matrix(-0.711, -0.703, -0.703, 0.711, -40.546, 0.965)" xlink:href="#linear-gradient-50"/><linearGradient id="linear-gradient-72" x1="-33.307" y1="-24.823" x2="-30.224" y2="-28.114" gradientTransform="matrix(-1, 0, 0, 1, -30.879, 31.469)" xlink:href="#linear-gradient-50"/><linearGradient id="linear-gradient-73" x1="-33.281" y1="-24.799" x2="-30.198" y2="-28.09" gradientTransform="matrix(-1, 0, 0, 1, -30.879, 31.469)" xlink:href="#linear-gradient-50"/><linearGradient id="linear-gradient-75" x1="-32.262" y1="-23.844" x2="-29.179" y2="-27.136" gradientTransform="matrix(-1, 0, 0, 1, -30.879, 31.469)" xlink:href="#linear-gradient-50"/><linearGradient id="linear-gradient-76" x1="-32.74" y1="-24.292" x2="-29.657" y2="-27.584" gradientTransform="matrix(-1, 0, 0, 1, -30.879, 31.469)" xlink:href="#linear-gradient-50"/><linearGradient id="linear-gradient-77" x1="-32.921" y1="-24.461" x2="-29.838" y2="-27.753" gradientTransform="matrix(-1, 0, 0, 1, -30.879, 31.469)" xlink:href="#linear-gradient-50"/><linearGradient id="linear-gradient-79" x1="-33.892" y1="-25.371" x2="-30.809" y2="-28.663" gradientTransform="matrix(-1, 0, 0, 1, -30.879, 31.469)" xlink:href="#linear-gradient-50"/><linearGradient id="linear-gradient-80" x1="-35.478" y1="-26.857" x2="-32.395" y2="-30.149" gradientTransform="matrix(-0.71, -0.704, -0.704, 0.71, -41.777, -0.431)" xlink:href="#linear-gradient-50"/><linearGradient id="linear-gradient-81" x1="-35.626" y1="-26.995" x2="-32.543" y2="-30.287" gradientTransform="matrix(-1, 0, 0, 1, -30.879, 31.469)" xlink:href="#linear-gradient-50"/><linearGradient id="linear-gradient-83" x1="-34.974" y1="-26.385" x2="-31.891" y2="-29.676" gradientTransform="matrix(-1, 0, 0, 1, -30.879, 31.469)" xlink:href="#linear-gradient-50"/><linearGradient id="linear-gradient-84" x1="-35.391" y1="-26.775" x2="-32.308" y2="-30.067" gradientTransform="matrix(-1, 0, 0, 1, -30.879, 31.469)" xlink:href="#linear-gradient-50"/><linearGradient id="linear-gradient-85" x1="-31.87" y1="-23.477" x2="-28.787" y2="-26.769" gradientTransform="matrix(-1, 0, 0, 1, -30.879, 31.469)" xlink:href="#linear-gradient-50"/><linearGradient id="linear-gradient-86" x1="-33.485" y1="-24.989" x2="-30.401" y2="-28.281" gradientTransform="matrix(-1, 0, 0, 1, -30.879, 31.469)" xlink:href="#linear-gradient-50"/><linearGradient id="linear-gradient-87" x1="-33.241" y1="-24.761" x2="-30.157" y2="-28.052" gradientTransform="matrix(-1, 0, 0, 1, -30.879, 31.469)" xlink:href="#linear-gradient-50"/><linearGradient id="linear-gradient-88" x1="-32.931" y1="-24.471" x2="-29.848" y2="-27.762" gradientTransform="matrix(-1, 0, 0, 1, -30.879, 31.469)" xlink:href="#linear-gradient-50"/><linearGradient id="linear-gradient-89" x1="-32.874" y1="-24.418" x2="-29.791" y2="-27.709" gradientTransform="matrix(-1, 0, 0, 1, -30.879, 31.469)" xlink:href="#linear-gradient-50"/><linearGradient id="linear-gradient-91" x1="-32.656" y1="-24.213" x2="-29.573" y2="-27.505" gradientTransform="matrix(-1, 0, 0, 1, -30.879, 31.469)" xlink:href="#linear-gradient-50"/><linearGradient id="linear-gradient-93" x1="-33.258" y1="-24.777" x2="-30.174" y2="-28.068" gradientTransform="matrix(-0.713, -0.701, -0.701, 0.713, -40.682, 1.79)" xlink:href="#linear-gradient-50"/><linearGradient id="linear-gradient-94" x1="-34.228" y1="-25.686" x2="-31.145" y2="-28.977" gradientTransform="matrix(-0.711, -0.704, -0.704, 0.711, -42.187, 1.144)" xlink:href="#linear-gradient-50"/><linearGradient id="linear-gradient-95" x1="-34.32" y1="-25.772" x2="-31.237" y2="-29.063" gradientTransform="matrix(-1, 0, 0, 1, -30.879, 31.469)" xlink:href="#linear-gradient-50"/><linearGradient id="linear-gradient-97" x1="-33.93" y1="-25.407" x2="-30.847" y2="-28.698" gradientTransform="matrix(-1, 0, 0, 1, -30.879, 31.469)" xlink:href="#linear-gradient-50"/><linearGradient id="linear-gradient-98" x1="-34.217" y1="-25.675" x2="-31.134" y2="-28.967" gradientTransform="matrix(-1, 0, 0, 1, -30.879, 31.469)" xlink:href="#linear-gradient-50"/></defs><title>Asset 2</title><g id="Layer_2" data-name="Layer 2"><g id="Layer_1-2" data-name="Layer 1"><path class="cls-1" d="M1.789,1.612a.179.179,0,0,1,.18.18.18.18,0,1,1-.18-.18ZM.744,4.86a.293.293,0,1,1,.293.291A.293.293,0,0,1,.744,4.86Zm1.2,1.69L1.17,5.777l.467-.468.777.77Zm.535-3.71-.324.328L.242,1.267.564.938,1.932,2.294l.224-.227.477.472-.225.228ZM9.438,1.472a.294.294,0,1,1-.295.294A.293.293,0,0,1,9.438,1.472ZM8.256.333l.773.771L8.7,1.437,7.924.665ZM5.885,1.494l.207.205.439-.44L8.764,3.466,8.2,4.033l-.7-.691L7.447,3.4,5.705,1.671Zm3.1,2.892.776.771-.33.332-.778-.77ZM6.018,2.753l-.2.2-.48-.473.205-.2ZM4.57.262l.3.292L4.742.681l-.3-.294ZM3.678.438,5.42,2.161l-.18.182L3.5.617ZM3.045.075A.15.15,0,1,1,2.9.224.149.149,0,0,1,3.045.075Zm.023.53L4.807,2.329l-.178.181L2.889.785Zm.016,1.378a.24.24,0,1,1-.238.239A.239.239,0,0,1,3.084,1.983Zm.068,3.97a.391.391,0,1,1,0-.781.391.391,0,0,1,0,.781Zm2.52.079L2.832,3.215l.293-.291L5.961,5.736ZM3.83,2.944l.291-.294L6.963,5.463l-.293.294ZM7.605,6.762,6.826,5.99l.332-.332.778.771Zm2.666.717L7.432,4.664l.291-.292,2.84,2.813Zm.039-2.916L7.471,1.747l.564-.563,2.842,2.81Z"/><polygon class="cls-2" points="1.871 2.355 1.932 2.294 0.564 0.938 0.242 1.267 2.158 3.168 2.482 2.84 2.408 2.767 2.348 2.828 1.871 2.355"/><polygon class="cls-3" points="0 3.677 0 4.315 0.316 3.99 0 3.677"/><polygon class="cls-4" points="0 1.839 0 2.493 0.326 2.162 0 1.839"/><polygon class="cls-5" points="2.832 3.215 5.672 6.032 5.961 5.736 3.125 2.924 2.832 3.215"/><rect class="cls-6" x="5.189" y="2.205" width="0.414" height="3.998" transform="translate(-1.388 5.081) rotate(-45.288)"/><polygon class="cls-7" points="7.432 4.664 10.271 7.479 10.563 7.185 7.723 4.372 7.432 4.664"/><polygon class="cls-8" points="7.471 1.747 10.31 4.563 10.877 3.994 8.035 1.184 7.471 1.747"/><path class="cls-9" d="M7.5,3.342l.7.691.565-.567L6.531,1.259l-.439.44L7.625,3.216ZM6.928,2.177l-.475-.471.2-.2.475.472Z"/><polygon class="cls-10" points="10.172 0.828 10.5 0.496 9.998 0 9.449 0 9.393 0.058 10.172 0.828"/><polygon class="cls-11" points="9.029 1.104 8.256 0.333 7.924 0.665 8.703 1.437 9.029 1.104"/><rect class="cls-12" x="8.968" y="4.391" width="0.469" height="1.094" transform="translate(-0.788 7.979) rotate(-45.144)"/><rect class="cls-13" x="7.147" y="5.662" width="0.469" height="1.096" transform="translate(-2.225 7.087) rotate(-45.289)"/><rect class="cls-14" x="1.461" y="5.381" width="0.662" height="1.095" transform="translate(-3.677 3.021) rotate(-45.181)"/><path class="cls-15" d="M3.152,5.172a.391.391,0,1,0,0,.781.391.391,0,0,0,0-.781Z"/><path class="cls-16" d="M1.33,4.86a.293.293,0,1,0-.293.291A.292.292,0,0,0,1.33,4.86Z"/><path class="cls-17" d="M9.438,2.059a.294.294,0,1,0-.295-.293A.293.293,0,0,0,9.438,2.059Z"/><polygon class="cls-18" points="2.676 0.554 2.654 0.532 2.586 0.601 2.289 0.307 2.357 0.238 2.115 0 1.715 0 2.475 0.756 2.676 0.554"/><polygon class="cls-19" points="1.348 1.261 0.076 0 0 0 0 0.373 1.125 1.487 1.348 1.261"/><polygon class="cls-20" points="1.354 0.14 1.213 0 0.443 0 0.973 0.525 1.354 0.14"/><polygon class="cls-21" points="4.807 2.329 3.068 0.605 2.889 0.785 4.629 2.51 4.807 2.329"/><rect class="cls-22" x="4.332" y="0.164" width="0.255" height="2.451" transform="translate(0.335 3.582) rotate(-45.307)"/><polygon class="cls-23" points="7.502 3.342 5.969 1.822 6.092 1.699 5.885 1.494 5.705 1.671 7.447 3.398 7.502 3.342"/><polygon class="cls-24" points="7.502 3.342 7.625 3.216 6.092 1.699 5.969 1.822 7.502 3.342"/><polygon class="cls-24" points="7.502 3.342 7.625 3.216 6.092 1.699 5.969 1.822 7.502 3.342"/><polygon class="cls-25" points="7.818 1.261 6.541 0 5.846 0 7.473 1.61 7.818 1.261"/><polygon class="cls-26" points="5.801 0.912 6.178 1.285 6.523 0.938 5.574 0 5.49 0 5.561 0.07 5.436 0.196 5.236 0 5.016 0 5.867 0.843 5.801 0.912"/><polygon class="cls-27" points="6.453 1.706 6.928 2.177 7.131 1.975 6.656 1.503 6.453 1.706"/><polygon class="cls-27" points="6.453 1.706 6.928 2.177 7.131 1.975 6.656 1.503 6.453 1.706"/><polygon class="cls-28" points="5.814 2.957 6.018 2.753 5.539 2.281 5.334 2.484 5.814 2.957"/><rect class="cls-29" x="2.123" y="2.081" width="0.319" height="0.671" transform="translate(-1.041 2.336) rotate(-45.249)"/><polygon class="cls-30" points="1.871 2.355 2.348 2.828 2.408 2.767 1.932 2.294 1.871 2.355"/><polygon class="cls-30" points="1.871 2.355 2.348 2.828 2.408 2.767 1.932 2.294 1.871 2.355"/><path class="cls-31" d="M3.084,2.462a.24.24,0,1,0-.238-.24A.238.238,0,0,0,3.084,2.462Z"/><path class="cls-32" d="M1.789,1.972a.181.181,0,0,0,.18-.18.18.18,0,0,0-.36,0A.182.182,0,0,0,1.789,1.972Z"/><path class="cls-33" d="M6.936.077A.177.177,0,0,0,7.074,0H6.8A.165.165,0,0,0,6.936.077Z"/><polygon class="cls-34" points="4.115 0.291 3.822 0 3.598 0 4.006 0.404 4.115 0.291"/><polygon class="cls-35" points="4.496 0.187 4.307 0 4.084 0 4.387 0.3 4.496 0.187"/><polygon class="cls-36" points="5.801 0.912 4.877 0 4.795 0 5.758 0.956 5.801 0.912"/><polygon class="cls-37" points="5.867 0.843 5.016 0 4.877 0 5.801 0.912 5.867 0.843"/><polygon class="cls-37" points="5.867 0.843 5.016 0 4.877 0 5.801 0.912 5.867 0.843"/><polygon class="cls-38" points="5.561 0.07 5.49 0 5.236 0 5.436 0.196 5.561 0.07"/><polygon class="cls-38" points="5.561 0.07 5.49 0 5.236 0 5.436 0.196 5.561 0.07"/><rect class="cls-39" x="4.567" y="0.262" width="0.178" height="0.418" transform="translate(1.055 3.46) rotate(-45.476)"/><rect class="cls-40" x="2.483" y="0.121" width="0.155" height="0.418" transform="translate(0.524 1.917) rotate(-45.284)"/><polygon class="cls-41" points="2.586 0.601 2.654 0.532 2.357 0.238 2.289 0.307 2.586 0.601"/><polygon class="cls-41" points="2.586 0.601 2.654 0.532 2.357 0.238 2.289 0.307 2.586 0.601"/><path class="cls-42" d="M3.045.374A.15.15,0,1,0,2.9.224.149.149,0,0,0,3.045.374Z"/><path class="cls-43" d="M2.24.07A.105.105,0,0,0,2.332,0H2.145A.1.1,0,0,0,2.24.07Z"/><path class="cls-44" d="M1.792,1.609a.18.18,0,0,1,0,.36.18.18,0,0,1,0-.36Zm3.359-.572A.293.293,0,1,1,4.86.744.292.292,0,0,1,5.151,1.037Zm.928,1.377-.77-.777.468-.467.773.777ZM2.767,2.408l-.228.225-.472-.477.227-.224L.938.564,1.267.242l1.9,1.916-.328.324Zm-1,6.735a.294.294,0,1,1-.294.295A.294.294,0,0,1,1.766,9.143ZM.665,7.924l.772.779L1.1,9.029.333,8.256ZM1.671,5.705,3.4,7.447,3.342,7.5l.691.7-.567.565L1.259,6.531l.44-.439-.205-.207ZM4.719,8.648l.77.778-.332.33L4.386,8.98ZM2.281,5.539l.2-.205.473.48-.2.2ZM.387,4.443l.294.3-.127.125-.292-.3ZM.617,3.5,2.343,5.24l-.182.18L.438,3.678ZM.224,2.9a.149.149,0,1,1-.149.149A.15.15,0,0,1,.224,2.9Zm.561-.007L2.51,4.629l-.181.178L.605,3.068Zm1.437-.043a.239.239,0,1,1-.239.238A.239.239,0,0,1,2.222,2.846Zm3.341.695a.391.391,0,1,1,0-.781.394.394,0,0,1,.391.392A.388.388,0,0,1,5.563,3.541Zm.173,2.42L2.924,3.125l.291-.293,2.817,2.84Zm.021.709-.294.293L2.65,4.121l.294-.291Zm.672,1.266-.771-.778.332-.332.772.779Zm.756,2.627L4.372,7.723l.292-.291,2.815,2.839Zm-3.191.314L1.184,8.035l.563-.564L4.563,10.31Z"/><polygon class="cls-45" points="2.355 1.871 2.294 1.932 0.938 0.564 1.267 0.242 3.168 2.158 2.84 2.482 2.767 2.408 2.828 2.348 2.355 1.871"/><polygon class="cls-46" points="3.677 0 4.315 0 3.99 0.316 3.677 0"/><polygon class="cls-47" points="1.839 0 2.493 0 2.162 0.326 1.839 0"/><polygon class="cls-48" points="3.215 2.832 6.032 5.672 5.736 5.961 2.924 3.125 3.215 2.832"/><rect class="cls-49" x="3.996" y="3.397" width="0.414" height="3.998" transform="translate(-2.58 4.519) rotate(-44.712)"/><polygon class="cls-50" points="4.664 7.432 7.479 10.271 7.185 10.563 4.372 7.723 4.664 7.432"/><polygon class="cls-51" points="1.747 7.471 4.563 10.31 3.994 10.877 1.184 8.035 1.747 7.471"/><path class="cls-52" d="M3.216,7.625,1.7,6.092l-.44.439L3.466,8.764,4.033,8.2l-.691-.7ZM1.975,7.131,1.5,6.656l.2-.2.471.475Z"/><polygon class="cls-53" points="0.828 10.172 0.496 10.5 0 9.999 0 9.45 0.058 9.393 0.828 10.172"/><polygon class="cls-54" points="1.104 9.029 0.333 8.256 0.665 7.924 1.437 8.703 1.104 9.029"/><rect class="cls-55" x="4.703" y="8.656" width="0.469" height="1.094" transform="translate(-5.053 6.162) rotate(-44.856)"/><rect class="cls-56" x="5.975" y="6.834" width="0.469" height="1.096" transform="translate(-3.396 6.504) rotate(-44.711)"/><rect class="cls-57" x="5.598" y="1.244" width="0.662" height="1.095" transform="translate(0.46 4.7) rotate(-44.819)"/><path class="cls-58" d="M5.172,3.152a.391.391,0,1,1,.781,0,.391.391,0,0,1-.781,0Z"/><path class="cls-59" d="M4.86,1.33a.293.293,0,1,1,.291-.293A.292.292,0,0,1,4.86,1.33Z"/><path class="cls-60" d="M2.059,9.438a.294.294,0,1,1-.293-.295A.293.293,0,0,1,2.059,9.438Z"/><polygon class="cls-61" points="0.554 2.676 0.532 2.654 0.601 2.586 0.307 2.289 0.238 2.357 0 2.116 0 1.715 0.756 2.475 0.554 2.676"/><polygon class="cls-62" points="1.261 1.348 0 0.076 0 0 0.373 0 1.487 1.125 1.261 1.348"/><polygon class="cls-63" points="0.14 1.354 0 1.213 0 0.443 0.525 0.973 0.14 1.354"/><polygon class="cls-64" points="2.329 4.807 0.605 3.068 0.785 2.889 2.51 4.629 2.329 4.807"/><rect class="cls-65" x="1.262" y="3.233" width="0.255" height="2.451" transform="translate(-2.734 2.267) rotate(-44.693)"/><polygon class="cls-66" points="3.342 7.502 1.822 5.969 1.699 6.092 1.494 5.885 1.671 5.705 3.398 7.447 3.342 7.502"/><polygon class="cls-67" points="3.342 7.502 3.216 7.625 1.699 6.092 1.822 5.969 3.342 7.502"/><polygon class="cls-67" points="3.342 7.502 3.216 7.625 1.699 6.092 1.822 5.969 3.342 7.502"/><polygon class="cls-68" points="1.261 7.818 0 6.542 0 5.846 1.61 7.473 1.261 7.818"/><polygon class="cls-69" points="0.912 5.801 1.285 6.178 0.938 6.523 0 5.574 0 5.49 0.07 5.561 0.196 5.436 0 5.236 0 5.016 0.843 5.867 0.912 5.801"/><polygon class="cls-70" points="1.706 6.453 2.177 6.928 1.975 7.131 1.503 6.656 1.706 6.453"/><polygon class="cls-70" points="1.706 6.453 2.177 6.928 1.975 7.131 1.503 6.656 1.706 6.453"/><polygon class="cls-71" points="2.957 5.814 2.753 6.018 2.281 5.539 2.484 5.334 2.957 5.814"/><rect class="cls-72" x="2.257" y="1.947" width="0.319" height="0.671" transform="translate(-0.906 2.363) rotate(-44.751)"/><polygon class="cls-73" points="2.355 1.871 2.828 2.348 2.767 2.408 2.294 1.932 2.355 1.871"/><polygon class="cls-73" points="2.355 1.871 2.828 2.348 2.767 2.408 2.294 1.932 2.355 1.871"/><path class="cls-74" d="M2.462,3.084a.24.24,0,1,1-.24-.238A.238.238,0,0,1,2.462,3.084Z"/><path class="cls-75" d="M1.972,1.789a.181.181,0,0,1-.18.18.18.18,0,0,1,0-.36A.182.182,0,0,1,1.972,1.789Z"/><path class="cls-76" d="M.077,6.936A.174.174,0,0,1,0,7.074V6.8A.168.168,0,0,1,.077,6.936Z"/><polygon class="cls-77" points="0.291 4.115 0 3.822 0 3.598 0.404 4.006 0.291 4.115"/><polygon class="cls-78" points="0.187 4.496 0 4.308 0 4.084 0.3 4.387 0.187 4.496"/><polygon class="cls-79" points="0.912 5.801 0 4.878 0 4.795 0.956 5.758 0.912 5.801"/><polygon class="cls-80" points="0.843 5.867 0 5.016 0 4.878 0.912 5.801 0.843 5.867"/><polygon class="cls-80" points="0.843 5.867 0 5.016 0 4.878 0.912 5.801 0.843 5.867"/><polygon class="cls-81" points="0.07 5.561 0 5.49 0 5.236 0.196 5.436 0.07 5.561"/><polygon class="cls-81" points="0.07 5.561 0 5.49 0 5.236 0.196 5.436 0.07 5.561"/><rect class="cls-82" x="0.382" y="4.447" width="0.178" height="0.418" transform="translate(-3.13 1.666) rotate(-44.524)"/><rect class="cls-83" x="0.252" y="2.352" width="0.155" height="0.418" transform="translate(-1.706 0.973) rotate(-44.716)"/><polygon class="cls-84" points="0.601 2.586 0.532 2.654 0.238 2.357 0.307 2.289 0.601 2.586"/><polygon class="cls-84" points="0.601 2.586 0.532 2.654 0.238 2.357 0.307 2.289 0.601 2.586"/><path class="cls-85" d="M.374,3.045A.15.15,0,1,1,.224,2.9.149.149,0,0,1,.374,3.045Z"/><path class="cls-86" d="M.07,2.24A.1.1,0,0,1,0,2.332V2.145A.106.106,0,0,1,.07,2.24Z"/></g></g></svg>