<?xml version="1.0" encoding="utf-8"?>
<!-- Generator: Adobe Illustrator 22.0.0, SVG Export Plug-In . SVG Version: 6.00 Build 0)  -->
<svg version="1.1" id="Layer_1" xmlns="http://www.w3.org/2000/svg" xmlns:xlink="http://www.w3.org/1999/xlink" x="0px" y="0px"
	 viewBox="0 0 360 144" enable-background="new 0 0 360 144" xml:space="preserve">
<g>
	<g>
		<path fill="#FFCA05" d="M71.6,71.1c-4.7,0-8.5,3.8-8.5,8.5s3.8,8.5,8.5,8.5c4.7,0,8.5-3.8,8.5-8.5S76.3,71.1,71.6,71.1z"/>
	</g>
	<g>
		<path fill="#4A4A4C" d="M100.8,54.5c7.6,0,10.1,5.2,10.1,5.2h0.1c0,0-0.1-1-0.1-2.2V42.3h6.3v45.8h-6V85c0-1.3,0.1-2.2,0.1-2.2
			h-0.1c0,0-2.7,6.1-10.8,6.1c-8.9,0-14.5-7-14.5-17.2C85.9,61.2,92.1,54.5,100.8,54.5z M101.6,83.4c4.9,0,9.5-3.4,9.5-11.8
			c0-5.8-3-11.7-9.3-11.7c-5.2,0-9.5,4.3-9.5,11.7C92.3,78.8,96.2,83.4,101.6,83.4z"/>
		<path fill="#4A4A4C" d="M141.8,54.5c9.3,0,14.2,6.9,14.2,15.4c0,0.8-0.2,2.7-0.2,2.7h-23.9c0.3,7.2,5.4,10.8,11.3,10.8
			c5.6,0,9.7-3.8,9.7-3.8l2.6,4.6c0,0-4.9,4.7-12.7,4.7c-10.3,0-17.4-7.5-17.4-17.2C125.4,61.2,132.4,54.5,141.8,54.5z M149.6,67.9
			c-0.2-5.6-3.7-8.4-7.9-8.4c-4.8,0-8.7,3-9.6,8.4H149.6z"/>
		<path fill="#4A4A4C" d="M166.1,79.6c0,0,3.7,3.8,9.4,3.8c2.7,0,5.4-1.4,5.4-4.1c0-6-16.9-4.8-16.9-15.5c0-6,5.3-9.3,11.9-9.3
			c7.2,0,10.6,3.6,10.6,3.6l-2.5,4.7c0,0-2.9-2.9-8.1-2.9c-2.7,0-5.4,1.2-5.4,4c0,5.9,16.9,4.6,16.9,15.4c0,5.4-4.7,9.5-11.9,9.5
			c-8,0-12.4-4.8-12.4-4.8L166.1,79.6z"/>
		<path fill="#4A4A4C" d="M194.5,42.3h6.4v6.4h-6.4V42.3z M194.6,55.3h6.3v32.8h-6.3V55.3z"/>
		<path fill="#4A4A4C" d="M223.1,96.2c5.7,0,10.4-2.5,10.4-9.2v-2.4c0-1,0.1-2.1,0.1-2.1h-0.1c-1.9,3.2-5,5.1-9.7,5.1
			c-9.1,0-14.6-7.3-14.6-16.8c0-9.4,5.3-16.4,14.3-16.4c7.9,0,10.3,4.9,10.3,4.9h0.1c0,0-0.1-0.5-0.1-1v-3h6v31.4
			c0,10.8-8.2,15-16.5,15c-4,0-8-1.1-11.2-2.7l2.1-4.9C214.1,94,218.2,96.2,223.1,96.2z M233.6,71c0-8.6-4.1-11-9.3-11
			c-5.7,0-8.9,4.1-8.9,10.8c0,6.8,3.6,11.5,9.5,11.5C229.5,82.2,233.6,79.5,233.6,71z"/>
		<path fill="#4A4A4C" d="M248,55.3h6.1v4.3c0,1.3-0.1,2.4-0.1,2.4h0.1c1.3-2.9,5.2-7.5,12.3-7.5c7.7,0,11.3,4.2,11.3,12.6v21h-6.3
			V68.5c0-4.6-1-8.2-6.2-8.2c-5,0-9,3.3-10.4,8c-0.4,1.3-0.5,2.8-0.5,4.4v15.4H248V55.3z"/>
	</g>
</g>
</svg>
