<svg xmlns="http://www.w3.org/2000/svg" viewBox="0 0 110.87 18.94"><defs><style>.cls-1{fill:#f0eec5;}.cls-2{fill:#179287;}</style></defs><g id="Nav_Footer" data-name="Nav/Footer"><path class="cls-1" d="M35,6.68A4.35,4.35,0,0,0,34,5.6a4,4,0,0,0-2.5-.86,4.22,4.22,0,0,0-4.22,4.42,4.23,4.23,0,0,0,4.22,4.48,4.33,4.33,0,0,0,2.59-.79,3.47,3.47,0,0,0,1.34-2H30.61V8.77h7.88A7.68,7.68,0,0,1,37.91,12a6.91,6.91,0,0,1-6.35,3.9A6.75,6.75,0,1,1,38,6.68Z"/><path class="cls-1" d="M40.37,2.68h2.31V4.74H40.37Zm0,3.36h2.31V15.7H40.37Z"/><path class="cls-1" d="M45.74,7.82h-1.6V6h1.6V2.68H48V6h1.65V7.82H48V15.7h-2.3Z"/><path class="cls-1" d="M51.59,2.68h2.62v6l4.31-6h2.76L56.57,9.17l5.18,6.53h-3.2L54.21,9.86V15.7H51.59Z"/><path class="cls-1" d="M63,6h2.18V7.31a2.79,2.79,0,0,1,2.68-1.57V8.07h-.11a2.13,2.13,0,0,0-2.44,2.42V15.7H63Z"/><path class="cls-1" d="M78.81,15.7h-2.3V14.31A3.61,3.61,0,0,1,73.25,16a4.85,4.85,0,0,1-4.9-5.14,4.89,4.89,0,0,1,4.9-5.12,3.64,3.64,0,0,1,3.26,1.71V6h2.3Zm-8.16-4.79a2.9,2.9,0,0,0,2.94,2.94,2.74,2.74,0,0,0,2.57-1.55A3.35,3.35,0,0,0,76.52,11a3.06,3.06,0,0,0-.26-1.36,2.83,2.83,0,0,0-2.69-1.7,2.91,2.91,0,0,0-2.92,3Z"/><path class="cls-1" d="M81.33,2.68h2.3v7L87,6h2.76l-4,4.26,4,5.4H87.09l-3.46-4.82V15.7h-2.3Z"/><path class="cls-1" d="M93.7,13.39A2.65,2.65,0,0,0,97.36,13,2.48,2.48,0,0,0,98,10.42L99.63,8.7a5.4,5.4,0,0,1,.43,3.08,4.8,4.8,0,0,1-1.29,2.59,5.13,5.13,0,0,1-7.47-7,4.91,4.91,0,0,1,3.55-1.6,5.17,5.17,0,0,1,4.18,2Zm2.5-5.21a2.67,2.67,0,0,0-3.47.5,2.61,2.61,0,0,0-.29,3.48Z"/><path class="cls-1" d="M102,6h2.16c0,.43,0,.83,0,1.29a3.17,3.17,0,0,1,3-1.59c3.15,0,3.75,2.43,3.75,4.14V15.7h-2.31V10.46c0-1.45-.47-2.55-2.09-2.55s-2.2,1.1-2.2,2.46V15.7H102Z"/><path class="cls-2" d="M21,4.27a.43.43,0,0,0-.84.16.4.4,0,0,0,0,.15,10,10,0,0,1-8,13.42V13.33A6.17,6.17,0,0,0,13,13.1V17A9.19,9.19,0,0,0,15.3.05a.44.44,0,0,0-.6.19.49.49,0,0,0,0,.2.42.42,0,0,0,.23.37,8.33,8.33,0,0,1-1,15V12.36A1.33,1.33,0,0,0,14.19,10c.31-3,1.67-2.21,1.67-3.16V6.23C15.86,4.79,12.55.13,11,0h-.29C9.16.13,5.85,4.79,5.85,6.23v.56c0,1,1.36.16,1.68,3.16a1.31,1.31,0,0,0-.66,1.15,1.33,1.33,0,0,0,.94,1.26v3.48a8.33,8.33,0,0,1-1-15A.43.43,0,0,0,7,.24.43.43,0,0,0,6.62,0a.54.54,0,0,0-.21.05A9.19,9.19,0,0,0,8.68,17V13.1a6.17,6.17,0,0,0,.87.23V18A10,10,0,0,1,.87,8.09a9.76,9.76,0,0,1,.64-3.51A.44.44,0,0,0,1.27,4,.35.35,0,0,0,1.1,4a.44.44,0,0,0-.41.28,10.87,10.87,0,0,0,9.73,14.67V13.45h.88v5.49A10.87,10.87,0,0,0,21,4.27Zm-8.16,6.2a.87.87,0,0,1,1.26,0,.88.88,0,0,1,.26.63.9.9,0,0,1-.26.63.89.89,0,0,1-1.26,0,.9.9,0,0,1-.26-.63A.88.88,0,0,1,12.86,10.47Zm-4,1.26a.88.88,0,0,1-.63.26.89.89,0,0,1-.89-.89.88.88,0,0,1,.26-.63.87.87,0,0,1,.63-.27.85.85,0,0,1,.63.27.88.88,0,0,1,.26.63A.9.9,0,0,1,8.85,11.73Z"/></g></svg>