<svg xmlns="http://www.w3.org/2000/svg" viewBox="0 0 1657.29 210.09"><defs><style>.cls-1{fill:#ffffff;}</style></defs><g id="Layer_2" data-name="Layer 2"><g id="GD_REGISTRY_RGB_BLACK"><path class="cls-1" d="M203.52,9.61C179-5.72,146.72-2.08,118,16,89.23-2.07,57-5.71,32.44,9.61-6.3,33.81-11,96.17,21.93,148.88c24.28,38.86,62.25,61.63,96.05,61.2,33.8.43,71.77-22.34,96.05-61.2C247,96.17,242.26,33.81,203.52,9.61ZM39.73,137.75a126.49,126.49,0,0,1-15.2-34.81,99.73,99.73,0,0,1-3.29-32.81c1.47-19.47,9.4-34.64,22.32-42.72s30-8.55,48.18-1.33a86.92,86.92,0,0,1,8.12,3.74A148.74,148.74,0,0,0,73.74,61.21c-20,32-26.11,67.62-19.13,96A130.38,130.38,0,0,1,39.73,137.75Zm171.69-34.81a126.19,126.19,0,0,1-15.2,34.81,130.16,130.16,0,0,1-14.87,19.51c6.24-25.45,2-56.63-13.3-85.87a3.87,3.87,0,0,0-5.54-1.51l-47.7,29.81a3.9,3.9,0,0,0-1.24,5.37l7,11.2a3.9,3.9,0,0,0,5.37,1.24l30.92-19.32c1,3,2,6,2.75,9A99.47,99.47,0,0,1,162.9,140c-1.46,19.47-9.39,34.64-22.32,42.72a43.56,43.56,0,0,1-22.1,6.4h-1a43.62,43.62,0,0,1-22.11-6.4C82.45,174.6,74.52,159.43,73.05,140a99.48,99.48,0,0,1,3.3-32.81,129.85,129.85,0,0,1,39.82-63.73,99.58,99.58,0,0,1,28-17.34c18.15-7.22,35.26-6.74,48.18,1.33s20.86,23.25,22.33,42.72A99.48,99.48,0,0,1,211.42,102.94Z"/><path class="cls-1" d="M457.48,79.74c25.25,0,45.52,19.58,45.52,44.49,0,24.73-20.27,44-45.52,44-25.08,0-45.34-19.24-45.34-44,0-24.91,20.26-44.49,45.34-44.49m0,65.23c11.74,0,20.53-9.35,20.53-20.91S469.22,103,457.48,103c-11.56,0-20.35,9.52-20.35,21.08S445.92,145,457.48,145m164.66-39.46c0,35.72-25.66,60.29-62.59,60.29H513.41a3.75,3.75,0,0,1-3.78-4V49.34a3.7,3.7,0,0,1,3.78-3.78h46.14c36.93,0,62.59,24,62.59,60m-27,0c0-21-14.08-36.25-34.52-36.25H535.4v72.83h25.25c20.44,0,34.52-16,34.52-36.58M669,79.74c11.17,0,20.1,4.81,24,11.34V85.92a3.91,3.91,0,0,1,3.61-3.78H714a3.67,3.67,0,0,1,3.61,3.78v76.27A3.53,3.53,0,0,1,714,165.8H696.66a3.63,3.63,0,0,1-3.61-3.61v-5.32c-3.95,6.52-13,11.33-24.22,11.33-21.64,0-41.74-17.35-41.74-44.31,0-27.14,20.27-44.15,41.91-44.15m4.65,65.4c11.5,0,20.12-8.83,20.12-21.08S685.15,103,673.65,103s-20.12,8.82-20.12,21.08,8.62,21.08,20.12,21.08m92.23-65.4c11.34,0,20.44,4.81,24.39,11V49.17a3.67,3.67,0,0,1,3.78-3.61H811.4A3.52,3.52,0,0,1,815,49.17v113a3.53,3.53,0,0,1-3.61,3.61H794.05a3.63,3.63,0,0,1-3.61-3.61v-5.32c-4.64,6.52-13.05,11.33-24.22,11.33-21.64,0-41.74-17.35-41.74-44.31,0-27.14,19.93-44.15,41.4-44.15M771,145.36c11.44,0,20-8.92,20-21.3s-8.59-21.3-20-21.3-20,8.92-20,21.3,8.58,21.3,20,21.3m92.23-65.62c11.34,0,20.44,4.81,24.39,11V49.17a3.67,3.67,0,0,1,3.78-3.61h17.35a3.52,3.52,0,0,1,3.61,3.61v113a3.53,3.53,0,0,1-3.61,3.61H891.44a3.63,3.63,0,0,1-3.61-3.61v-5.32c-4.63,6.52-13.05,11.33-24.22,11.33-21.64,0-41.74-17.35-41.74-44.31,0-27.14,19.93-44.15,41.4-44.15m5.16,65.62c11.45,0,20-8.92,20-21.3s-8.58-21.3-20-21.3-20,8.92-20,21.3,8.58,21.3,20,21.3m132.06-63.21H983.18c-2.75,0-4.12,1.89-4.64,3.95l-16,59.74L945.46,86.1c-1-3.19-2.55-3.95-4.78-3.95H922.43c-4.29,0-5.08,2.92-4.22,5.84l23.15,74.2c.69,2.06,2.06,3.61,4.64,3.61h10.49l-2.23,7.36c-2.19,6.37-6.28,8.08-11.61,8.08-4.57,0-7.57-1.8-10.81-3.89a5.91,5.91,0,0,0-3.42-1.19c-1.55,0-2.63.7-4.08,2.84l-5.14,7.7c-1,1.6-1.54,2.48-1.54,4.18,0,2.73,2.73,4.45,6,6.32,5.63,3.22,12.82,4.82,20.7,4.82,17.35,0,28.52-9.44,33.5-25.24L1003.75,88C1005,84.55,1003.93,82.15,1000.49,82.15Zm-617,67.24c-9.1,11.48-24.9,18.71-42.78,18.71-33.58,0-59.83-25.26-59.83-61.22,0-37.37,28.33-63.13,64.13-63.13,26.41,0,47.54,11.36,56.91,34.21a5,5,0,0,1,.44,1.9c0,1.09-.71,1.91-3,2.7L382.59,89a4.32,4.32,0,0,1-3.17,0,4.82,4.82,0,0,1-2-2.29c-6-11.41-16.68-19.17-33.12-19.17-21.33,0-36.59,16.66-36.59,38.25,0,20.93,13,38.13,37.2,38.13,12.73,0,22.88-6,27.61-12.58h-15.1a3.86,3.86,0,0,1-3.92-3.92V114.58a3.85,3.85,0,0,1,3.92-3.92h44.24a3.71,3.71,0,0,1,3.92,3.75v47.43a3.85,3.85,0,0,1-3.92,3.92H387.36a3.85,3.85,0,0,1-3.92-3.92ZM1014.8,66.14a1.15,1.15,0,0,0-.37-.89,1.47,1.47,0,0,0-1-.33h-1.49v2.46h1.49a1.5,1.5,0,0,0,1-.35,1.15,1.15,0,0,0,.38-.89m-3.16,6.17h-1.53a.33.33,0,0,1-.22-.09.29.29,0,0,1-.09-.21V63.4a.26.26,0,0,1,.1-.2.26.26,0,0,1,.21-.1h3.39a3.74,3.74,0,0,1,2.56.86,2.82,2.82,0,0,1,1,2.2,2.72,2.72,0,0,1-.46,1.53,3.07,3.07,0,0,1-1.26,1.1l2,3a.28.28,0,0,1,0,.32.28.28,0,0,1-.28.14h-1.53a.63.63,0,0,1-.32-.07,1,1,0,0,1-.27-.27l-1.73-2.75h-1.22V72a.31.31,0,0,1-.3.3m1.64,1.76a6,6,0,0,0,4.46-1.84,6.6,6.6,0,0,0,0-9.08,6,6,0,0,0-4.46-1.85,6,6,0,0,0-4.49,1.85,6.57,6.57,0,0,0,0,9.08,6,6,0,0,0,4.49,1.84m-5.55-.86a7.39,7.39,0,0,1-1.7-2.51,8,8,0,0,1,0-6,7.45,7.45,0,0,1,1.7-2.5,7.62,7.62,0,0,1,2.52-1.66,8.16,8.16,0,0,1,3-.57,7.87,7.87,0,0,1,3,.58,7.69,7.69,0,0,1,4.22,4.16,7.82,7.82,0,0,1,.58,3,7.91,7.91,0,0,1-.58,3,7.64,7.64,0,0,1-1.7,2.51,7.76,7.76,0,0,1-2.52,1.65,8.05,8.05,0,0,1-3,.57,8.16,8.16,0,0,1-3-.57,7.6,7.6,0,0,1-2.52-1.65"/><path class="cls-1" d="M1141.16,164.48h-7.82q-2.37,0-4.07-2.72l-27.86-47.9H1061.5v47.73a2.78,2.78,0,0,1-.85,2,2.82,2.82,0,0,1-2,.85h-6.45a2.82,2.82,0,0,1-2-.85,2.78,2.78,0,0,1-.85-2V48.47a2.78,2.78,0,0,1,.85-2,2.81,2.81,0,0,1,2-.84h48.23q18.51,0,29.3,9.25t10.79,24.37a34.34,34.34,0,0,1-6.29,19.62q-6.29,9.26-20.55,12.82L1143,161.59a1.46,1.46,0,0,1,0,1.87A2.14,2.14,0,0,1,1141.16,164.48Zm-40.43-61q12.57,0,19.88-6.54t7.3-17.24q0-10.53-7.3-16.9t-19.88-6.36H1061.5v47Z"/><path class="cls-1" d="M1195.94,79.94q17.71,0,29.51,11.61t11.78,29.87v2.3c0,2-.94,3-2.83,3h-68.06a31.3,31.3,0,0,0,9.4,20.92,29,29,0,0,0,21.09,8.33q14.36,0,25-12.06,1.95-2.29,4.26-.71l5.14,3.2c1.42.94,1.65,2.18.71,3.72a36.14,36.14,0,0,1-14.54,12.23,47.69,47.69,0,0,1-20.91,4.43q-18.6,0-30.66-12.32t-12-30.93q0-18.42,12-31T1195.94,79.94Zm29.24,37.75q-1.25-12.57-9.3-19.93t-19.94-7.36a27.5,27.5,0,0,0-19.76,7.71,31.28,31.28,0,0,0-9.48,19.58Z"/><path class="cls-1" d="M1291.09,193q14.52,0,22.15-7.62t7.62-20.39v-16.3a30.36,30.36,0,0,1-12.23,12.67,36.16,36.16,0,0,1-18.61,4.88q-17.54,0-29.51-12.15t-12-30.92q0-18.78,12-30.93a39.61,39.61,0,0,1,29.34-12.14,36,36,0,0,1,18.78,5A30.68,30.68,0,0,1,1320.86,98V85.26a2.86,2.86,0,0,1,.89-2.12,2.9,2.9,0,0,1,2.12-.89h6.38a2.62,2.62,0,0,1,2,.89,3.07,3.07,0,0,1,.8,2.12v79.93q0,17-11.17,27.65t-31.19,10.63q-16.12,0-26.49-7.26a31.72,31.72,0,0,1-13.21-19q-.71-2.66,2-3l6.38-1.77q3-.54,3.55,1.95A23.09,23.09,0,0,0,1272,187.7Q1279.21,193,1291.09,193ZM1261,123.19q0,13.65,8.5,22.86a27.94,27.94,0,0,0,21.45,9.22q13.11,0,21.53-9.22t8.42-22.86q0-13.65-8.42-22.78t-21.53-9.12a28,28,0,0,0-21.45,9.21Q1261,109.73,1261,123.19Z"/><path class="cls-1" d="M1368.05,65.76a9.64,9.64,0,0,1-14,0,10,10,0,0,1,0-14.18,9.64,9.64,0,0,1,14,0,10.07,10.07,0,0,1,0,14.18Zm-3.81,98.72h-6.38a3,3,0,0,1-3-3V85.26a3,3,0,0,1,3-3h6.38a2.62,2.62,0,0,1,2,.89,3,3,0,0,1,.8,2.12v76.21a3,3,0,0,1-.8,2.13A2.61,2.61,0,0,1,1364.24,164.48Z"/><path class="cls-1" d="M1418.72,79.94q19,0,30,10.28,2.65,2.31.17,4.61l-3,3a3.63,3.63,0,0,1-5.14,0,37,37,0,0,0-22.86-7.79q-8.68,0-13.74,3.81t-5,9.48q0,9,13.83,11.87l15.42,3q12.57,2.47,18.61,8.06t6,15.33q0,9.93-8.77,17.55t-24.9,7.62q-20,0-32.44-11.7-3.88-3.72-.7-6.56l3-2.66c1.42-1.29,3.07-1.12,5,.54a36.84,36.84,0,0,0,25.7,10.28q9.57,0,15.06-4.26t5.5-9.92q0-10.81-16.84-14l-14.35-2.66q-22.7-4.08-22.69-22,0-10.64,9.22-17.28T1418.72,79.94Z"/><path class="cls-1" d="M1475.92,141.86V92.93h-12.77a2.62,2.62,0,0,1-2-.89,3.08,3.08,0,0,1-.8-2.13V85.48a3.08,3.08,0,0,1,.8-2.13,2.61,2.61,0,0,1,2-.88h12.77V55.69a3,3,0,0,1,3-3h6.38a2.62,2.62,0,0,1,2,.89,3.07,3.07,0,0,1,.8,2.12V82.47h26.42a2.63,2.63,0,0,1,2,.88,3.07,3.07,0,0,1,.79,2.13v4.43a3.07,3.07,0,0,1-.79,2.13,2.64,2.64,0,0,1-2,.89h-26.42v47q0,7.09,3.81,11a12.9,12.9,0,0,0,9.66,3.91,20.11,20.11,0,0,0,9.93-2.67c2.25-1.53,4-1.41,5.15.36l2.3,3.55q1.77,2.47-.53,4.07-7.28,5.85-18.62,5.86a24.84,24.84,0,0,1-16.93-6.12Q1475.92,153.74,1475.92,141.86Z"/><path class="cls-1" d="M1595.9,203.56q-12.4,0-19.49-7.62-2-2,.18-4.43l2.83-3.19q1.95-2.31,5,0,5.5,4.6,11.52,4.61,9.4,0,14-12.23l6-16.13h-3.37a3.14,3.14,0,0,1-3.36-2.3l-28-76.57a2.88,2.88,0,0,1,.27-2.3,2.16,2.16,0,0,1,2-1.06h8.15c1.53,0,2.66.94,3.37,2.83l24.63,69.3,23.93-69.3q1.07-2.83,3.54-2.83h7.8a2.18,2.18,0,0,1,2,1.06,2.45,2.45,0,0,1,.09,2.3l-35.8,98.72Q1614.52,203.56,1595.9,203.56Z"/><path class="cls-1" d="M1567.43,82.16h2.83c1.89,0,2.84,1,2.84,3v6.38c0,1.89-.89,2.84-2.66,2.84h-3q-10.29,0-16.4,6.73t-6.11,21.45v39.17a2.62,2.62,0,0,1-.89,2,2.82,2.82,0,0,1-2,.8h-6.38a3,3,0,0,1-3-3V85.35a3,3,0,0,1,3-3h5.85a2.7,2.7,0,0,1,2,.88,2.92,2.92,0,0,1,.89,2.13V97.58a24.47,24.47,0,0,1,8.59-10.9A23.66,23.66,0,0,1,1567.43,82.16Z"/></g></g></svg>