<svg width="1000" height="894.9999999999999" xmlns="http://www.w3.org/2000/svg">
 <!-- Generator: Sketch 47.1 (45422) - http://www.bohemiancoding.com/sketch -->
 <title>Artboard 2 Copy 4</title>
 <desc>Created with Sketch.</desc>

 <g>
  <title>background</title>
  <rect fill="none" id="canvas_background" height="402" width="582" y="-1" x="-1"/>
 </g>
 <g>
  <title>Layer 1</title>
  <path fill="#ffffff" id="Combined-Shape" d="m803.76417,566.15803l0.43605,-0.00177l194.96211,328.75023l-199.90244,0c-73.38293,0 -140.77372,-40.5032 -175.20978,-105.30452l-117.74794,-221.57656c-88.29044,-0.06893 -196.15071,-0.19704 -323.58081,-0.38432c79.08176,-104.26917 152.96104,-153.66117 221.63782,-148.17603c41.55385,3.36316 83.52744,5.70536 125.50102,5.70536c37.05668,-0.12011 66.61808,-21.86052 76.21204,-52.78955c10.43343,-33.75169 1.91879,-62.21841 -24.70445,-86.6013c-47.96982,-44.02132 -136.77393,-50.62752 -198.59502,-10.69003c-25.96367,16.81578 -48.74933,38.55619 -79.39004,63.29942l195.77679,-337.39672l304.60465,565.16579z"/>
  <path fill="#ffffff" id="Path-4-Copy" d="m1.30261,894.90649l210.21995,0l0,0c67.53544,0 130.07187,-35.59262 164.55896,-93.65875l103.76588,-174.71129l-318.59952,0l-159.94527,268.37004z"/>
 </g>
</svg>