<svg xmlns="http://www.w3.org/2000/svg" viewBox="0 0 402.35 125.53"><title>nrwl-logo-white</title><g id="Layer_2" data-name="Layer 2"><g id="Layer_1-2" data-name="Layer 1"><g id="Color_on_white_horizontal" data-name="Color on white horizontal"><g id="LOGO"><polygon points="123.6 110.85 123.6 125.53 146.69 125.53 146.69 113.02 123.6 110.85" fill="#fff"/><g id="whale"><g id="bdy"><path id="tusk" d="M91.09,105.22a3,3,0,0,1,3-3h.27a1.86,1.86,0,0,1,.63.12L165.45,115l-71.81-6.75h0A3,3,0,0,1,91.09,105.22Z" fill="#48c4e5"/><path d="M124,50.79h-.19C119,50,114.3,46.49,112.7,42h0a57.4,57.4,0,1,0-72.37,70.24A74.28,74.28,0,0,0,90.41,109c3.78-1.79,4.45-4.63,4.45-6.48s-1.64-3.07-2.24-3.89a2.25,2.25,0,0,1-.54-1.18h0a27.51,27.51,0,0,0-27.44-25.6H62.87a23.35,23.35,0,0,1-16.68-39.7,30.15,30.15,0,0,1,22-9.42A30.57,30.57,0,0,1,97.76,45.39a15.33,15.33,0,0,1-9.11,5.36A15.15,15.15,0,0,0,76.31,63.29c5.88,0,9.79,8,20.71,8a9.9,9.9,0,0,0,9.18-6.16,9.93,9.93,0,0,0,9.19,6.16,19.63,19.63,0,0,0,8.56-1.9Zm-64.79,48c.35-1.46,1.52-.84,3.06-.46s2.86.36,2.51,1.81a2.87,2.87,0,0,1-5.57-1.35Z" fill="#48c4e5"/><g id="right_fin" data-name="right fin"><path d="M52.51,69.4A9.4,9.4,0,0,1,60.85,62h0A8.43,8.43,0,0,0,64,68.72,8.45,8.45,0,0,1,67,72v3H52.51Z" fill="#48c4e5"/></g></g><g id="highlights"><path d="M12.9,93.81A57.61,57.61,0,0,1,43.37,1.7C24.74,7,3.9,24,3.9,53.7c0,37.66,31.34,45,45.91,51.72,8.85,4.11,12,7.56,13.19,9.64H60.84a73.74,73.74,0,0,1-20.51-2.88c-6.84-2.07-14.65-6.64-20.1-10.93.77.11-3.85-2.6-8.39-8.82" fill="#96d8e9"/><ellipse cx="24.58" cy="61.18" rx="1.95" ry="2.79" transform="translate(-13.17 7.12) rotate(-13.04)" fill="#96d8e9"/><ellipse cx="32.38" cy="72.47" rx="2.56" ry="3.66" transform="translate(-38.68 37.09) rotate(-39.46)" fill="#96d8e9"/><ellipse cx="31.51" cy="47.37" rx="2.79" ry="1.95" transform="translate(-17.99 75.41) rotate(-85.89)" fill="#96d8e9"/><ellipse cx="24.79" cy="51" rx="0.98" ry="1.4" transform="translate(-2.13 1.09) rotate(-2.42)" fill="#96d8e9"/><path id="left_fin" data-name="left fin" d="M38.21,105.63a28.73,28.73,0,0,1-15,7.18q-1.22.18-2.46.27A28.61,28.61,0,0,1,16,113h0a35,35,0,0,0-5.7-.1,33.41,33.41,0,0,0-9.48,2h0A11.66,11.66,0,0,1,11,99a11.45,11.45,0,0,1,6.55,1.5h0A11.92,11.92,0,0,0,24,102.06a11.51,11.51,0,0,0,5.8-2s1.34-1.17,4.5.87C38.92,103.91,38.21,105.63,38.21,105.63Z" fill="#96d8e9"/></g></g><polygon points="179.78 43.53 179.78 87.23 143 43.53 123.6 43.53 123.6 103.07 146.69 108.53 146.69 81.84 183.47 125.53 202.87 125.53 202.87 43.53 179.78 43.53" fill="#fff"/><path d="M244.5,63.16A34.49,34.49,0,0,1,257.18,61V81a49.24,49.24,0,0,0-5.15-.3q-7.26,0-11.37,3.86t-4.08,11.84v29.16H214V62h21.54v7.62A21,21,0,0,1,244.5,63.16Z" fill="#fff"/><path d="M362.19,62l-18.35,63.49h-21.9l-7.53-29.1-8,29.1h-21.9L266.16,62h21.43l8.59,32.06L305.25,62h19.28l8.71,32.41L342.31,62Z" fill="#fff"/><path d="M393.31,28.61H370.64v74c0,19.88,12.84,22.41,24.89,22.41,3.67,0,6.82-.35,6.82-.35V107.41s-1.31.12-2.75.12c-5.11,0-6.29-2-6.29-7.59Z" fill="#fff"/></g></g></g></g></svg>