<?xml version="1.0" encoding="iso-8859-1"?>
<!-- Generator: Adobe Illustrator 16.0.0, SVG Export Plug-In . SVG Version: 6.00 Build 0)  -->
<!DOCTYPE svg PUBLIC "-//W3C//DTD SVG 1.1//EN" "http://www.w3.org/Graphics/SVG/1.1/DTD/svg11.dtd">
<svg xmlns="http://www.w3.org/2000/svg" xmlns:xlink="http://www.w3.org/1999/xlink" version="1.1" id="Capa_1" x="0px" y="0px" width="512px" height="512px" viewBox="0 0 50 50" style="enable-background:new 0 0 50 50;" xml:space="preserve">
<g>
	<g>
		<path d="M16.272,24.635c0.241-0.07,0.506-0.146,0.788-0.229v6.518c1.748-0.134,3.767-0.221,6.066-0.247l1.514-11.809h-0.018    l-0.726-1.444c-5.238,0.275-10.946,2.326-11.203,2.418c-0.157,0.055-0.279,0.166-0.423,0.245c-0.146,0.09-0.299,0.162-0.435,0.263    c-0.159,0.144-0.273,0.308-0.397,0.474c-0.095,0.128-0.208,0.242-0.279,0.39c-0.101,0.184-0.147,0.394-0.199,0.597    c-0.033,0.134-0.107,0.237-0.121,0.382L9.762,31.91c1.423-0.321,3.312-0.639,5.8-0.868L16.272,24.635z" fill="#006DF0"/>
		<path d="M24.999,16.823c3.957,0,7.169-4.597,7.169-8.559c0-3.956-3.212-7.17-7.169-7.17c-3.964,0-7.171,3.214-7.171,7.17    C17.828,12.227,21.035,16.823,24.999,16.823z" fill="#006DF0"/>
		<path d="M36.295,30.557l-2.09-1.646l0.236,2.135c0.709,0.065,1.412,0.134,2.067,0.215L36.295,30.557z" fill="#006DF0"/>
		<path d="M32.943,27.925l-4.119-3.223c-0.295,0.112-0.612,0.167-0.938,0.167c-0.721,0-1.369-0.297-1.854-0.764l0.841,6.572    c2.189,0.027,4.213,0.108,6.07,0.25V27.925L32.943,27.925z" fill="#006DF0"/>
		<path d="M25.375,18.868h-0.016l0.25,1.952c0.474-0.791,1.298-1.346,2.279-1.346c1.485,0,2.69,1.202,2.696,2.686l8.312,6.507    l0.215,0.533l0.787,2.628c0.125,0.021,0.224,0.05,0.342,0.08l-1.081-9.717c-0.013-0.145-0.089-0.254-0.126-0.393    c-0.049-0.195-0.092-0.402-0.186-0.582c-0.08-0.151-0.193-0.277-0.296-0.404c-0.12-0.158-0.229-0.319-0.381-0.454    c-0.142-0.114-0.302-0.191-0.456-0.271c-0.145-0.083-0.248-0.193-0.404-0.245c-0.259-0.092-5.968-2.143-11.209-2.418    L25.375,18.868z" fill="#006DF0"/>
		<path d="M43.51,34.359c0,0-0.957-0.789-4.582-1.469l-1-3.341c-0.016-0.061-0.051-0.108-0.103-0.155l-8.577-6.712    c0.062-0.16,0.105-0.329,0.105-0.512c0-0.805-0.654-1.459-1.467-1.459c-0.806,0-1.461,0.654-1.461,1.459    c0,0.805,0.656,1.463,1.461,1.463c0.405,0,0.768-0.166,1.031-0.429l8.449,6.619l0.88,2.946c-2.81-0.478-7.002-0.879-13.249-0.879    c-15.509,0-18.513,2.467-18.513,2.467v5.033H43.51V34.359z" fill="#006DF0"/>
		<polygon points="0,42.631 3.702,48.906 46.294,48.906 50,42.631 50,40.521 0,40.521   " fill="#006DF0"/>
	</g>
</g>
<g>
</g>
<g>
</g>
<g>
</g>
<g>
</g>
<g>
</g>
<g>
</g>
<g>
</g>
<g>
</g>
<g>
</g>
<g>
</g>
<g>
</g>
<g>
</g>
<g>
</g>
<g>
</g>
<g>
</g>
</svg>
