<svg xmlns="http://www.w3.org/2000/svg" xmlns:xlink="http://www.w3.org/1999/xlink" viewBox="0 0 84 84"><defs><style>.cls-1{fill:url(#linear-gradient);}</style><linearGradient id="linear-gradient" y1="42" x2="84" y2="42" gradientUnits="userSpaceOnUse"><stop offset="0" stop-color="#ff5858"/><stop offset="0.183" stop-color="#f16a4e"/><stop offset="0.444" stop-color="#e37d43"/><stop offset="0.713" stop-color="#da883d"/><stop offset="1" stop-color="#d78c3b"/></linearGradient></defs><title>Asset 2</title><g id="Layer_2" data-name="Layer 2"><g id="BACKGROUND_1" data-name="BACKGROUND 1"><path class="cls-1" d="M5.6,81.2a2.8,2.8,0,1,1-2.8-2.8A2.8,2.8,0,0,1,5.6,81.2ZM2.8,68.6a2.8,2.8,0,1,0,2.8,2.8A2.8,2.8,0,0,0,2.8,68.6Zm9.8,0a2.8,2.8,0,1,0,2.8,2.8A2.8,2.8,0,0,0,12.6,68.6ZM22.4,49a2.8,2.8,0,1,0,2.8,2.8A2.8,2.8,0,0,0,22.4,49Zm9.8,0A2.8,2.8,0,1,0,35,51.8,2.8,2.8,0,0,0,32.2,49Zm0-9.8A2.8,2.8,0,1,0,35,42,2.8,2.8,0,0,0,32.2,39.2Zm9.8,0A2.8,2.8,0,1,0,44.8,42,2.8,2.8,0,0,0,42,39.2ZM2.8,58.8a2.8,2.8,0,1,0,2.8,2.8A2.8,2.8,0,0,0,2.8,58.8Zm9.8,0a2.8,2.8,0,1,0,2.8,2.8A2.8,2.8,0,0,0,12.6,58.8Zm9.8,0a2.8,2.8,0,1,0,2.8,2.8A2.8,2.8,0,0,0,22.4,58.8ZM2.8,49a2.8,2.8,0,1,0,2.8,2.8A2.8,2.8,0,0,0,2.8,49Zm9.8,0a2.8,2.8,0,1,0,2.8,2.8A2.8,2.8,0,0,0,12.6,49ZM51.8,29.4a2.8,2.8,0,1,0,2.8,2.8A2.8,2.8,0,0,0,51.8,29.4Zm0-9.8a2.8,2.8,0,1,0,2.8,2.8A2.8,2.8,0,0,0,51.8,19.6Zm9.8,0a2.8,2.8,0,1,0,2.8,2.8A2.8,2.8,0,0,0,61.6,19.6ZM71.4,0a2.8,2.8,0,1,0,2.8,2.8A2.8,2.8,0,0,0,71.4,0Zm9.8,0A2.8,2.8,0,1,0,84,2.8,2.8,2.8,0,0,0,81.2,0ZM51.8,9.8a2.8,2.8,0,1,0,2.8,2.8A2.8,2.8,0,0,0,51.8,9.8Zm9.8,0a2.8,2.8,0,1,0,2.8,2.8A2.8,2.8,0,0,0,61.6,9.8Zm9.8,0a2.8,2.8,0,1,0,2.8,2.8A2.8,2.8,0,0,0,71.4,9.8ZM51.8,0a2.8,2.8,0,1,0,2.8,2.8A2.8,2.8,0,0,0,51.8,0Zm9.8,0a2.8,2.8,0,1,0,2.8,2.8A2.8,2.8,0,0,0,61.6,0ZM2.8,39.2A2.8,2.8,0,1,0,5.6,42,2.8,2.8,0,0,0,2.8,39.2Zm9.8,0A2.8,2.8,0,1,0,15.4,42,2.8,2.8,0,0,0,12.6,39.2Zm9.8,0A2.8,2.8,0,1,0,25.2,42,2.8,2.8,0,0,0,22.4,39.2Zm9.8-9.8A2.8,2.8,0,1,0,35,32.2,2.8,2.8,0,0,0,32.2,29.4Zm9.8,0a2.8,2.8,0,1,0,2.8,2.8A2.8,2.8,0,0,0,42,29.4Zm-39.2,0a2.8,2.8,0,1,0,2.8,2.8A2.8,2.8,0,0,0,2.8,29.4Zm9.8,0a2.8,2.8,0,1,0,2.8,2.8A2.8,2.8,0,0,0,12.6,29.4Zm9.8,0a2.8,2.8,0,1,0,2.8,2.8A2.8,2.8,0,0,0,22.4,29.4Zm9.8-9.8A2.8,2.8,0,1,0,35,22.4,2.8,2.8,0,0,0,32.2,19.6Zm9.8,0a2.8,2.8,0,1,0,2.8,2.8A2.8,2.8,0,0,0,42,19.6Zm-39.2,0a2.8,2.8,0,1,0,2.8,2.8A2.8,2.8,0,0,0,2.8,19.6Zm9.8,0a2.8,2.8,0,1,0,2.8,2.8A2.8,2.8,0,0,0,12.6,19.6Zm9.8,0a2.8,2.8,0,1,0,2.8,2.8A2.8,2.8,0,0,0,22.4,19.6Zm9.8-9.8A2.8,2.8,0,1,0,35,12.6,2.8,2.8,0,0,0,32.2,9.8Zm9.8,0a2.8,2.8,0,1,0,2.8,2.8A2.8,2.8,0,0,0,42,9.8ZM2.8,9.8a2.8,2.8,0,1,0,2.8,2.8A2.8,2.8,0,0,0,2.8,9.8Zm9.8,0a2.8,2.8,0,1,0,2.8,2.8A2.8,2.8,0,0,0,12.6,9.8Zm9.8,0a2.8,2.8,0,1,0,2.8,2.8A2.8,2.8,0,0,0,22.4,9.8ZM32.2,0A2.8,2.8,0,1,0,35,2.8,2.8,2.8,0,0,0,32.2,0ZM42,0a2.8,2.8,0,1,0,2.8,2.8A2.8,2.8,0,0,0,42,0ZM2.8,0A2.8,2.8,0,1,0,5.6,2.8,2.8,2.8,0,0,0,2.8,0Zm9.8,0a2.8,2.8,0,1,0,2.8,2.8A2.8,2.8,0,0,0,12.6,0Zm9.8,0a2.8,2.8,0,1,0,2.8,2.8A2.8,2.8,0,0,0,22.4,0Z"/></g></g></svg>