<svg xmlns="http://www.w3.org/2000/svg" xmlns:xlink="http://www.w3.org/1999/xlink" viewBox="0 0 134.067 134.002"><defs><style>.cls-1{fill:none;}.cls-2{fill:#ff5cdc;}.cls-3{fill:#9639d8;}.cls-4{clip-path:url(#clip-path);}.cls-5{fill:#e834c6;}.cls-6{fill:#6ce5c8;}.cls-7{clip-path:url(#clip-path-2);}.cls-8{fill:#37bf9b;}</style><clipPath id="clip-path"><path class="cls-1" d="M69.316,4.029a55.378,55.378,0,1,0,55.378,55.378A55.379,55.379,0,0,0,69.316,4.029Zm0,85.208a29.83,29.83,0,1,1,29.83-29.829A29.829,29.829,0,0,1,69.316,89.237Z"/></clipPath><clipPath id="clip-path-2"><path class="cls-1" d="M99.125,58.6c.008.27.021.538.021.809a29.83,29.83,0,0,1-59.659,0c0-.271.013-.539.021-.809H13.959c0,.27-.021.538-.021.808a55.378,55.378,0,0,0,110.756,0c0-.27-.015-.538-.021-.808Z"/></clipPath></defs><title>Asset 4</title><g id="Layer_2" data-name="Layer 2"><g id="OBJECTS"><path class="cls-2" d="M69.316,4.029a55.378,55.378,0,1,0,55.378,55.378A55.379,55.379,0,0,0,69.316,4.029Zm0,85.208a29.83,29.83,0,1,1,29.83-29.829A29.829,29.829,0,0,1,69.316,89.237Z"/><path class="cls-3" d="M83.129,85.844q5.862,11.343,11.665,22.715a55.335,55.335,0,0,0,29.9-49.152c0-.27-.015-.538-.021-.808H99.125c.008.27.021.538.021.809A29.813,29.813,0,0,1,83.129,85.844Z"/><g class="cls-4"><path class="cls-5" d="M101.085,5.432A2.716,2.716,0,1,1,103.8,2.716,2.716,2.716,0,0,1,101.085,5.432Z"/><path class="cls-5" d="M101.085,16.176a2.717,2.717,0,1,1,2.715-2.717A2.717,2.717,0,0,1,101.085,16.176Z"/><path class="cls-5" d="M101.085,26.919A2.716,2.716,0,1,1,103.8,24.2,2.717,2.717,0,0,1,101.085,26.919Z"/><path class="cls-5" d="M101.085,37.665a2.717,2.717,0,1,1,2.715-2.719A2.719,2.719,0,0,1,101.085,37.665Z"/><path class="cls-5" d="M101.085,48.406a2.716,2.716,0,1,1,2.715-2.715A2.715,2.715,0,0,1,101.085,48.406Z"/><path class="cls-5" d="M101.085,59.151a2.716,2.716,0,1,1,2.715-2.717A2.716,2.716,0,0,1,101.085,59.151Z"/><path class="cls-5" d="M93.518,10.8a2.716,2.716,0,1,1,2.715-2.717A2.717,2.717,0,0,1,93.518,10.8Z"/><path class="cls-5" d="M93.518,21.547a2.716,2.716,0,1,1,2.715-2.716A2.717,2.717,0,0,1,93.518,21.547Z"/><path class="cls-5" d="M93.518,32.292a2.716,2.716,0,1,1,2.715-2.717A2.718,2.718,0,0,1,93.518,32.292Z"/><path class="cls-5" d="M93.518,43.035a2.716,2.716,0,1,1,2.715-2.716A2.718,2.718,0,0,1,93.518,43.035Z"/><path class="cls-5" d="M93.518,53.779a2.717,2.717,0,1,1,2.715-2.716A2.718,2.718,0,0,1,93.518,53.779Z"/><path class="cls-5" d="M85.951,5.432a2.716,2.716,0,1,1,2.715-2.716A2.715,2.715,0,0,1,85.951,5.432Z"/><path class="cls-5" d="M85.951,16.176a2.717,2.717,0,1,1,2.715-2.717A2.715,2.715,0,0,1,85.951,16.176Z"/><path class="cls-5" d="M85.951,26.919A2.716,2.716,0,1,1,88.666,24.2,2.715,2.715,0,0,1,85.951,26.919Z"/><path class="cls-5" d="M85.951,37.665a2.717,2.717,0,1,1,2.715-2.719A2.718,2.718,0,0,1,85.951,37.665Z"/><path class="cls-5" d="M85.951,48.406a2.716,2.716,0,1,1,2.715-2.715A2.714,2.714,0,0,1,85.951,48.406Z"/><path class="cls-5" d="M85.951,59.151a2.716,2.716,0,1,1,2.715-2.717A2.715,2.715,0,0,1,85.951,59.151Z"/><path class="cls-5" d="M78.384,10.8A2.716,2.716,0,1,1,81.1,8.087,2.716,2.716,0,0,1,78.384,10.8Z"/><path class="cls-5" d="M78.384,21.547A2.716,2.716,0,1,1,81.1,18.831,2.716,2.716,0,0,1,78.384,21.547Z"/><path class="cls-5" d="M78.384,32.292A2.716,2.716,0,1,1,81.1,29.575,2.717,2.717,0,0,1,78.384,32.292Z"/><path class="cls-5" d="M78.384,43.035A2.716,2.716,0,1,1,81.1,40.319,2.717,2.717,0,0,1,78.384,43.035Z"/><path class="cls-5" d="M78.384,53.779A2.717,2.717,0,1,1,81.1,51.063,2.718,2.718,0,0,1,78.384,53.779Z"/><path class="cls-5" d="M70.817,5.432a2.716,2.716,0,1,1,2.716-2.716A2.715,2.715,0,0,1,70.817,5.432Z"/><path class="cls-5" d="M70.817,16.176a2.717,2.717,0,1,1,2.716-2.717A2.715,2.715,0,0,1,70.817,16.176Z"/><path class="cls-5" d="M70.817,26.919A2.716,2.716,0,1,1,73.533,24.2,2.715,2.715,0,0,1,70.817,26.919Z"/><path class="cls-5" d="M70.817,37.665a2.717,2.717,0,1,1,2.716-2.719A2.718,2.718,0,0,1,70.817,37.665Z"/><path class="cls-5" d="M70.817,48.406a2.716,2.716,0,1,1,2.716-2.715A2.714,2.714,0,0,1,70.817,48.406Z"/><path class="cls-5" d="M70.817,59.151a2.716,2.716,0,1,1,2.716-2.717A2.715,2.715,0,0,1,70.817,59.151Z"/><path class="cls-5" d="M131.351,5.432a2.716,2.716,0,1,1,2.716-2.716A2.716,2.716,0,0,1,131.351,5.432Z"/><path class="cls-5" d="M131.351,16.176a2.717,2.717,0,1,1,2.716-2.717A2.717,2.717,0,0,1,131.351,16.176Z"/><path class="cls-5" d="M131.351,26.919a2.716,2.716,0,1,1,2.716-2.716A2.717,2.717,0,0,1,131.351,26.919Z"/><path class="cls-5" d="M131.351,37.665a2.717,2.717,0,1,1,2.716-2.719A2.719,2.719,0,0,1,131.351,37.665Z"/><path class="cls-5" d="M131.351,48.406a2.716,2.716,0,1,1,2.716-2.715A2.715,2.715,0,0,1,131.351,48.406Z"/><path class="cls-5" d="M131.351,59.151a2.716,2.716,0,1,1,2.716-2.717A2.716,2.716,0,0,1,131.351,59.151Z"/><path class="cls-5" d="M123.784,10.8A2.716,2.716,0,1,1,126.5,8.087,2.717,2.717,0,0,1,123.784,10.8Z"/><path class="cls-5" d="M123.784,21.547a2.716,2.716,0,1,1,2.716-2.716A2.717,2.717,0,0,1,123.784,21.547Z"/><path class="cls-5" d="M123.784,32.292a2.716,2.716,0,1,1,2.716-2.717A2.718,2.718,0,0,1,123.784,32.292Z"/><path class="cls-5" d="M123.784,43.035a2.716,2.716,0,1,1,2.716-2.716A2.717,2.717,0,0,1,123.784,43.035Z"/><path class="cls-5" d="M123.784,53.779a2.717,2.717,0,1,1,2.716-2.716A2.718,2.718,0,0,1,123.784,53.779Z"/><path class="cls-5" d="M116.218,5.432a2.716,2.716,0,1,1,2.716-2.716A2.716,2.716,0,0,1,116.218,5.432Z"/><path class="cls-5" d="M116.218,16.176a2.717,2.717,0,1,1,2.716-2.717A2.717,2.717,0,0,1,116.218,16.176Z"/><path class="cls-5" d="M116.218,26.919a2.716,2.716,0,1,1,2.716-2.716A2.717,2.717,0,0,1,116.218,26.919Z"/><path class="cls-5" d="M116.218,37.665a2.717,2.717,0,1,1,2.716-2.719A2.719,2.719,0,0,1,116.218,37.665Z"/><path class="cls-5" d="M116.218,48.406a2.716,2.716,0,1,1,2.716-2.715A2.715,2.715,0,0,1,116.218,48.406Z"/><path class="cls-5" d="M116.218,59.151a2.716,2.716,0,1,1,2.716-2.717A2.716,2.716,0,0,1,116.218,59.151Z"/><path class="cls-5" d="M108.65,10.8a2.716,2.716,0,1,1,2.718-2.717A2.716,2.716,0,0,1,108.65,10.8Z"/><path class="cls-5" d="M108.65,21.547a2.716,2.716,0,1,1,2.718-2.716A2.716,2.716,0,0,1,108.65,21.547Z"/><path class="cls-5" d="M108.65,32.292a2.716,2.716,0,1,1,2.718-2.717A2.717,2.717,0,0,1,108.65,32.292Z"/><path class="cls-5" d="M108.65,43.035a2.716,2.716,0,1,1,2.718-2.716A2.717,2.717,0,0,1,108.65,43.035Z"/><path class="cls-5" d="M108.65,53.779a2.717,2.717,0,1,1,2.718-2.716A2.717,2.717,0,0,1,108.65,53.779Z"/><path class="cls-5" d="M63.251,10.8a2.716,2.716,0,1,1,2.716-2.717A2.717,2.717,0,0,1,63.251,10.8Z"/><path class="cls-5" d="M63.251,21.547a2.716,2.716,0,1,1,2.716-2.716A2.717,2.717,0,0,1,63.251,21.547Z"/><path class="cls-5" d="M63.251,32.292a2.716,2.716,0,1,1,2.716-2.717A2.718,2.718,0,0,1,63.251,32.292Z"/><path class="cls-5" d="M63.251,43.035a2.716,2.716,0,1,1,2.716-2.716A2.718,2.718,0,0,1,63.251,43.035Z"/><path class="cls-5" d="M63.251,53.779a2.717,2.717,0,1,1,2.716-2.716A2.718,2.718,0,0,1,63.251,53.779Z"/><path class="cls-5" d="M55.684,5.432A2.716,2.716,0,1,1,58.4,2.716,2.716,2.716,0,0,1,55.684,5.432Z"/><path class="cls-5" d="M55.684,16.176A2.717,2.717,0,1,1,58.4,13.459,2.717,2.717,0,0,1,55.684,16.176Z"/><path class="cls-5" d="M55.684,26.919A2.716,2.716,0,1,1,58.4,24.2,2.717,2.717,0,0,1,55.684,26.919Z"/><path class="cls-5" d="M55.684,37.665A2.717,2.717,0,1,1,58.4,34.946,2.719,2.719,0,0,1,55.684,37.665Z"/><path class="cls-5" d="M55.684,48.406A2.716,2.716,0,1,1,58.4,45.691,2.715,2.715,0,0,1,55.684,48.406Z"/><path class="cls-5" d="M55.684,59.151A2.716,2.716,0,1,1,58.4,56.434,2.716,2.716,0,0,1,55.684,59.151Z"/><path class="cls-5" d="M48.116,10.8a2.716,2.716,0,1,1,2.717-2.717A2.715,2.715,0,0,1,48.116,10.8Z"/><path class="cls-5" d="M48.116,21.547a2.716,2.716,0,1,1,2.717-2.716A2.715,2.715,0,0,1,48.116,21.547Z"/><path class="cls-5" d="M48.116,32.292a2.716,2.716,0,1,1,2.717-2.717A2.716,2.716,0,0,1,48.116,32.292Z"/><path class="cls-5" d="M48.116,43.035a2.716,2.716,0,1,1,2.717-2.716A2.716,2.716,0,0,1,48.116,43.035Z"/><path class="cls-5" d="M48.116,53.779a2.717,2.717,0,1,1,2.717-2.716A2.716,2.716,0,0,1,48.116,53.779Z"/><path class="cls-5" d="M40.55,5.432a2.716,2.716,0,1,1,2.716-2.716A2.717,2.717,0,0,1,40.55,5.432Z"/><path class="cls-5" d="M40.55,16.176a2.717,2.717,0,1,1,2.716-2.717A2.718,2.718,0,0,1,40.55,16.176Z"/><path class="cls-5" d="M40.55,26.919A2.716,2.716,0,1,1,43.266,24.2,2.717,2.717,0,0,1,40.55,26.919Z"/><path class="cls-5" d="M40.55,37.665a2.717,2.717,0,1,1,2.716-2.719A2.72,2.72,0,0,1,40.55,37.665Z"/><path class="cls-5" d="M40.55,48.406a2.716,2.716,0,1,1,2.716-2.715A2.716,2.716,0,0,1,40.55,48.406Z"/><path class="cls-5" d="M40.55,59.151a2.716,2.716,0,1,1,2.716-2.717A2.717,2.717,0,0,1,40.55,59.151Z"/><path class="cls-5" d="M32.983,10.8A2.716,2.716,0,1,1,35.7,8.087,2.717,2.717,0,0,1,32.983,10.8Z"/><path class="cls-5" d="M32.983,21.547A2.716,2.716,0,1,1,35.7,18.831,2.717,2.717,0,0,1,32.983,21.547Z"/><path class="cls-5" d="M32.983,32.292A2.716,2.716,0,1,1,35.7,29.575,2.718,2.718,0,0,1,32.983,32.292Z"/><path class="cls-5" d="M32.983,43.035A2.716,2.716,0,1,1,35.7,40.319,2.717,2.717,0,0,1,32.983,43.035Z"/><path class="cls-5" d="M32.983,53.779A2.717,2.717,0,1,1,35.7,51.063,2.718,2.718,0,0,1,32.983,53.779Z"/><path class="cls-5" d="M25.417,5.432a2.716,2.716,0,1,1,2.716-2.716A2.715,2.715,0,0,1,25.417,5.432Z"/><path class="cls-5" d="M25.417,16.176a2.717,2.717,0,1,1,2.716-2.717A2.716,2.716,0,0,1,25.417,16.176Z"/><path class="cls-5" d="M25.417,26.919A2.716,2.716,0,1,1,28.133,24.2,2.716,2.716,0,0,1,25.417,26.919Z"/><path class="cls-5" d="M25.417,37.665a2.717,2.717,0,1,1,2.716-2.719A2.719,2.719,0,0,1,25.417,37.665Z"/><path class="cls-5" d="M25.417,48.406a2.716,2.716,0,1,1,2.716-2.715A2.715,2.715,0,0,1,25.417,48.406Z"/><path class="cls-5" d="M25.417,59.151a2.716,2.716,0,1,1,2.716-2.717A2.716,2.716,0,0,1,25.417,59.151Z"/><path class="cls-5" d="M17.849,10.8a2.716,2.716,0,1,1,2.717-2.717A2.716,2.716,0,0,1,17.849,10.8Z"/><path class="cls-5" d="M17.849,21.547a2.716,2.716,0,1,1,2.717-2.716A2.716,2.716,0,0,1,17.849,21.547Z"/><path class="cls-5" d="M17.849,32.292a2.716,2.716,0,1,1,2.717-2.717A2.717,2.717,0,0,1,17.849,32.292Z"/><path class="cls-5" d="M17.849,43.035a2.716,2.716,0,1,1,2.717-2.716A2.717,2.717,0,0,1,17.849,43.035Z"/><path class="cls-5" d="M17.849,53.779a2.717,2.717,0,1,1,2.717-2.716A2.717,2.717,0,0,1,17.849,53.779Z"/><path class="cls-5" d="M10.283,5.432A2.716,2.716,0,1,1,13,2.716,2.717,2.717,0,0,1,10.283,5.432Z"/><path class="cls-5" d="M10.283,16.176A2.717,2.717,0,1,1,13,13.459,2.718,2.718,0,0,1,10.283,16.176Z"/><path class="cls-5" d="M10.283,26.919A2.716,2.716,0,1,1,13,24.2,2.717,2.717,0,0,1,10.283,26.919Z"/><path class="cls-5" d="M10.283,37.665A2.717,2.717,0,1,1,13,34.946,2.72,2.72,0,0,1,10.283,37.665Z"/><path class="cls-5" d="M10.283,48.406A2.716,2.716,0,1,1,13,45.691,2.716,2.716,0,0,1,10.283,48.406Z"/><path class="cls-5" d="M10.283,59.151A2.716,2.716,0,1,1,13,56.434,2.717,2.717,0,0,1,10.283,59.151Z"/><path class="cls-5" d="M2.716,10.8A2.716,2.716,0,1,1,5.433,8.087,2.716,2.716,0,0,1,2.716,10.8Z"/><path class="cls-5" d="M2.716,21.547a2.716,2.716,0,1,1,2.717-2.716A2.716,2.716,0,0,1,2.716,21.547Z"/><path class="cls-5" d="M2.716,32.292a2.716,2.716,0,1,1,2.717-2.717A2.717,2.717,0,0,1,2.716,32.292Z"/><path class="cls-5" d="M2.716,43.035a2.716,2.716,0,1,1,2.717-2.716A2.717,2.717,0,0,1,2.716,43.035Z"/><path class="cls-5" d="M2.716,53.779a2.717,2.717,0,1,1,2.717-2.716A2.717,2.717,0,0,1,2.716,53.779Z"/></g><path class="cls-6" d="M99.125,58.6c.008.27.021.538.021.809a29.83,29.83,0,0,1-59.659,0c0-.271.013-.539.021-.809H13.959c0,.27-.021.538-.021.808a55.378,55.378,0,0,0,110.756,0c0-.27-.015-.538-.021-.808Z"/><g class="cls-7"><rect class="cls-8" x="57.525" y="51.676" width="4.307" height="82.326"/><rect class="cls-8" x="49.093" y="51.676" width="4.307" height="82.326"/><rect class="cls-8" x="32.229" y="51.676" width="4.307" height="82.326"/><rect class="cls-8" x="23.798" y="51.676" width="4.306" height="82.326"/><rect class="cls-8" x="15.366" y="51.676" width="4.307" height="82.326"/><rect class="cls-8" x="6.934" y="51.676" width="4.307" height="82.326"/><rect class="cls-8" x="99.685" y="51.676" width="4.306" height="82.326"/><rect class="cls-8" x="91.252" y="51.676" width="4.307" height="82.326"/><rect class="cls-8" x="82.821" y="51.676" width="4.306" height="82.326"/><rect class="cls-8" x="74.389" y="51.676" width="4.307" height="82.326"/><rect class="cls-8" x="65.958" y="51.676" width="4.306" height="82.326"/><rect class="cls-8" x="40.662" y="51.676" width="4.306" height="82.326"/></g><path class="cls-3" d="M83.129,85.844q5.862,11.343,11.665,22.715a55.335,55.335,0,0,0,29.9-49.152c0-.27-.015-.538-.021-.808H99.125c.008.27.021.538.021.809A29.813,29.813,0,0,1,83.129,85.844Z"/></g></g></svg>