<svg xmlns="http://www.w3.org/2000/svg" xmlns:xlink="http://www.w3.org/1999/xlink" viewBox="0 0 98.612 113.888"><defs><style>.cls-1{fill:none;}.cls-2{fill:#ff5cdc;}.cls-3{fill:#6ce5c8;}.cls-4{fill:#9639d8;}.cls-5{clip-path:url(#clip-path);}.cls-6{fill:#e834c6;}.cls-7{clip-path:url(#clip-path-2);}.cls-8{fill:#37bf9b;}</style><clipPath id="clip-path"><polygon class="cls-1" points="57.884 36.542 57.884 113.645 81.159 113.645 81.159 13.267 57.884 36.542"/></clipPath><clipPath id="clip-path-2"><polygon class="cls-1" points="25.547 39.118 25.547 73.086 57.884 36.542 57.884 3.626 25.547 39.118"/></clipPath></defs><title>Asset 5</title><g id="Layer_2" data-name="Layer 2"><g id="OBJECTS"><polygon class="cls-2" points="57.884 2.889 57.884 3.626 58.622 2.889 57.884 2.889"/><polygon class="cls-2" points="57.884 36.542 57.884 113.645 81.159 113.645 81.159 13.267 57.884 36.542"/><polygon class="cls-3" points="25.547 39.118 25.547 73.086 57.884 36.542 57.884 3.626 25.547 39.118"/><polygon class="cls-4" points="81.159 2.889 58.622 2.889 57.884 3.626 57.884 36.542 81.159 13.267 81.159 2.889"/><g class="cls-5"><path class="cls-6" d="M45.829,13.953a2.669,2.669,0,1,1-2.669-2.669A2.67,2.67,0,0,1,45.829,13.953Z"/><path class="cls-6" d="M56.386,13.953a2.669,2.669,0,1,1-2.67-2.669A2.671,2.671,0,0,1,56.386,13.953Z"/><path class="cls-6" d="M66.942,13.953a2.669,2.669,0,1,1-2.67-2.669A2.669,2.669,0,0,1,66.942,13.953Z"/><path class="cls-6" d="M77.5,13.953a2.669,2.669,0,1,1-2.668-2.669A2.669,2.669,0,0,1,77.5,13.953Z"/><path class="cls-6" d="M88.056,13.953a2.669,2.669,0,1,1-2.67-2.669A2.67,2.67,0,0,1,88.056,13.953Z"/><path class="cls-6" d="M98.612,13.953a2.669,2.669,0,1,1-2.67-2.669A2.669,2.669,0,0,1,98.612,13.953Z"/><path class="cls-6" d="M51.107,21.435a2.668,2.668,0,1,1-2.669-2.669A2.669,2.669,0,0,1,51.107,21.435Z"/><path class="cls-6" d="M61.663,21.435A2.668,2.668,0,1,1,59,18.766,2.669,2.669,0,0,1,61.663,21.435Z"/><path class="cls-6" d="M72.222,21.435a2.669,2.669,0,1,1-2.67-2.669A2.671,2.671,0,0,1,72.222,21.435Z"/><path class="cls-6" d="M82.776,21.435a2.668,2.668,0,1,1-2.668-2.669A2.669,2.669,0,0,1,82.776,21.435Z"/><path class="cls-6" d="M93.333,21.435a2.668,2.668,0,1,1-2.668-2.669A2.669,2.669,0,0,1,93.333,21.435Z"/><path class="cls-6" d="M45.829,28.916a2.669,2.669,0,1,1-2.669-2.668A2.67,2.67,0,0,1,45.829,28.916Z"/><path class="cls-6" d="M56.386,28.916a2.669,2.669,0,1,1-2.67-2.668A2.671,2.671,0,0,1,56.386,28.916Z"/><path class="cls-6" d="M66.942,28.916a2.669,2.669,0,1,1-2.67-2.668A2.669,2.669,0,0,1,66.942,28.916Z"/><path class="cls-6" d="M77.5,28.916a2.669,2.669,0,1,1-2.668-2.668A2.669,2.669,0,0,1,77.5,28.916Z"/><path class="cls-6" d="M88.056,28.916a2.669,2.669,0,1,1-2.67-2.668A2.67,2.67,0,0,1,88.056,28.916Z"/><path class="cls-6" d="M98.612,28.916a2.669,2.669,0,1,1-2.67-2.668A2.669,2.669,0,0,1,98.612,28.916Z"/><path class="cls-6" d="M51.107,36.4a2.668,2.668,0,1,1-2.669-2.67A2.668,2.668,0,0,1,51.107,36.4Z"/><path class="cls-6" d="M61.663,36.4A2.668,2.668,0,1,1,59,33.729,2.668,2.668,0,0,1,61.663,36.4Z"/><path class="cls-6" d="M72.222,36.4a2.669,2.669,0,1,1-2.67-2.67A2.669,2.669,0,0,1,72.222,36.4Z"/><path class="cls-6" d="M82.776,36.4a2.668,2.668,0,1,1-2.668-2.67A2.668,2.668,0,0,1,82.776,36.4Z"/><path class="cls-6" d="M93.333,36.4a2.668,2.668,0,1,1-2.668-2.67A2.668,2.668,0,0,1,93.333,36.4Z"/><path class="cls-6" d="M45.829,43.881a2.669,2.669,0,1,1-2.669-2.669A2.67,2.67,0,0,1,45.829,43.881Z"/><path class="cls-6" d="M56.386,43.881a2.669,2.669,0,1,1-2.67-2.669A2.671,2.671,0,0,1,56.386,43.881Z"/><path class="cls-6" d="M66.942,43.881a2.669,2.669,0,1,1-2.67-2.669A2.669,2.669,0,0,1,66.942,43.881Z"/><path class="cls-6" d="M77.5,43.881a2.669,2.669,0,1,1-2.668-2.669A2.669,2.669,0,0,1,77.5,43.881Z"/><path class="cls-6" d="M88.056,43.881a2.669,2.669,0,1,1-2.67-2.669A2.67,2.67,0,0,1,88.056,43.881Z"/><path class="cls-6" d="M98.612,43.881a2.669,2.669,0,1,1-2.67-2.669A2.669,2.669,0,0,1,98.612,43.881Z"/><path class="cls-6" d="M51.107,51.362a2.668,2.668,0,1,1-2.669-2.669A2.669,2.669,0,0,1,51.107,51.362Z"/><path class="cls-6" d="M61.663,51.362A2.668,2.668,0,1,1,59,48.693,2.669,2.669,0,0,1,61.663,51.362Z"/><path class="cls-6" d="M72.222,51.362a2.669,2.669,0,1,1-2.67-2.669A2.67,2.67,0,0,1,72.222,51.362Z"/><path class="cls-6" d="M82.776,51.362a2.668,2.668,0,1,1-2.668-2.669A2.669,2.669,0,0,1,82.776,51.362Z"/><path class="cls-6" d="M93.333,51.362a2.668,2.668,0,1,1-2.668-2.669A2.669,2.669,0,0,1,93.333,51.362Z"/><path class="cls-6" d="M45.829,58.844a2.669,2.669,0,1,1-2.669-2.668A2.67,2.67,0,0,1,45.829,58.844Z"/><path class="cls-6" d="M56.386,58.844a2.669,2.669,0,1,1-2.67-2.668A2.671,2.671,0,0,1,56.386,58.844Z"/><path class="cls-6" d="M66.942,58.844a2.669,2.669,0,1,1-2.67-2.668A2.669,2.669,0,0,1,66.942,58.844Z"/><path class="cls-6" d="M77.5,58.844a2.669,2.669,0,1,1-2.668-2.668A2.669,2.669,0,0,1,77.5,58.844Z"/><path class="cls-6" d="M88.056,58.844a2.669,2.669,0,1,1-2.67-2.668A2.67,2.67,0,0,1,88.056,58.844Z"/><path class="cls-6" d="M98.612,58.844a2.669,2.669,0,1,1-2.67-2.668A2.669,2.669,0,0,1,98.612,58.844Z"/><path class="cls-6" d="M51.107,66.327a2.668,2.668,0,1,1-2.669-2.67A2.668,2.668,0,0,1,51.107,66.327Z"/><path class="cls-6" d="M61.663,66.327A2.668,2.668,0,1,1,59,63.657,2.668,2.668,0,0,1,61.663,66.327Z"/><path class="cls-6" d="M72.222,66.327a2.669,2.669,0,1,1-2.67-2.67A2.669,2.669,0,0,1,72.222,66.327Z"/><path class="cls-6" d="M82.776,66.327a2.668,2.668,0,1,1-2.668-2.67A2.668,2.668,0,0,1,82.776,66.327Z"/><path class="cls-6" d="M93.333,66.327a2.668,2.668,0,1,1-2.668-2.67A2.668,2.668,0,0,1,93.333,66.327Z"/><path class="cls-6" d="M45.829,73.808A2.669,2.669,0,1,1,43.16,71.14,2.67,2.67,0,0,1,45.829,73.808Z"/><path class="cls-6" d="M56.386,73.808a2.669,2.669,0,1,1-2.67-2.668A2.671,2.671,0,0,1,56.386,73.808Z"/><path class="cls-6" d="M66.942,73.808a2.669,2.669,0,1,1-2.67-2.668A2.669,2.669,0,0,1,66.942,73.808Z"/><path class="cls-6" d="M77.5,73.808a2.669,2.669,0,1,1-2.668-2.668A2.669,2.669,0,0,1,77.5,73.808Z"/><path class="cls-6" d="M88.056,73.808a2.669,2.669,0,1,1-2.67-2.668A2.67,2.67,0,0,1,88.056,73.808Z"/><path class="cls-6" d="M98.612,73.808a2.669,2.669,0,1,1-2.67-2.668A2.669,2.669,0,0,1,98.612,73.808Z"/><path class="cls-6" d="M51.107,81.291a2.668,2.668,0,1,1-2.669-2.67A2.668,2.668,0,0,1,51.107,81.291Z"/><path class="cls-6" d="M61.663,81.291A2.668,2.668,0,1,1,59,78.621,2.669,2.669,0,0,1,61.663,81.291Z"/><path class="cls-6" d="M72.222,81.291a2.669,2.669,0,1,1-2.67-2.67A2.67,2.67,0,0,1,72.222,81.291Z"/><path class="cls-6" d="M82.776,81.291a2.668,2.668,0,1,1-2.668-2.67A2.669,2.669,0,0,1,82.776,81.291Z"/><path class="cls-6" d="M93.333,81.291a2.668,2.668,0,1,1-2.668-2.67A2.669,2.669,0,0,1,93.333,81.291Z"/><path class="cls-6" d="M45.829,88.773a2.669,2.669,0,1,1-2.669-2.668A2.669,2.669,0,0,1,45.829,88.773Z"/><path class="cls-6" d="M56.386,88.773a2.669,2.669,0,1,1-2.67-2.668A2.67,2.67,0,0,1,56.386,88.773Z"/><path class="cls-6" d="M66.942,88.773a2.669,2.669,0,1,1-2.67-2.668A2.668,2.668,0,0,1,66.942,88.773Z"/><path class="cls-6" d="M77.5,88.773a2.669,2.669,0,1,1-2.668-2.668A2.668,2.668,0,0,1,77.5,88.773Z"/><path class="cls-6" d="M88.056,88.773a2.669,2.669,0,1,1-2.67-2.668A2.669,2.669,0,0,1,88.056,88.773Z"/><path class="cls-6" d="M98.612,88.773a2.669,2.669,0,1,1-2.67-2.668A2.668,2.668,0,0,1,98.612,88.773Z"/><path class="cls-6" d="M51.107,96.255a2.668,2.668,0,1,1-2.669-2.669A2.668,2.668,0,0,1,51.107,96.255Z"/><path class="cls-6" d="M61.663,96.255A2.668,2.668,0,1,1,59,93.586,2.668,2.668,0,0,1,61.663,96.255Z"/><path class="cls-6" d="M72.222,96.255a2.669,2.669,0,1,1-2.67-2.669A2.669,2.669,0,0,1,72.222,96.255Z"/><path class="cls-6" d="M82.776,96.255a2.668,2.668,0,1,1-2.668-2.669A2.668,2.668,0,0,1,82.776,96.255Z"/><path class="cls-6" d="M93.333,96.255a2.668,2.668,0,1,1-2.668-2.669A2.668,2.668,0,0,1,93.333,96.255Z"/><path class="cls-6" d="M45.829,103.736a2.669,2.669,0,1,1-2.669-2.669A2.67,2.67,0,0,1,45.829,103.736Z"/><path class="cls-6" d="M56.386,103.736a2.669,2.669,0,1,1-2.67-2.669A2.671,2.671,0,0,1,56.386,103.736Z"/><path class="cls-6" d="M66.942,103.736a2.669,2.669,0,1,1-2.67-2.669A2.67,2.67,0,0,1,66.942,103.736Z"/><path class="cls-6" d="M77.5,103.736a2.669,2.669,0,1,1-2.668-2.669A2.669,2.669,0,0,1,77.5,103.736Z"/><path class="cls-6" d="M88.056,103.736a2.669,2.669,0,1,1-2.67-2.669A2.671,2.671,0,0,1,88.056,103.736Z"/><path class="cls-6" d="M98.612,103.736a2.669,2.669,0,1,1-2.67-2.669A2.67,2.67,0,0,1,98.612,103.736Z"/><path class="cls-6" d="M51.107,111.219a2.668,2.668,0,1,1-2.669-2.67A2.669,2.669,0,0,1,51.107,111.219Z"/><path class="cls-6" d="M61.663,111.219A2.668,2.668,0,1,1,59,108.549,2.669,2.669,0,0,1,61.663,111.219Z"/><path class="cls-6" d="M72.222,111.219a2.669,2.669,0,1,1-2.67-2.67A2.671,2.671,0,0,1,72.222,111.219Z"/><path class="cls-6" d="M82.776,111.219a2.668,2.668,0,1,1-2.668-2.67A2.669,2.669,0,0,1,82.776,111.219Z"/><path class="cls-6" d="M93.333,111.219a2.668,2.668,0,1,1-2.668-2.67A2.669,2.669,0,0,1,93.333,111.219Z"/></g><g class="cls-7"><rect class="cls-8" x="47.142" width="4.013" height="76.712"/><rect class="cls-8" x="39.284" width="4.013" height="76.712"/><rect class="cls-8" x="23.571" width="4.013" height="76.712"/><rect class="cls-8" x="15.714" width="4.013" height="76.712"/><rect class="cls-8" x="7.857" width="4.013" height="76.712"/><rect class="cls-8" width="4.013" height="76.712"/><rect class="cls-8" x="86.427" width="4.012" height="76.712"/><rect class="cls-8" x="78.569" width="4.012" height="76.712"/><rect class="cls-8" x="70.712" width="4.014" height="76.712"/><rect class="cls-8" x="62.854" width="4.014" height="76.712"/><rect class="cls-8" x="54.999" width="4.012" height="76.712"/><rect class="cls-8" x="31.428" width="4.012" height="76.712"/></g></g></g></svg>