<svg xmlns="http://www.w3.org/2000/svg" xmlns:xlink="http://www.w3.org/1999/xlink" viewBox="0 0 83.311 134.934"><defs><style>.cls-1{fill:none;}.cls-2{fill:#ff5cdc;}.cls-3{clip-path:url(#clip-path);}.cls-4{fill:#e834c6;}.cls-5{fill:#6ce5c8;}.cls-6{fill:#9639d8;}.cls-7{clip-path:url(#clip-path-2);}.cls-8{fill:#37bf9b;}</style><clipPath id="clip-path"><path class="cls-1" d="M0,120.909s50.07-67.9,50.07-75.282c0-7.865-5.138-12.681-12.363-12.681-7.863,0-13.16,4.816-13.643,16.213H1.432c.484-21.028,12.681-39.006,36.119-39.006,21.185,0,35.47,14.286,35.47,35.474,0,16.533-27.113,50.94-27.113,50.94H78.975v24.342Z"/></clipPath><clipPath id="clip-path-2"><polygon class="cls-1" points="45.908 96.567 28.894 120.909 78.975 120.909 78.975 96.567 45.908 96.567"/></clipPath></defs><title>Asset 6</title><g id="Layer_2" data-name="Layer 2"><g id="OBJECTS"><path class="cls-2" d="M0,120.909s50.07-67.9,50.07-75.282c0-7.865-5.138-12.681-12.363-12.681-7.863,0-13.16,4.816-13.643,16.213H1.432c.484-21.028,12.681-39.006,36.119-39.006,21.185,0,35.47,14.286,35.47,35.474,0,16.533-27.113,50.94-27.113,50.94H78.975v24.342Z"/><g class="cls-3"><path class="cls-4" d="M5.568,2.783A2.784,2.784,0,1,1,2.783,0,2.784,2.784,0,0,1,5.568,2.783Z"/><path class="cls-4" d="M16.58,2.783A2.784,2.784,0,1,1,13.8,0,2.784,2.784,0,0,1,16.58,2.783Z"/><path class="cls-4" d="M27.592,2.783A2.785,2.785,0,1,1,24.807,0,2.785,2.785,0,0,1,27.592,2.783Z"/><path class="cls-4" d="M38.6,2.783A2.784,2.784,0,1,1,35.818,0,2.785,2.785,0,0,1,38.6,2.783Z"/><path class="cls-4" d="M49.615,2.783A2.784,2.784,0,1,1,46.83,0,2.785,2.785,0,0,1,49.615,2.783Z"/><path class="cls-4" d="M60.627,2.783A2.784,2.784,0,1,1,57.842,0,2.785,2.785,0,0,1,60.627,2.783Z"/><path class="cls-4" d="M11.074,10.588A2.784,2.784,0,1,1,8.291,7.805,2.784,2.784,0,0,1,11.074,10.588Z"/><path class="cls-4" d="M22.086,10.588A2.784,2.784,0,1,1,19.3,7.805,2.786,2.786,0,0,1,22.086,10.588Z"/><path class="cls-4" d="M33.1,10.588a2.785,2.785,0,1,1-2.786-2.783A2.785,2.785,0,0,1,33.1,10.588Z"/><path class="cls-4" d="M44.109,10.588a2.784,2.784,0,1,1-2.785-2.783A2.786,2.786,0,0,1,44.109,10.588Z"/><path class="cls-4" d="M55.121,10.588a2.784,2.784,0,1,1-2.785-2.783A2.786,2.786,0,0,1,55.121,10.588Z"/><path class="cls-4" d="M5.568,18.393a2.784,2.784,0,1,1-2.785-2.784A2.783,2.783,0,0,1,5.568,18.393Z"/><path class="cls-4" d="M16.58,18.393A2.784,2.784,0,1,1,13.8,15.609,2.783,2.783,0,0,1,16.58,18.393Z"/><path class="cls-4" d="M27.592,18.393a2.785,2.785,0,1,1-2.785-2.784A2.785,2.785,0,0,1,27.592,18.393Z"/><path class="cls-4" d="M38.6,18.393a2.784,2.784,0,1,1-2.785-2.784A2.785,2.785,0,0,1,38.6,18.393Z"/><path class="cls-4" d="M49.615,18.393a2.784,2.784,0,1,1-2.785-2.784A2.785,2.785,0,0,1,49.615,18.393Z"/><path class="cls-4" d="M60.627,18.393a2.784,2.784,0,1,1-2.785-2.784A2.785,2.785,0,0,1,60.627,18.393Z"/><path class="cls-4" d="M11.074,26.2a2.784,2.784,0,1,1-2.783-2.784A2.783,2.783,0,0,1,11.074,26.2Z"/><path class="cls-4" d="M22.086,26.2A2.784,2.784,0,1,1,19.3,23.413,2.785,2.785,0,0,1,22.086,26.2Z"/><path class="cls-4" d="M33.1,26.2a2.785,2.785,0,1,1-2.786-2.784A2.784,2.784,0,0,1,33.1,26.2Z"/><path class="cls-4" d="M44.109,26.2a2.784,2.784,0,1,1-2.785-2.784A2.785,2.785,0,0,1,44.109,26.2Z"/><path class="cls-4" d="M55.121,26.2a2.784,2.784,0,1,1-2.785-2.784A2.785,2.785,0,0,1,55.121,26.2Z"/><path class="cls-4" d="M5.568,34a2.784,2.784,0,1,1-2.785-2.784A2.784,2.784,0,0,1,5.568,34Z"/><path class="cls-4" d="M16.58,34A2.784,2.784,0,1,1,13.8,31.218,2.784,2.784,0,0,1,16.58,34Z"/><path class="cls-4" d="M27.592,34a2.785,2.785,0,1,1-2.785-2.784A2.786,2.786,0,0,1,27.592,34Z"/><path class="cls-4" d="M38.6,34a2.784,2.784,0,1,1-2.785-2.784A2.786,2.786,0,0,1,38.6,34Z"/><path class="cls-4" d="M49.615,34a2.784,2.784,0,1,1-2.785-2.784A2.786,2.786,0,0,1,49.615,34Z"/><path class="cls-4" d="M60.627,34a2.784,2.784,0,1,1-2.785-2.784A2.786,2.786,0,0,1,60.627,34Z"/><path class="cls-4" d="M11.074,41.806a2.784,2.784,0,1,1-2.783-2.784A2.783,2.783,0,0,1,11.074,41.806Z"/><path class="cls-4" d="M22.086,41.806A2.784,2.784,0,1,1,19.3,39.022,2.785,2.785,0,0,1,22.086,41.806Z"/><path class="cls-4" d="M33.1,41.806a2.785,2.785,0,1,1-2.786-2.784A2.784,2.784,0,0,1,33.1,41.806Z"/><path class="cls-4" d="M44.109,41.806a2.784,2.784,0,1,1-2.785-2.784A2.785,2.785,0,0,1,44.109,41.806Z"/><path class="cls-4" d="M55.121,41.806a2.784,2.784,0,1,1-2.785-2.784A2.785,2.785,0,0,1,55.121,41.806Z"/><path class="cls-4" d="M5.568,49.61a2.784,2.784,0,1,1-2.785-2.783A2.784,2.784,0,0,1,5.568,49.61Z"/><path class="cls-4" d="M16.58,49.61A2.784,2.784,0,1,1,13.8,46.827,2.784,2.784,0,0,1,16.58,49.61Z"/><path class="cls-4" d="M27.592,49.61a2.785,2.785,0,1,1-2.785-2.783A2.785,2.785,0,0,1,27.592,49.61Z"/><path class="cls-4" d="M38.6,49.61a2.784,2.784,0,1,1-2.785-2.783A2.785,2.785,0,0,1,38.6,49.61Z"/><path class="cls-4" d="M49.615,49.61a2.784,2.784,0,1,1-2.785-2.783A2.785,2.785,0,0,1,49.615,49.61Z"/><path class="cls-4" d="M60.627,49.61a2.784,2.784,0,1,1-2.785-2.783A2.785,2.785,0,0,1,60.627,49.61Z"/><path class="cls-4" d="M11.074,57.415A2.784,2.784,0,1,1,8.291,54.63,2.783,2.783,0,0,1,11.074,57.415Z"/><path class="cls-4" d="M22.086,57.415A2.784,2.784,0,1,1,19.3,54.63,2.785,2.785,0,0,1,22.086,57.415Z"/><path class="cls-4" d="M33.1,57.415a2.785,2.785,0,1,1-2.786-2.785A2.784,2.784,0,0,1,33.1,57.415Z"/><path class="cls-4" d="M44.109,57.415a2.784,2.784,0,1,1-2.785-2.785A2.785,2.785,0,0,1,44.109,57.415Z"/><path class="cls-4" d="M55.121,57.415a2.784,2.784,0,1,1-2.785-2.785A2.785,2.785,0,0,1,55.121,57.415Z"/><path class="cls-4" d="M5.568,65.22a2.784,2.784,0,1,1-2.785-2.785A2.783,2.783,0,0,1,5.568,65.22Z"/><path class="cls-4" d="M16.58,65.22A2.784,2.784,0,1,1,13.8,62.435,2.783,2.783,0,0,1,16.58,65.22Z"/><path class="cls-4" d="M27.592,65.22a2.785,2.785,0,1,1-2.785-2.785A2.785,2.785,0,0,1,27.592,65.22Z"/><path class="cls-4" d="M38.6,65.22a2.784,2.784,0,1,1-2.785-2.785A2.785,2.785,0,0,1,38.6,65.22Z"/><path class="cls-4" d="M49.615,65.22a2.784,2.784,0,1,1-2.785-2.785A2.785,2.785,0,0,1,49.615,65.22Z"/><path class="cls-4" d="M60.627,65.22a2.784,2.784,0,1,1-2.785-2.785A2.785,2.785,0,0,1,60.627,65.22Z"/><path class="cls-4" d="M11.074,73.023a2.784,2.784,0,1,1-2.783-2.784A2.785,2.785,0,0,1,11.074,73.023Z"/><path class="cls-4" d="M22.086,73.023A2.784,2.784,0,1,1,19.3,70.239,2.786,2.786,0,0,1,22.086,73.023Z"/><path class="cls-4" d="M33.1,73.023a2.785,2.785,0,1,1-2.786-2.784A2.785,2.785,0,0,1,33.1,73.023Z"/><path class="cls-4" d="M44.109,73.023a2.784,2.784,0,1,1-2.785-2.784A2.786,2.786,0,0,1,44.109,73.023Z"/><path class="cls-4" d="M55.121,73.023a2.784,2.784,0,1,1-2.785-2.784A2.786,2.786,0,0,1,55.121,73.023Z"/><path class="cls-4" d="M5.568,80.828a2.784,2.784,0,1,1-2.785-2.783A2.784,2.784,0,0,1,5.568,80.828Z"/><path class="cls-4" d="M16.58,80.828A2.784,2.784,0,1,1,13.8,78.045,2.784,2.784,0,0,1,16.58,80.828Z"/><path class="cls-4" d="M27.592,80.828a2.785,2.785,0,1,1-2.785-2.783A2.785,2.785,0,0,1,27.592,80.828Z"/><path class="cls-4" d="M38.6,80.828a2.784,2.784,0,1,1-2.785-2.783A2.785,2.785,0,0,1,38.6,80.828Z"/><path class="cls-4" d="M49.615,80.828a2.784,2.784,0,1,1-2.785-2.783A2.785,2.785,0,0,1,49.615,80.828Z"/><path class="cls-4" d="M60.627,80.828a2.784,2.784,0,1,1-2.785-2.783A2.785,2.785,0,0,1,60.627,80.828Z"/><path class="cls-4" d="M11.074,88.633a2.784,2.784,0,1,1-2.783-2.784A2.783,2.783,0,0,1,11.074,88.633Z"/><path class="cls-4" d="M22.086,88.633A2.784,2.784,0,1,1,19.3,85.849,2.785,2.785,0,0,1,22.086,88.633Z"/><path class="cls-4" d="M33.1,88.633a2.785,2.785,0,1,1-2.786-2.784A2.784,2.784,0,0,1,33.1,88.633Z"/><path class="cls-4" d="M44.109,88.633a2.784,2.784,0,1,1-2.785-2.784A2.785,2.785,0,0,1,44.109,88.633Z"/><path class="cls-4" d="M55.121,88.633a2.784,2.784,0,1,1-2.785-2.784A2.785,2.785,0,0,1,55.121,88.633Z"/><path class="cls-4" d="M5.568,96.436a2.784,2.784,0,1,1-2.785-2.783A2.785,2.785,0,0,1,5.568,96.436Z"/><path class="cls-4" d="M16.58,96.436A2.784,2.784,0,1,1,13.8,93.653,2.785,2.785,0,0,1,16.58,96.436Z"/><path class="cls-4" d="M27.592,96.436a2.785,2.785,0,1,1-2.785-2.783A2.786,2.786,0,0,1,27.592,96.436Z"/><path class="cls-4" d="M38.6,96.436a2.784,2.784,0,1,1-2.785-2.783A2.786,2.786,0,0,1,38.6,96.436Z"/><path class="cls-4" d="M49.615,96.436a2.784,2.784,0,1,1-2.785-2.783A2.786,2.786,0,0,1,49.615,96.436Z"/><path class="cls-4" d="M60.627,96.436a2.784,2.784,0,1,1-2.785-2.783A2.786,2.786,0,0,1,60.627,96.436Z"/><path class="cls-4" d="M11.074,104.242a2.784,2.784,0,1,1-2.783-2.785A2.783,2.783,0,0,1,11.074,104.242Z"/><path class="cls-4" d="M22.086,104.242a2.784,2.784,0,1,1-2.785-2.785A2.785,2.785,0,0,1,22.086,104.242Z"/><path class="cls-4" d="M33.1,104.242a2.785,2.785,0,1,1-2.786-2.785A2.784,2.784,0,0,1,33.1,104.242Z"/><path class="cls-4" d="M44.109,104.242a2.784,2.784,0,1,1-2.785-2.785A2.785,2.785,0,0,1,44.109,104.242Z"/><path class="cls-4" d="M55.121,104.242a2.784,2.784,0,1,1-2.785-2.785A2.785,2.785,0,0,1,55.121,104.242Z"/><path class="cls-4" d="M65.342,10.7a2.785,2.785,0,1,1-2.785-2.784A2.785,2.785,0,0,1,65.342,10.7Z"/><path class="cls-4" d="M76.353,10.7a2.784,2.784,0,1,1-2.785-2.784A2.785,2.785,0,0,1,76.353,10.7Z"/><path class="cls-4" d="M83.311,8.232a2.762,2.762,0,0,0,0,4.928Z"/><path class="cls-4" d="M70.848,18.5a2.785,2.785,0,1,1-2.786-2.784A2.784,2.784,0,0,1,70.848,18.5Z"/><path class="cls-4" d="M81.859,18.5a2.784,2.784,0,1,1-2.785-2.784A2.785,2.785,0,0,1,81.859,18.5Z"/><path class="cls-4" d="M65.342,26.305a2.785,2.785,0,1,1-2.785-2.784A2.785,2.785,0,0,1,65.342,26.305Z"/><path class="cls-4" d="M76.353,26.305a2.784,2.784,0,1,1-2.785-2.784A2.785,2.785,0,0,1,76.353,26.305Z"/><path class="cls-4" d="M83.311,23.841a2.761,2.761,0,0,0,0,4.927Z"/><path class="cls-4" d="M70.848,34.11a2.785,2.785,0,1,1-2.786-2.785A2.783,2.783,0,0,1,70.848,34.11Z"/><path class="cls-4" d="M81.859,34.11a2.784,2.784,0,1,1-2.785-2.785A2.784,2.784,0,0,1,81.859,34.11Z"/><path class="cls-4" d="M65.342,41.914a2.785,2.785,0,1,1-2.785-2.784A2.785,2.785,0,0,1,65.342,41.914Z"/><path class="cls-4" d="M76.353,41.914a2.784,2.784,0,1,1-2.785-2.784A2.785,2.785,0,0,1,76.353,41.914Z"/><path class="cls-4" d="M83.311,39.451a2.761,2.761,0,0,0,0,4.927Z"/><path class="cls-4" d="M70.848,49.718a2.785,2.785,0,1,1-2.786-2.784A2.784,2.784,0,0,1,70.848,49.718Z"/><path class="cls-4" d="M81.859,49.718a2.784,2.784,0,1,1-2.785-2.784A2.785,2.785,0,0,1,81.859,49.718Z"/><path class="cls-4" d="M65.342,57.522a2.785,2.785,0,1,1-2.785-2.783A2.785,2.785,0,0,1,65.342,57.522Z"/><path class="cls-4" d="M76.353,57.522a2.784,2.784,0,1,1-2.785-2.783A2.785,2.785,0,0,1,76.353,57.522Z"/><path class="cls-4" d="M83.311,55.06a2.76,2.76,0,0,0,0,4.926Z"/><path class="cls-4" d="M70.848,65.327a2.785,2.785,0,1,1-2.786-2.785A2.784,2.784,0,0,1,70.848,65.327Z"/><path class="cls-4" d="M81.859,65.327a2.784,2.784,0,1,1-2.785-2.785A2.785,2.785,0,0,1,81.859,65.327Z"/><path class="cls-4" d="M65.342,73.132a2.785,2.785,0,1,1-2.785-2.784A2.786,2.786,0,0,1,65.342,73.132Z"/><path class="cls-4" d="M76.353,73.132a2.784,2.784,0,1,1-2.785-2.784A2.786,2.786,0,0,1,76.353,73.132Z"/><path class="cls-4" d="M83.311,70.668a2.761,2.761,0,0,0,0,4.927Z"/><path class="cls-4" d="M70.848,80.936a2.785,2.785,0,1,1-2.786-2.785A2.785,2.785,0,0,1,70.848,80.936Z"/><path class="cls-4" d="M81.859,80.936a2.784,2.784,0,1,1-2.785-2.785A2.786,2.786,0,0,1,81.859,80.936Z"/><path class="cls-4" d="M65.342,88.74a2.785,2.785,0,1,1-2.785-2.783A2.785,2.785,0,0,1,65.342,88.74Z"/><path class="cls-4" d="M76.353,88.74a2.784,2.784,0,1,1-2.785-2.783A2.785,2.785,0,0,1,76.353,88.74Z"/><path class="cls-4" d="M83.311,86.278a2.76,2.76,0,0,0,0,4.926Z"/><path class="cls-4" d="M70.848,96.545a2.785,2.785,0,1,1-2.786-2.784A2.784,2.784,0,0,1,70.848,96.545Z"/><path class="cls-4" d="M81.859,96.545a2.784,2.784,0,1,1-2.785-2.784A2.785,2.785,0,0,1,81.859,96.545Z"/><path class="cls-4" d="M65.342,104.349a2.785,2.785,0,1,1-2.785-2.784A2.786,2.786,0,0,1,65.342,104.349Z"/><path class="cls-4" d="M76.353,104.349a2.784,2.784,0,1,1-2.785-2.784A2.786,2.786,0,0,1,76.353,104.349Z"/><path class="cls-4" d="M83.311,101.885a2.762,2.762,0,0,0,0,4.928Z"/><path class="cls-4" d="M70.848,112.154a2.785,2.785,0,1,1-2.786-2.784A2.785,2.785,0,0,1,70.848,112.154Z"/><path class="cls-4" d="M81.859,112.154a2.784,2.784,0,1,1-2.785-2.784A2.786,2.786,0,0,1,81.859,112.154Z"/></g><polygon class="cls-5" points="45.908 96.567 28.894 120.909 78.975 120.909 78.975 96.567 45.908 96.567"/><path class="cls-6" d="M17.594,96.582C7.73,110.455,0,120.909,0,120.909H28.894L45.908,96.567Z"/><g class="cls-7"><rect class="cls-8" x="72.213" y="72.705" width="4.185" height="62.229"/><rect class="cls-8" x="64.064" y="72.705" width="4.184" height="62.229"/><rect class="cls-8" x="55.916" y="72.705" width="4.184" height="62.229"/><rect class="cls-8" x="47.768" y="72.705" width="4.186" height="62.229"/><rect class="cls-8" x="39.619" y="72.705" width="4.186" height="62.229"/><rect class="cls-8" x="31.471" y="72.705" width="4.186" height="62.229"/></g></g></g></svg>