<svg xmlns="http://www.w3.org/2000/svg" xmlns:xlink="http://www.w3.org/1999/xlink" viewBox="0 0 86.305 125.152"><defs><style>.cls-1{fill:none;}.cls-2{fill:#6ce5c8;}.cls-3{fill:#ff5cdc;}.cls-4{fill:#9639d8;}.cls-5{clip-path:url(#clip-path);}.cls-6{fill:#e834c6;}.cls-7{clip-path:url(#clip-path-2);}.cls-8{fill:#37bf9b;}</style><clipPath id="clip-path"><path class="cls-1" d="M68.8,52.776c-11.785,9.861-28,10.855-32.554,10.933h8.566c8.86,0,14.873,4.429,14.873,13.921A13.88,13.88,0,0,1,45.763,91.713c-8.543,0-14.239-3.008-15.978-11.868H5.892C7,104.526,25.2,113.073,45.449,113.073c20.883,0,37.814-12.977,37.814-35.443C83.263,67.5,79.246,57.682,68.8,52.776Z"/></clipPath><clipPath id="clip-path-2"><path class="cls-1" d="M78.515,33.327c0-21.677-15.978-31.011-35.281-31.011C24.72,2.316,9.056,13.709,7.79,34.6H31.683c.63-7.438,4.429-11.392,12.182-11.392C50.2,23.2,55.1,27,55.1,33.327c0,6.806-3.006,12.027-10.286,12.027H38.759A83.178,83.178,0,0,1,68.8,52.776C74.814,48.505,78.515,39.972,78.515,33.327Z"/></clipPath></defs><title>Asset 1</title><g id="Layer_2" data-name="Layer 2"><g id="OBJECTS"><path class="cls-2" d="M78.515,33.327c0-21.677-15.978-31.011-35.281-31.011C24.72,2.316,9.056,13.709,7.79,34.6H31.683c.63-7.438,4.429-11.392,12.182-11.392C50.2,23.2,55.1,27,55.1,33.327c0,6.806-3.006,12.027-10.286,12.027H38.759A83.178,83.178,0,0,1,68.8,52.776C74.814,48.505,78.515,39.972,78.515,33.327Z"/><path class="cls-3" d="M68.8,52.776c-11.785,9.861-28,10.855-32.554,10.933h8.566c8.86,0,14.873,4.429,14.873,13.921A13.88,13.88,0,0,1,45.763,91.713c-8.543,0-14.239-3.008-15.978-11.868H5.892C7,104.526,25.2,113.073,45.449,113.073c20.883,0,37.814-12.977,37.814-35.443C83.263,67.5,79.246,57.682,68.8,52.776Z"/><path class="cls-4" d="M35.005,45.354h3.754C36.358,45.258,35.005,45.354,35.005,45.354Z"/><path class="cls-4" d="M36.248,63.709H35.005S35.455,63.722,36.248,63.709Z"/><path class="cls-4" d="M38.759,45.354H35.005V63.709h1.243C40.8,63.631,57.017,62.637,68.8,52.776A83.178,83.178,0,0,0,38.759,45.354Z"/><g class="cls-5"><path class="cls-6" d="M11.292,21.7a2.568,2.568,0,1,1-2.567-2.567A2.568,2.568,0,0,1,11.292,21.7Z"/><path class="cls-6" d="M21.448,21.7a2.568,2.568,0,1,1-2.567-2.567A2.568,2.568,0,0,1,21.448,21.7Z"/><path class="cls-6" d="M31.605,21.7a2.568,2.568,0,1,1-2.568-2.567A2.569,2.569,0,0,1,31.605,21.7Z"/><path class="cls-6" d="M41.763,21.7A2.569,2.569,0,1,1,39.2,19.137,2.569,2.569,0,0,1,41.763,21.7Z"/><path class="cls-6" d="M51.92,21.7a2.568,2.568,0,1,1-2.57-2.567A2.57,2.57,0,0,1,51.92,21.7Z"/><path class="cls-6" d="M62.076,21.7a2.568,2.568,0,1,1-2.568-2.567A2.568,2.568,0,0,1,62.076,21.7Z"/><path class="cls-6" d="M16.37,28.9A2.568,2.568,0,1,1,13.8,26.336,2.567,2.567,0,0,1,16.37,28.9Z"/><path class="cls-6" d="M26.527,28.9a2.568,2.568,0,1,1-2.567-2.567A2.567,2.567,0,0,1,26.527,28.9Z"/><path class="cls-6" d="M36.684,28.9a2.568,2.568,0,1,1-2.567-2.567A2.568,2.568,0,0,1,36.684,28.9Z"/><path class="cls-6" d="M46.841,28.9a2.568,2.568,0,1,1-2.568-2.567A2.569,2.569,0,0,1,46.841,28.9Z"/><path class="cls-6" d="M57,28.9a2.568,2.568,0,1,1-2.567-2.567A2.568,2.568,0,0,1,57,28.9Z"/><path class="cls-6" d="M11.292,36.1a2.568,2.568,0,1,1-2.567-2.568A2.568,2.568,0,0,1,11.292,36.1Z"/><path class="cls-6" d="M21.448,36.1a2.568,2.568,0,1,1-2.567-2.568A2.567,2.567,0,0,1,21.448,36.1Z"/><path class="cls-6" d="M31.605,36.1a2.568,2.568,0,1,1-2.568-2.568A2.568,2.568,0,0,1,31.605,36.1Z"/><path class="cls-6" d="M41.763,36.1A2.569,2.569,0,1,1,39.2,33.534,2.569,2.569,0,0,1,41.763,36.1Z"/><path class="cls-6" d="M51.92,36.1a2.568,2.568,0,1,1-2.57-2.568A2.569,2.569,0,0,1,51.92,36.1Z"/><path class="cls-6" d="M62.076,36.1a2.568,2.568,0,1,1-2.568-2.568A2.567,2.567,0,0,1,62.076,36.1Z"/><path class="cls-6" d="M16.37,43.3A2.568,2.568,0,1,1,13.8,40.732,2.566,2.566,0,0,1,16.37,43.3Z"/><path class="cls-6" d="M26.527,43.3a2.568,2.568,0,1,1-2.567-2.568A2.567,2.567,0,0,1,26.527,43.3Z"/><path class="cls-6" d="M36.684,43.3a2.568,2.568,0,1,1-2.567-2.568A2.567,2.567,0,0,1,36.684,43.3Z"/><path class="cls-6" d="M46.841,43.3a2.568,2.568,0,1,1-2.568-2.568A2.568,2.568,0,0,1,46.841,43.3Z"/><path class="cls-6" d="M57,43.3a2.568,2.568,0,1,1-2.567-2.568A2.567,2.567,0,0,1,57,43.3Z"/><path class="cls-6" d="M11.292,50.5a2.568,2.568,0,1,1-2.567-2.568A2.567,2.567,0,0,1,11.292,50.5Z"/><path class="cls-6" d="M21.448,50.5a2.568,2.568,0,1,1-2.567-2.568A2.567,2.567,0,0,1,21.448,50.5Z"/><path class="cls-6" d="M31.605,50.5a2.568,2.568,0,1,1-2.568-2.568A2.568,2.568,0,0,1,31.605,50.5Z"/><path class="cls-6" d="M41.763,50.5A2.569,2.569,0,1,1,39.2,47.931,2.568,2.568,0,0,1,41.763,50.5Z"/><path class="cls-6" d="M51.92,50.5a2.568,2.568,0,1,1-2.57-2.568A2.569,2.569,0,0,1,51.92,50.5Z"/><path class="cls-6" d="M62.076,50.5a2.568,2.568,0,1,1-2.568-2.568A2.567,2.567,0,0,1,62.076,50.5Z"/><path class="cls-6" d="M16.37,57.7A2.568,2.568,0,1,1,13.8,55.129,2.566,2.566,0,0,1,16.37,57.7Z"/><path class="cls-6" d="M26.527,57.7a2.568,2.568,0,1,1-2.567-2.568A2.567,2.567,0,0,1,26.527,57.7Z"/><path class="cls-6" d="M36.684,57.7a2.568,2.568,0,1,1-2.567-2.568A2.567,2.567,0,0,1,36.684,57.7Z"/><path class="cls-6" d="M46.841,57.7a2.568,2.568,0,1,1-2.568-2.568A2.568,2.568,0,0,1,46.841,57.7Z"/><path class="cls-6" d="M57,57.7a2.568,2.568,0,1,1-2.567-2.568A2.567,2.567,0,0,1,57,57.7Z"/><path class="cls-6" d="M11.292,64.9a2.568,2.568,0,1,1-2.567-2.567A2.567,2.567,0,0,1,11.292,64.9Z"/><path class="cls-6" d="M21.448,64.9a2.568,2.568,0,1,1-2.567-2.567A2.567,2.567,0,0,1,21.448,64.9Z"/><path class="cls-6" d="M31.605,64.9a2.568,2.568,0,1,1-2.568-2.567A2.567,2.567,0,0,1,31.605,64.9Z"/><path class="cls-6" d="M41.763,64.9A2.569,2.569,0,1,1,39.2,62.329,2.568,2.568,0,0,1,41.763,64.9Z"/><path class="cls-6" d="M51.92,64.9a2.568,2.568,0,1,1-2.57-2.567A2.569,2.569,0,0,1,51.92,64.9Z"/><path class="cls-6" d="M62.076,64.9a2.568,2.568,0,1,1-2.568-2.567A2.567,2.567,0,0,1,62.076,64.9Z"/><path class="cls-6" d="M16.37,72.094A2.568,2.568,0,1,1,13.8,69.526,2.567,2.567,0,0,1,16.37,72.094Z"/><path class="cls-6" d="M26.527,72.094a2.568,2.568,0,1,1-2.567-2.568A2.568,2.568,0,0,1,26.527,72.094Z"/><path class="cls-6" d="M36.684,72.094a2.568,2.568,0,1,1-2.567-2.568A2.568,2.568,0,0,1,36.684,72.094Z"/><path class="cls-6" d="M46.841,72.094a2.568,2.568,0,1,1-2.568-2.568A2.569,2.569,0,0,1,46.841,72.094Z"/><path class="cls-6" d="M57,72.094a2.568,2.568,0,1,1-2.567-2.568A2.568,2.568,0,0,1,57,72.094Z"/><path class="cls-6" d="M11.292,79.293a2.568,2.568,0,1,1-2.567-2.567A2.569,2.569,0,0,1,11.292,79.293Z"/><path class="cls-6" d="M21.448,79.293a2.568,2.568,0,1,1-2.567-2.567A2.568,2.568,0,0,1,21.448,79.293Z"/><path class="cls-6" d="M31.605,79.293a2.568,2.568,0,1,1-2.568-2.567A2.569,2.569,0,0,1,31.605,79.293Z"/><path class="cls-6" d="M41.763,79.293A2.569,2.569,0,1,1,39.2,76.726,2.569,2.569,0,0,1,41.763,79.293Z"/><path class="cls-6" d="M51.92,79.293a2.568,2.568,0,1,1-2.57-2.567A2.57,2.57,0,0,1,51.92,79.293Z"/><path class="cls-6" d="M62.076,79.293a2.568,2.568,0,1,1-2.568-2.567A2.568,2.568,0,0,1,62.076,79.293Z"/><path class="cls-6" d="M16.37,86.492a2.568,2.568,0,1,1-2.566-2.57A2.566,2.566,0,0,1,16.37,86.492Z"/><path class="cls-6" d="M26.527,86.492a2.568,2.568,0,1,1-2.567-2.57A2.567,2.567,0,0,1,26.527,86.492Z"/><path class="cls-6" d="M36.684,86.492a2.568,2.568,0,1,1-2.567-2.57A2.568,2.568,0,0,1,36.684,86.492Z"/><path class="cls-6" d="M46.841,86.492a2.568,2.568,0,1,1-2.568-2.57A2.569,2.569,0,0,1,46.841,86.492Z"/><path class="cls-6" d="M57,86.492a2.568,2.568,0,1,1-2.567-2.57A2.568,2.568,0,0,1,57,86.492Z"/><path class="cls-6" d="M11.292,93.69a2.568,2.568,0,1,1-2.567-2.566A2.566,2.566,0,0,1,11.292,93.69Z"/><circle class="cls-6" cx="18.881" cy="93.69" r="2.567"/><path class="cls-6" d="M31.605,93.69a2.568,2.568,0,1,1-2.568-2.566A2.566,2.566,0,0,1,31.605,93.69Z"/><path class="cls-6" d="M41.763,93.69A2.569,2.569,0,1,1,39.2,91.124,2.567,2.567,0,0,1,41.763,93.69Z"/><path class="cls-6" d="M51.92,93.69a2.568,2.568,0,1,1-2.57-2.566A2.567,2.567,0,0,1,51.92,93.69Z"/><path class="cls-6" d="M62.076,93.69a2.568,2.568,0,1,1-2.568-2.566A2.565,2.565,0,0,1,62.076,93.69Z"/><path class="cls-6" d="M16.37,100.888A2.568,2.568,0,1,1,13.8,98.32,2.568,2.568,0,0,1,16.37,100.888Z"/><path class="cls-6" d="M26.527,100.888A2.568,2.568,0,1,1,23.96,98.32,2.569,2.569,0,0,1,26.527,100.888Z"/><path class="cls-6" d="M36.684,100.888a2.568,2.568,0,1,1-2.567-2.568A2.569,2.569,0,0,1,36.684,100.888Z"/><path class="cls-6" d="M46.841,100.888a2.568,2.568,0,1,1-2.568-2.568A2.57,2.57,0,0,1,46.841,100.888Z"/><path class="cls-6" d="M57,100.888A2.568,2.568,0,1,1,54.43,98.32,2.569,2.569,0,0,1,57,100.888Z"/><path class="cls-6" d="M11.292,108.087a2.568,2.568,0,1,1-2.567-2.569A2.568,2.568,0,0,1,11.292,108.087Z"/><path class="cls-6" d="M21.448,108.087a2.568,2.568,0,1,1-2.567-2.569A2.567,2.567,0,0,1,21.448,108.087Z"/><path class="cls-6" d="M31.605,108.087a2.568,2.568,0,1,1-2.568-2.569A2.568,2.568,0,0,1,31.605,108.087Z"/><path class="cls-6" d="M41.763,108.087a2.569,2.569,0,1,1-2.568-2.569A2.569,2.569,0,0,1,41.763,108.087Z"/><path class="cls-6" d="M51.92,108.087a2.568,2.568,0,1,1-2.57-2.569A2.569,2.569,0,0,1,51.92,108.087Z"/><path class="cls-6" d="M62.076,108.087a2.568,2.568,0,1,1-2.568-2.569A2.567,2.567,0,0,1,62.076,108.087Z"/><path class="cls-6" d="M16.37,115.286a2.568,2.568,0,1,1-2.566-2.569A2.566,2.566,0,0,1,16.37,115.286Z"/><path class="cls-6" d="M26.527,115.286a2.568,2.568,0,1,1-2.567-2.569A2.566,2.566,0,0,1,26.527,115.286Z"/><path class="cls-6" d="M36.684,115.286a2.568,2.568,0,1,1-2.567-2.569A2.567,2.567,0,0,1,36.684,115.286Z"/><path class="cls-6" d="M46.841,115.286a2.568,2.568,0,1,1-2.568-2.569A2.568,2.568,0,0,1,46.841,115.286Z"/><path class="cls-6" d="M57,115.286a2.568,2.568,0,1,1-2.567-2.569A2.567,2.567,0,0,1,57,115.286Z"/><path class="cls-6" d="M66.425,29a2.568,2.568,0,1,1-2.568-2.567A2.568,2.568,0,0,1,66.425,29Z"/><path class="cls-6" d="M76.581,29a2.568,2.568,0,1,1-2.566-2.567A2.567,2.567,0,0,1,76.581,29Z"/><path class="cls-6" d="M83,26.73a2.548,2.548,0,0,0,0,4.545Z"/><path class="cls-6" d="M71.5,36.2a2.568,2.568,0,1,1-2.568-2.568A2.568,2.568,0,0,1,71.5,36.2Z"/><path class="cls-6" d="M81.661,36.2a2.568,2.568,0,1,1-2.568-2.568A2.568,2.568,0,0,1,81.661,36.2Z"/><path class="cls-6" d="M66.425,43.4a2.568,2.568,0,1,1-2.568-2.567A2.569,2.569,0,0,1,66.425,43.4Z"/><path class="cls-6" d="M76.581,43.4a2.568,2.568,0,1,1-2.566-2.567A2.567,2.567,0,0,1,76.581,43.4Z"/><path class="cls-6" d="M83,41.128a2.547,2.547,0,0,0,0,4.544Z"/><path class="cls-6" d="M71.5,50.6a2.568,2.568,0,1,1-2.568-2.568A2.569,2.569,0,0,1,71.5,50.6Z"/><path class="cls-6" d="M81.661,50.6a2.568,2.568,0,1,1-2.568-2.568A2.569,2.569,0,0,1,81.661,50.6Z"/><path class="cls-6" d="M66.425,57.8a2.568,2.568,0,1,1-2.568-2.566A2.569,2.569,0,0,1,66.425,57.8Z"/><path class="cls-6" d="M76.581,57.8a2.568,2.568,0,1,1-2.566-2.566A2.567,2.567,0,0,1,76.581,57.8Z"/><path class="cls-6" d="M83,55.525a2.547,2.547,0,0,0,0,4.544Z"/><path class="cls-6" d="M71.5,65a2.568,2.568,0,1,1-2.568-2.568A2.568,2.568,0,0,1,71.5,65Z"/><path class="cls-6" d="M81.661,65a2.568,2.568,0,1,1-2.568-2.568A2.568,2.568,0,0,1,81.661,65Z"/><path class="cls-6" d="M66.425,72.193a2.568,2.568,0,1,1-2.568-2.566A2.568,2.568,0,0,1,66.425,72.193Z"/><path class="cls-6" d="M76.581,72.193a2.568,2.568,0,1,1-2.566-2.566A2.567,2.567,0,0,1,76.581,72.193Z"/><path class="cls-6" d="M83,69.922a2.547,2.547,0,0,0,0,4.544Z"/><path class="cls-6" d="M71.5,79.392a2.568,2.568,0,1,1-2.568-2.567A2.569,2.569,0,0,1,71.5,79.392Z"/><path class="cls-6" d="M81.661,79.392a2.568,2.568,0,1,1-2.568-2.567A2.569,2.569,0,0,1,81.661,79.392Z"/><path class="cls-6" d="M66.425,86.59a2.568,2.568,0,1,1-2.568-2.567A2.569,2.569,0,0,1,66.425,86.59Z"/><path class="cls-6" d="M76.581,86.59a2.568,2.568,0,1,1-2.566-2.567A2.567,2.567,0,0,1,76.581,86.59Z"/><path class="cls-6" d="M83,84.32a2.546,2.546,0,0,0,0,4.543Z"/><path class="cls-6" d="M71.5,93.789a2.568,2.568,0,1,1-2.568-2.569A2.569,2.569,0,0,1,71.5,93.789Z"/><path class="cls-6" d="M81.661,93.789a2.568,2.568,0,1,1-2.568-2.569A2.569,2.569,0,0,1,81.661,93.789Z"/><path class="cls-6" d="M66.425,100.987a2.568,2.568,0,1,1-2.568-2.567A2.569,2.569,0,0,1,66.425,100.987Z"/><path class="cls-6" d="M76.581,100.987a2.568,2.568,0,1,1-2.566-2.567A2.567,2.567,0,0,1,76.581,100.987Z"/><path class="cls-6" d="M83,98.715a2.547,2.547,0,0,0,0,4.544Z"/><path class="cls-6" d="M71.5,108.186a2.568,2.568,0,1,1-2.568-2.567A2.568,2.568,0,0,1,71.5,108.186Z"/><path class="cls-6" d="M81.661,108.186a2.568,2.568,0,1,1-2.568-2.567A2.568,2.568,0,0,1,81.661,108.186Z"/><path class="cls-6" d="M66.425,115.384a2.568,2.568,0,1,1-2.568-2.566A2.57,2.57,0,0,1,66.425,115.384Z"/><path class="cls-6" d="M76.581,115.384a2.568,2.568,0,1,1-2.566-2.566A2.568,2.568,0,0,1,76.581,115.384Z"/><path class="cls-6" d="M83,113.112a2.548,2.548,0,0,0,0,4.545Z"/><path class="cls-6" d="M71.5,122.583a2.568,2.568,0,1,1-2.568-2.569A2.569,2.569,0,0,1,71.5,122.583Z"/><path class="cls-6" d="M81.661,122.583a2.568,2.568,0,1,1-2.568-2.569A2.569,2.569,0,0,1,81.661,122.583Z"/></g><g class="cls-7"><rect class="cls-8" x="37.579" width="3.86" height="57.399"/><rect class="cls-8" x="30.063" width="3.86" height="57.399"/><rect class="cls-8" x="22.546" width="3.861" height="57.399"/><rect class="cls-8" x="15.031" width="3.861" height="57.399"/><rect class="cls-8" x="7.516" width="3.861" height="57.399"/><rect class="cls-8" width="3.86" height="57.399"/><rect class="cls-8" x="82.443" width="3.861" height="57.399"/><rect class="cls-8" x="74.929" width="3.86" height="57.399"/><rect class="cls-8" x="67.412" width="3.859" height="57.399"/><rect class="cls-8" x="59.895" width="3.861" height="57.399"/><rect class="cls-8" x="52.38" width="3.861" height="57.399"/><rect class="cls-8" x="44.864" width="3.861" height="57.399"/></g></g></g></svg>