<svg xmlns="http://www.w3.org/2000/svg" xmlns:xlink="http://www.w3.org/1999/xlink" viewBox="0 0 102.638 120.204"><defs><style>.cls-1{fill:none;}.cls-2{fill:#6ce5c8;}.cls-3{fill:#ff5cdc;}.cls-4{clip-path:url(#clip-path);}.cls-5{fill:#e834c6;}.cls-6{fill:#9639d8;}.cls-7{clip-path:url(#clip-path-2);}.cls-8{fill:#37bf9b;}.cls-9{clip-path:url(#clip-path-3);}</style><clipPath id="clip-path"><polygon class="cls-1" points="83.56 73.827 62.252 73.827 39.613 73.827 15.531 73.827 0 96.302 62.252 96.302 83.56 96.302 91.996 96.302 91.996 73.827 83.56 73.827"/></clipPath><clipPath id="clip-path-2"><polygon class="cls-1" points="62.252 39.784 62.252 73.827 83.56 73.827 83.56 7.208 61.569 7.208 15.531 73.827 39.613 73.827 62.252 39.784"/></clipPath><clipPath id="clip-path-3"><rect class="cls-1" x="62.252" y="96.302" width="21.308" height="21.662"/></clipPath></defs><title>Asset 7</title><g id="Layer_2" data-name="Layer 2"><g id="OBJECTS"><polygon class="cls-1" points="39.613 73.827 62.252 73.827 62.252 39.784 39.613 73.827"/><rect class="cls-2" x="62.252" y="96.302" width="21.308" height="21.662"/><polygon class="cls-2" points="62.252 39.784 62.252 73.827 83.56 73.827 83.56 7.208 61.569 7.208 15.531 73.827 39.613 73.827 62.252 39.784"/><polygon class="cls-3" points="83.56 73.827 62.252 73.827 39.613 73.827 15.531 73.827 0 96.302 62.252 96.302 83.56 96.302 91.996 96.302 91.996 73.827 83.56 73.827"/><g class="cls-4"><path class="cls-5" d="M3.389,113.049a2.464,2.464,0,1,1-2.463,2.463A2.463,2.463,0,0,1,3.389,113.049Z"/><path class="cls-5" d="M3.389,103.3a2.464,2.464,0,1,1-2.463,2.464A2.463,2.463,0,0,1,3.389,103.3Z"/><path class="cls-5" d="M3.389,93.56A2.464,2.464,0,1,1,.926,96.023,2.463,2.463,0,0,1,3.389,93.56Z"/><path class="cls-5" d="M3.389,83.815A2.463,2.463,0,1,1,.926,86.277,2.463,2.463,0,0,1,3.389,83.815Z"/><path class="cls-5" d="M3.389,74.069A2.464,2.464,0,1,1,.926,76.534,2.464,2.464,0,0,1,3.389,74.069Z"/><path class="cls-5" d="M3.389,64.326A2.464,2.464,0,1,1,.926,66.79,2.463,2.463,0,0,1,3.389,64.326Z"/><path class="cls-5" d="M10.3,108.177a2.463,2.463,0,1,1-2.463,2.462A2.463,2.463,0,0,1,10.3,108.177Z"/><path class="cls-5" d="M10.3,98.432A2.463,2.463,0,1,1,7.832,100.9,2.464,2.464,0,0,1,10.3,98.432Z"/><path class="cls-5" d="M10.3,88.686a2.464,2.464,0,1,1-2.463,2.465A2.465,2.465,0,0,1,10.3,88.686Z"/><path class="cls-5" d="M10.3,78.943a2.463,2.463,0,1,1-2.463,2.462A2.464,2.464,0,0,1,10.3,78.943Z"/><path class="cls-5" d="M10.3,69.2a2.464,2.464,0,1,1-2.463,2.464A2.464,2.464,0,0,1,10.3,69.2Z"/><path class="cls-5" d="M17.2,113.049a2.464,2.464,0,1,1-2.463,2.463A2.463,2.463,0,0,1,17.2,113.049Z"/><circle class="cls-5" cx="17.201" cy="105.768" r="2.463"/><path class="cls-5" d="M17.2,93.56a2.464,2.464,0,1,1-2.463,2.463A2.463,2.463,0,0,1,17.2,93.56Z"/><path class="cls-5" d="M17.2,83.815a2.463,2.463,0,1,1-2.463,2.462A2.464,2.464,0,0,1,17.2,83.815Z"/><path class="cls-5" d="M17.2,74.069a2.464,2.464,0,1,1-2.463,2.465A2.464,2.464,0,0,1,17.2,74.069Z"/><path class="cls-5" d="M17.2,64.326a2.464,2.464,0,1,1-2.463,2.464A2.464,2.464,0,0,1,17.2,64.326Z"/><path class="cls-5" d="M24.107,108.177a2.463,2.463,0,1,1-2.463,2.462A2.461,2.461,0,0,1,24.107,108.177Z"/><path class="cls-5" d="M24.107,98.432a2.463,2.463,0,1,1-2.463,2.463A2.463,2.463,0,0,1,24.107,98.432Z"/><path class="cls-5" d="M24.107,88.686a2.464,2.464,0,1,1-2.463,2.465A2.464,2.464,0,0,1,24.107,88.686Z"/><path class="cls-5" d="M24.107,78.943a2.463,2.463,0,1,1-2.463,2.462A2.463,2.463,0,0,1,24.107,78.943Z"/><path class="cls-5" d="M24.107,69.2a2.464,2.464,0,1,1-2.463,2.464A2.463,2.463,0,0,1,24.107,69.2Z"/><path class="cls-5" d="M31.014,113.049a2.464,2.464,0,1,1-2.463,2.463A2.463,2.463,0,0,1,31.014,113.049Z"/><path class="cls-5" d="M31.014,103.3a2.464,2.464,0,1,1-2.463,2.464A2.463,2.463,0,0,1,31.014,103.3Z"/><path class="cls-5" d="M31.014,93.56a2.464,2.464,0,1,1-2.463,2.463A2.463,2.463,0,0,1,31.014,93.56Z"/><path class="cls-5" d="M31.014,83.815a2.463,2.463,0,1,1-2.463,2.462A2.463,2.463,0,0,1,31.014,83.815Z"/><path class="cls-5" d="M31.014,74.069a2.464,2.464,0,1,1-2.463,2.465A2.464,2.464,0,0,1,31.014,74.069Z"/><path class="cls-5" d="M31.014,64.326a2.464,2.464,0,1,1-2.463,2.464A2.463,2.463,0,0,1,31.014,64.326Z"/><path class="cls-5" d="M37.92,108.177a2.463,2.463,0,1,1-2.463,2.462A2.463,2.463,0,0,1,37.92,108.177Z"/><path class="cls-5" d="M37.92,98.432a2.463,2.463,0,1,1-2.463,2.463A2.464,2.464,0,0,1,37.92,98.432Z"/><path class="cls-5" d="M37.92,88.686a2.464,2.464,0,1,1-2.463,2.465A2.465,2.465,0,0,1,37.92,88.686Z"/><path class="cls-5" d="M37.92,78.943a2.463,2.463,0,1,1-2.463,2.462A2.464,2.464,0,0,1,37.92,78.943Z"/><path class="cls-5" d="M37.92,69.2a2.464,2.464,0,1,1-2.463,2.464A2.465,2.465,0,0,1,37.92,69.2Z"/><path class="cls-5" d="M44.826,113.049a2.464,2.464,0,1,1-2.463,2.463A2.464,2.464,0,0,1,44.826,113.049Z"/><path class="cls-5" d="M44.826,103.3a2.464,2.464,0,1,1-2.463,2.464A2.464,2.464,0,0,1,44.826,103.3Z"/><path class="cls-5" d="M44.826,93.56a2.464,2.464,0,1,1-2.463,2.463A2.464,2.464,0,0,1,44.826,93.56Z"/><path class="cls-5" d="M44.826,83.815a2.463,2.463,0,1,1-2.463,2.462A2.464,2.464,0,0,1,44.826,83.815Z"/><path class="cls-5" d="M44.826,74.069a2.464,2.464,0,1,1-2.463,2.465A2.465,2.465,0,0,1,44.826,74.069Z"/><path class="cls-5" d="M44.826,64.326a2.464,2.464,0,1,1-2.463,2.464A2.464,2.464,0,0,1,44.826,64.326Z"/><path class="cls-5" d="M51.734,108.177a2.463,2.463,0,1,1-2.465,2.462A2.46,2.46,0,0,1,51.734,108.177Z"/><path class="cls-5" d="M51.734,98.432a2.463,2.463,0,1,1-2.465,2.463A2.462,2.462,0,0,1,51.734,98.432Z"/><path class="cls-5" d="M51.734,88.686a2.464,2.464,0,1,1-2.465,2.465A2.463,2.463,0,0,1,51.734,88.686Z"/><path class="cls-5" d="M51.734,78.943a2.463,2.463,0,1,1-2.465,2.462A2.462,2.462,0,0,1,51.734,78.943Z"/><path class="cls-5" d="M51.734,69.2a2.464,2.464,0,1,1-2.465,2.464A2.462,2.462,0,0,1,51.734,69.2Z"/><path class="cls-5" d="M58.64,113.049a2.464,2.464,0,1,1-2.464,2.463A2.463,2.463,0,0,1,58.64,113.049Z"/><path class="cls-5" d="M58.64,103.3a2.464,2.464,0,1,1-2.464,2.464A2.464,2.464,0,0,1,58.64,103.3Z"/><path class="cls-5" d="M58.64,93.56a2.464,2.464,0,1,1-2.464,2.463A2.463,2.463,0,0,1,58.64,93.56Z"/><path class="cls-5" d="M58.64,83.815a2.463,2.463,0,1,1-2.464,2.462A2.464,2.464,0,0,1,58.64,83.815Z"/><path class="cls-5" d="M58.64,74.069a2.464,2.464,0,1,1-2.464,2.465A2.464,2.464,0,0,1,58.64,74.069Z"/><path class="cls-5" d="M58.64,64.326a2.464,2.464,0,1,1-2.464,2.464A2.464,2.464,0,0,1,58.64,64.326Z"/><path class="cls-5" d="M65.547,108.177a2.463,2.463,0,1,1-2.465,2.462A2.462,2.462,0,0,1,65.547,108.177Z"/><path class="cls-5" d="M65.547,98.432a2.463,2.463,0,1,1-2.465,2.463A2.463,2.463,0,0,1,65.547,98.432Z"/><path class="cls-5" d="M65.547,88.686a2.464,2.464,0,1,1-2.465,2.465A2.464,2.464,0,0,1,65.547,88.686Z"/><path class="cls-5" d="M65.547,78.943a2.463,2.463,0,1,1-2.465,2.462A2.463,2.463,0,0,1,65.547,78.943Z"/><path class="cls-5" d="M65.547,69.2a2.464,2.464,0,1,1-2.465,2.464A2.463,2.463,0,0,1,65.547,69.2Z"/><path class="cls-5" d="M72.453,113.049a2.464,2.464,0,1,1-2.463,2.463A2.463,2.463,0,0,1,72.453,113.049Z"/><circle class="cls-5" cx="72.453" cy="105.768" r="2.463"/><path class="cls-5" d="M72.453,93.56a2.464,2.464,0,1,1-2.463,2.463A2.463,2.463,0,0,1,72.453,93.56Z"/><path class="cls-5" d="M72.453,83.815a2.463,2.463,0,1,1-2.463,2.462A2.464,2.464,0,0,1,72.453,83.815Z"/><path class="cls-5" d="M72.453,74.069a2.464,2.464,0,1,1-2.463,2.465A2.464,2.464,0,0,1,72.453,74.069Z"/><path class="cls-5" d="M72.453,64.326A2.464,2.464,0,1,1,69.99,66.79,2.464,2.464,0,0,1,72.453,64.326Z"/><path class="cls-5" d="M79.358,108.177a2.463,2.463,0,1,1-2.464,2.462A2.462,2.462,0,0,1,79.358,108.177Z"/><path class="cls-5" d="M79.358,98.432a2.463,2.463,0,1,1-2.464,2.463A2.463,2.463,0,0,1,79.358,98.432Z"/><path class="cls-5" d="M79.358,88.686a2.464,2.464,0,1,1-2.464,2.465A2.464,2.464,0,0,1,79.358,88.686Z"/><path class="cls-5" d="M79.358,78.943a2.463,2.463,0,1,1-2.464,2.462A2.463,2.463,0,0,1,79.358,78.943Z"/><path class="cls-5" d="M79.358,69.2a2.464,2.464,0,1,1-2.464,2.464A2.463,2.463,0,0,1,79.358,69.2Z"/><path class="cls-5" d="M86.266,113.049a2.464,2.464,0,1,1-2.465,2.463A2.462,2.462,0,0,1,86.266,113.049Z"/><path class="cls-5" d="M86.266,103.3a2.464,2.464,0,1,1-2.465,2.464A2.462,2.462,0,0,1,86.266,103.3Z"/><path class="cls-5" d="M86.266,93.56A2.464,2.464,0,1,1,83.8,96.023,2.462,2.462,0,0,1,86.266,93.56Z"/><path class="cls-5" d="M86.266,83.815A2.463,2.463,0,1,1,83.8,86.277,2.462,2.462,0,0,1,86.266,83.815Z"/><path class="cls-5" d="M86.266,74.069A2.464,2.464,0,1,1,83.8,76.534,2.463,2.463,0,0,1,86.266,74.069Z"/><path class="cls-5" d="M86.266,64.326A2.464,2.464,0,1,1,83.8,66.79,2.462,2.462,0,0,1,86.266,64.326Z"/><path class="cls-5" d="M93.172,108.177a2.463,2.463,0,1,1-2.464,2.462A2.463,2.463,0,0,1,93.172,108.177Z"/><path class="cls-5" d="M93.172,98.432a2.463,2.463,0,1,1-2.464,2.463A2.465,2.465,0,0,1,93.172,98.432Z"/><path class="cls-5" d="M93.172,88.686a2.464,2.464,0,1,1-2.464,2.465A2.466,2.466,0,0,1,93.172,88.686Z"/><path class="cls-5" d="M93.172,78.943a2.463,2.463,0,1,1-2.464,2.462A2.465,2.465,0,0,1,93.172,78.943Z"/><path class="cls-5" d="M93.172,69.2a2.464,2.464,0,1,1-2.464,2.464A2.465,2.465,0,0,1,93.172,69.2Z"/><path class="cls-5" d="M10.391,60.153a2.464,2.464,0,1,1-2.464,2.464A2.464,2.464,0,0,1,10.391,60.153Z"/><path class="cls-5" d="M10.391,50.409a2.464,2.464,0,1,1-2.464,2.463A2.463,2.463,0,0,1,10.391,50.409Z"/><path class="cls-5" d="M8.21,44.252a2.445,2.445,0,0,0,4.361,0Z"/><path class="cls-5" d="M17.3,55.281a2.464,2.464,0,1,1-2.463,2.463A2.464,2.464,0,0,1,17.3,55.281Z"/><path class="cls-5" d="M17.3,45.537A2.463,2.463,0,1,1,14.834,48,2.463,2.463,0,0,1,17.3,45.537Z"/><path class="cls-5" d="M24.2,60.153a2.464,2.464,0,1,1-2.463,2.464A2.464,2.464,0,0,1,24.2,60.153Z"/><path class="cls-5" d="M24.2,50.409a2.464,2.464,0,1,1-2.463,2.463A2.464,2.464,0,0,1,24.2,50.409Z"/><path class="cls-5" d="M22.023,44.252a2.444,2.444,0,0,0,4.36,0Z"/><path class="cls-5" d="M31.109,55.281a2.464,2.464,0,1,1-2.465,2.463A2.462,2.462,0,0,1,31.109,55.281Z"/><path class="cls-5" d="M31.109,45.537A2.463,2.463,0,1,1,28.644,48,2.462,2.462,0,0,1,31.109,45.537Z"/><path class="cls-5" d="M38.016,60.153a2.464,2.464,0,1,1-2.463,2.464A2.463,2.463,0,0,1,38.016,60.153Z"/><path class="cls-5" d="M38.016,50.409a2.464,2.464,0,1,1-2.463,2.463A2.463,2.463,0,0,1,38.016,50.409Z"/><path class="cls-5" d="M35.836,44.252a2.444,2.444,0,0,0,4.36,0Z"/><path class="cls-5" d="M44.922,55.281a2.464,2.464,0,1,1-2.463,2.463A2.463,2.463,0,0,1,44.922,55.281Z"/><path class="cls-5" d="M44.922,45.537A2.463,2.463,0,1,1,42.459,48,2.463,2.463,0,0,1,44.922,45.537Z"/><path class="cls-5" d="M51.828,60.153a2.464,2.464,0,1,1-2.463,2.464A2.464,2.464,0,0,1,51.828,60.153Z"/><path class="cls-5" d="M51.828,50.409a2.464,2.464,0,1,1-2.463,2.463A2.464,2.464,0,0,1,51.828,50.409Z"/><path class="cls-5" d="M49.649,44.252a2.444,2.444,0,0,0,4.36,0Z"/><path class="cls-5" d="M58.735,55.281a2.464,2.464,0,1,1-2.464,2.463A2.462,2.462,0,0,1,58.735,55.281Z"/><path class="cls-5" d="M58.735,45.537A2.463,2.463,0,1,1,56.271,48,2.462,2.462,0,0,1,58.735,45.537Z"/><path class="cls-5" d="M65.643,60.153a2.464,2.464,0,1,1-2.465,2.464A2.463,2.463,0,0,1,65.643,60.153Z"/><path class="cls-5" d="M65.643,50.409a2.464,2.464,0,1,1-2.465,2.463A2.462,2.462,0,0,1,65.643,50.409Z"/><path class="cls-5" d="M63.462,44.252a2.443,2.443,0,0,0,4.359,0Z"/><path class="cls-5" d="M72.548,55.281a2.464,2.464,0,1,1-2.464,2.463A2.463,2.463,0,0,1,72.548,55.281Z"/><path class="cls-5" d="M72.548,45.537A2.463,2.463,0,1,1,70.084,48,2.463,2.463,0,0,1,72.548,45.537Z"/><path class="cls-5" d="M79.454,60.153a2.464,2.464,0,1,1-2.462,2.464A2.464,2.464,0,0,1,79.454,60.153Z"/><path class="cls-5" d="M79.454,50.409a2.464,2.464,0,1,1-2.462,2.463A2.463,2.463,0,0,1,79.454,50.409Z"/><path class="cls-5" d="M77.273,44.252a2.445,2.445,0,0,0,4.361,0Z"/><path class="cls-5" d="M86.361,55.281A2.464,2.464,0,1,1,83.9,57.744,2.462,2.462,0,0,1,86.361,55.281Z"/><path class="cls-5" d="M86.361,45.537A2.463,2.463,0,1,1,83.9,48,2.462,2.462,0,0,1,86.361,45.537Z"/><path class="cls-5" d="M93.267,60.153A2.464,2.464,0,1,1,90.8,62.617,2.463,2.463,0,0,1,93.267,60.153Z"/><path class="cls-5" d="M93.267,50.409A2.464,2.464,0,1,1,90.8,52.872,2.463,2.463,0,0,1,93.267,50.409Z"/><path class="cls-5" d="M91.086,44.252a2.444,2.444,0,0,0,4.36,0Z"/><path class="cls-5" d="M100.174,55.281a2.464,2.464,0,1,1-2.464,2.463A2.464,2.464,0,0,1,100.174,55.281Z"/><path class="cls-5" d="M100.174,45.537A2.463,2.463,0,1,1,97.71,48,2.464,2.464,0,0,1,100.174,45.537Z"/></g><rect class="cls-6" x="62.126" y="73.827" width="21.484" height="22.475"/><g class="cls-7"><rect class="cls-8" x="54.185" width="3.705" height="82.917"/><rect class="cls-8" x="46.933" width="3.705" height="82.917"/><rect class="cls-8" x="32.428" width="3.705" height="82.917"/><rect class="cls-8" x="25.176" width="3.704" height="82.917"/><rect class="cls-8" x="17.924" width="3.704" height="82.917"/><rect class="cls-8" x="10.672" width="3.704" height="82.917"/><rect class="cls-8" x="90.448" width="3.703" height="82.917"/><rect class="cls-8" x="83.195" width="3.704" height="82.917"/><rect class="cls-8" x="75.942" width="3.705" height="82.917"/><rect class="cls-8" x="68.69" width="3.705" height="82.917"/><rect class="cls-8" x="61.438" width="3.704" height="82.917"/><rect class="cls-8" x="39.681" width="3.704" height="82.917"/></g><g class="cls-9"><rect class="cls-8" x="55.336" y="88.406" width="2.555" height="31.798"/><rect class="cls-8" x="90.448" y="88.406" width="3.703" height="31.798"/><rect class="cls-8" x="83.195" y="88.406" width="3.704" height="31.798"/><rect class="cls-8" x="75.942" y="88.406" width="3.705" height="31.798"/><rect class="cls-8" x="68.69" y="88.406" width="3.705" height="31.798"/><rect class="cls-8" x="61.438" y="88.406" width="3.704" height="31.798"/></g></g></g></svg>