<svg xmlns="http://www.w3.org/2000/svg" xmlns:xlink="http://www.w3.org/1999/xlink" viewBox="0 0 91.862 122.77"><defs><style>.cls-1{fill:none;}.cls-2{fill:#ff5cdc;}.cls-3{fill:#6ce5c8;}.cls-4{clip-path:url(#clip-path);}.cls-5{fill:#e834c6;}.cls-6{fill:#9639d8;}.cls-7{clip-path:url(#clip-path-2);}.cls-8{clip-path:url(#clip-path-3);}.cls-9{fill:#37bf9b;}</style><clipPath id="clip-path"><path class="cls-1" d="M34.088,66.471V10.862H12.737V68.647A70.494,70.494,0,0,1,34.088,66.471Z"/></clipPath><clipPath id="clip-path-2"><rect class="cls-1" x="34.088" y="10.862" width="34.512" height="21.509"/></clipPath><clipPath id="clip-path-3"><path class="cls-1" d="M34.088,47.142V66.471c9.694.744,18.872,4.675,19.378,16.625.418,9.865-9.242,15.084-19.378,16.609-8.953,1.348-18.279-.184-21.351-3.943v22.527c5.548,2.347,15.041,3.329,20.827,3.329.176,0,.349-.009.524-.011,23.369-.208,43.295-14.3,43.295-38.355C77.383,60.781,63.139,44.251,34.088,47.142Z"/></clipPath></defs><title>Asset 8</title><g id="Layer_2" data-name="Layer 2"><g id="OBJECTS"><rect class="cls-2" x="34.088" y="10.862" width="34.512" height="21.509"/><path class="cls-3" d="M34.088,47.142V66.471c9.694.744,18.872,4.675,19.378,16.625.418,9.865-9.242,15.084-19.378,16.609-8.953,1.348-18.279-.184-21.351-3.943v22.527c5.548,2.347,15.041,3.329,20.827,3.329.176,0,.349-.009.524-.011,23.369-.208,43.295-14.3,43.295-38.355C77.383,60.781,63.139,44.251,34.088,47.142Z"/><path class="cls-2" d="M34.088,66.471V10.862H12.737V68.647A70.494,70.494,0,0,1,34.088,66.471Z"/><g class="cls-4"><path class="cls-5" d="M2.466,66.851A2.467,2.467,0,1,1,0,69.316,2.467,2.467,0,0,1,2.466,66.851Z"/><path class="cls-5" d="M2.466,57.094A2.466,2.466,0,1,1,0,59.561,2.468,2.468,0,0,1,2.466,57.094Z"/><path class="cls-5" d="M2.466,47.338A2.467,2.467,0,1,1,0,49.8,2.467,2.467,0,0,1,2.466,47.338Z"/><path class="cls-5" d="M2.466,37.582A2.466,2.466,0,1,1,0,40.047,2.467,2.467,0,0,1,2.466,37.582Z"/><path class="cls-5" d="M2.466,27.825A2.466,2.466,0,1,1,0,30.292,2.468,2.468,0,0,1,2.466,27.825Z"/><path class="cls-5" d="M2.466,18.068A2.467,2.467,0,1,1,0,20.536,2.468,2.468,0,0,1,2.466,18.068Z"/><path class="cls-5" d="M9.38,61.971a2.467,2.467,0,1,1-2.465,2.468A2.469,2.469,0,0,1,9.38,61.971Z"/><path class="cls-5" d="M9.38,52.216a2.467,2.467,0,1,1-2.465,2.466A2.468,2.468,0,0,1,9.38,52.216Z"/><path class="cls-5" d="M9.38,42.459a2.467,2.467,0,1,1-2.465,2.468A2.469,2.469,0,0,1,9.38,42.459Z"/><path class="cls-5" d="M9.38,32.7a2.467,2.467,0,1,1-2.465,2.465A2.467,2.467,0,0,1,9.38,32.7Z"/><path class="cls-5" d="M9.38,22.947a2.467,2.467,0,1,1-2.465,2.467A2.468,2.468,0,0,1,9.38,22.947Z"/><path class="cls-5" d="M16.3,66.851a2.467,2.467,0,1,1-2.466,2.465A2.466,2.466,0,0,1,16.3,66.851Z"/><path class="cls-5" d="M16.3,57.094a2.466,2.466,0,1,1-2.466,2.467A2.467,2.467,0,0,1,16.3,57.094Z"/><path class="cls-5" d="M16.3,47.338A2.467,2.467,0,1,1,13.829,49.8,2.467,2.467,0,0,1,16.3,47.338Z"/><path class="cls-5" d="M16.3,37.582a2.466,2.466,0,1,1-2.466,2.465A2.467,2.467,0,0,1,16.3,37.582Z"/><path class="cls-5" d="M16.3,27.825a2.466,2.466,0,1,1-2.466,2.467A2.467,2.467,0,0,1,16.3,27.825Z"/><path class="cls-5" d="M16.3,18.068a2.467,2.467,0,1,1-2.466,2.468A2.468,2.468,0,0,1,16.3,18.068Z"/><path class="cls-5" d="M23.21,61.971a2.467,2.467,0,1,1-2.468,2.468A2.467,2.467,0,0,1,23.21,61.971Z"/><path class="cls-5" d="M23.21,52.216a2.467,2.467,0,1,1-2.468,2.466A2.466,2.466,0,0,1,23.21,52.216Z"/><path class="cls-5" d="M23.21,42.459a2.467,2.467,0,1,1-2.468,2.468A2.467,2.467,0,0,1,23.21,42.459Z"/><path class="cls-5" d="M23.21,32.7a2.467,2.467,0,1,1-2.468,2.465A2.466,2.466,0,0,1,23.21,32.7Z"/><path class="cls-5" d="M23.21,22.947a2.467,2.467,0,1,1-2.468,2.467A2.467,2.467,0,0,1,23.21,22.947Z"/><path class="cls-5" d="M30.124,66.851a2.467,2.467,0,1,1-2.465,2.465A2.466,2.466,0,0,1,30.124,66.851Z"/><path class="cls-5" d="M30.124,57.094a2.466,2.466,0,1,1-2.465,2.467A2.467,2.467,0,0,1,30.124,57.094Z"/><path class="cls-5" d="M30.124,47.338A2.467,2.467,0,1,1,27.659,49.8,2.466,2.466,0,0,1,30.124,47.338Z"/><path class="cls-5" d="M30.124,37.582a2.466,2.466,0,1,1-2.465,2.465A2.467,2.467,0,0,1,30.124,37.582Z"/><path class="cls-5" d="M30.124,27.825a2.466,2.466,0,1,1-2.465,2.467A2.467,2.467,0,0,1,30.124,27.825Z"/><path class="cls-5" d="M30.124,18.068a2.467,2.467,0,1,1-2.465,2.468A2.467,2.467,0,0,1,30.124,18.068Z"/><path class="cls-5" d="M37.038,61.971a2.467,2.467,0,1,1-2.466,2.468A2.467,2.467,0,0,1,37.038,61.971Z"/><path class="cls-5" d="M37.038,52.216a2.467,2.467,0,1,1-2.466,2.466A2.466,2.466,0,0,1,37.038,52.216Z"/><path class="cls-5" d="M37.038,42.459a2.467,2.467,0,1,1-2.466,2.468A2.467,2.467,0,0,1,37.038,42.459Z"/><path class="cls-5" d="M37.038,32.7a2.467,2.467,0,1,1-2.466,2.465A2.466,2.466,0,0,1,37.038,32.7Z"/><path class="cls-5" d="M37.038,22.947a2.467,2.467,0,1,1-2.466,2.467A2.467,2.467,0,0,1,37.038,22.947Z"/><path class="cls-5" d="M43.953,66.851a2.467,2.467,0,1,1-2.466,2.465A2.466,2.466,0,0,1,43.953,66.851Z"/><path class="cls-5" d="M43.953,57.094a2.466,2.466,0,1,1-2.466,2.467A2.467,2.467,0,0,1,43.953,57.094Z"/><path class="cls-5" d="M43.953,47.338A2.467,2.467,0,1,1,41.487,49.8,2.466,2.466,0,0,1,43.953,47.338Z"/><path class="cls-5" d="M43.953,37.582a2.466,2.466,0,1,1-2.466,2.465A2.467,2.467,0,0,1,43.953,37.582Z"/><path class="cls-5" d="M43.953,27.825a2.466,2.466,0,1,1-2.466,2.467A2.467,2.467,0,0,1,43.953,27.825Z"/><path class="cls-5" d="M43.953,18.068a2.467,2.467,0,1,1-2.466,2.468A2.467,2.467,0,0,1,43.953,18.068Z"/><path class="cls-5" d="M50.869,61.971A2.467,2.467,0,1,1,48.4,64.439,2.466,2.466,0,0,1,50.869,61.971Z"/><path class="cls-5" d="M50.869,52.216A2.467,2.467,0,1,1,48.4,54.682,2.465,2.465,0,0,1,50.869,52.216Z"/><path class="cls-5" d="M50.869,42.459A2.467,2.467,0,1,1,48.4,44.927,2.466,2.466,0,0,1,50.869,42.459Z"/><path class="cls-5" d="M50.869,32.7A2.467,2.467,0,1,1,48.4,35.169,2.465,2.465,0,0,1,50.869,32.7Z"/><path class="cls-5" d="M50.869,22.947A2.467,2.467,0,1,1,48.4,25.414,2.466,2.466,0,0,1,50.869,22.947Z"/></g><rect class="cls-6" x="12.737" y="10.862" width="21.351" height="21.454"/><path class="cls-6" d="M34.088,66.471V47.142L12.737,49.376V68.647A70.494,70.494,0,0,1,34.088,66.471Z"/><g class="cls-7"><path class="cls-5" d="M35.547,48.782a2.467,2.467,0,1,1-2.465,2.466A2.467,2.467,0,0,1,35.547,48.782Z"/><path class="cls-5" d="M35.547,39.025a2.467,2.467,0,1,1-2.465,2.467A2.468,2.468,0,0,1,35.547,39.025Z"/><path class="cls-5" d="M35.547,29.269a2.467,2.467,0,1,1-2.465,2.467A2.468,2.468,0,0,1,35.547,29.269Z"/><path class="cls-5" d="M35.547,19.513a2.467,2.467,0,1,1-2.465,2.466A2.468,2.468,0,0,1,35.547,19.513Z"/><path class="cls-5" d="M35.547,9.756a2.467,2.467,0,1,1-2.465,2.468A2.468,2.468,0,0,1,35.547,9.756Z"/><path class="cls-5" d="M35.547,0a2.467,2.467,0,1,1-2.465,2.467A2.468,2.468,0,0,1,35.547,0Z"/><path class="cls-5" d="M42.462,43.9A2.467,2.467,0,1,1,40,46.37,2.468,2.468,0,0,1,42.462,43.9Z"/><path class="cls-5" d="M42.462,34.147A2.467,2.467,0,1,1,40,36.613,2.468,2.468,0,0,1,42.462,34.147Z"/><path class="cls-5" d="M42.462,24.39A2.467,2.467,0,1,1,40,26.857,2.468,2.468,0,0,1,42.462,24.39Z"/><path class="cls-5" d="M42.462,14.635A2.466,2.466,0,1,1,40,17.1,2.468,2.468,0,0,1,42.462,14.635Z"/><path class="cls-5" d="M42.462,4.879A2.467,2.467,0,1,1,40,7.346,2.468,2.468,0,0,1,42.462,4.879Z"/><path class="cls-5" d="M49.377,48.782a2.467,2.467,0,1,1-2.466,2.466A2.467,2.467,0,0,1,49.377,48.782Z"/><path class="cls-5" d="M49.377,39.025a2.467,2.467,0,1,1-2.466,2.467A2.467,2.467,0,0,1,49.377,39.025Z"/><path class="cls-5" d="M49.377,29.269a2.467,2.467,0,1,1-2.466,2.467A2.467,2.467,0,0,1,49.377,29.269Z"/><path class="cls-5" d="M49.377,19.513a2.467,2.467,0,1,1-2.466,2.466A2.467,2.467,0,0,1,49.377,19.513Z"/><path class="cls-5" d="M49.377,9.756a2.467,2.467,0,1,1-2.466,2.468A2.468,2.468,0,0,1,49.377,9.756Z"/><path class="cls-5" d="M49.377,0a2.467,2.467,0,1,1-2.466,2.467A2.467,2.467,0,0,1,49.377,0Z"/><path class="cls-5" d="M56.292,43.9a2.467,2.467,0,1,1-2.468,2.467A2.467,2.467,0,0,1,56.292,43.9Z"/><path class="cls-5" d="M56.292,34.147a2.467,2.467,0,1,1-2.468,2.466A2.467,2.467,0,0,1,56.292,34.147Z"/><path class="cls-5" d="M56.292,24.39a2.467,2.467,0,1,1-2.468,2.467A2.468,2.468,0,0,1,56.292,24.39Z"/><path class="cls-5" d="M56.292,14.635A2.466,2.466,0,1,1,53.824,17.1,2.467,2.467,0,0,1,56.292,14.635Z"/><path class="cls-5" d="M56.292,4.879a2.467,2.467,0,1,1-2.468,2.467A2.467,2.467,0,0,1,56.292,4.879Z"/><path class="cls-5" d="M63.206,48.782a2.467,2.467,0,1,1-2.466,2.466A2.467,2.467,0,0,1,63.206,48.782Z"/><path class="cls-5" d="M63.206,39.025a2.467,2.467,0,1,1-2.466,2.467A2.468,2.468,0,0,1,63.206,39.025Z"/><path class="cls-5" d="M63.206,29.269a2.467,2.467,0,1,1-2.466,2.467A2.468,2.468,0,0,1,63.206,29.269Z"/><path class="cls-5" d="M63.206,19.513a2.467,2.467,0,1,1-2.466,2.466A2.468,2.468,0,0,1,63.206,19.513Z"/><path class="cls-5" d="M63.206,9.756a2.467,2.467,0,1,1-2.466,2.468A2.468,2.468,0,0,1,63.206,9.756Z"/><path class="cls-5" d="M63.206,0A2.467,2.467,0,1,1,60.74,2.467,2.468,2.468,0,0,1,63.206,0Z"/><path class="cls-5" d="M70.121,43.9a2.467,2.467,0,1,1-2.466,2.467A2.467,2.467,0,0,1,70.121,43.9Z"/><path class="cls-5" d="M70.121,34.147a2.467,2.467,0,1,1-2.466,2.466A2.467,2.467,0,0,1,70.121,34.147Z"/><path class="cls-5" d="M70.121,24.39a2.467,2.467,0,1,1-2.466,2.467A2.468,2.468,0,0,1,70.121,24.39Z"/><path class="cls-5" d="M70.121,14.635A2.466,2.466,0,1,1,67.655,17.1,2.467,2.467,0,0,1,70.121,14.635Z"/><path class="cls-5" d="M70.121,4.879a2.467,2.467,0,1,1-2.466,2.467A2.467,2.467,0,0,1,70.121,4.879Z"/><path class="cls-5" d="M77.036,48.782a2.467,2.467,0,1,1-2.466,2.466A2.466,2.466,0,0,1,77.036,48.782Z"/><path class="cls-5" d="M77.036,39.025a2.467,2.467,0,1,1-2.466,2.467A2.467,2.467,0,0,1,77.036,39.025Z"/><path class="cls-5" d="M77.036,29.269a2.467,2.467,0,1,1-2.466,2.467A2.467,2.467,0,0,1,77.036,29.269Z"/><path class="cls-5" d="M77.036,19.513a2.467,2.467,0,1,1-2.466,2.466A2.467,2.467,0,0,1,77.036,19.513Z"/><path class="cls-5" d="M77.036,9.756a2.467,2.467,0,1,1-2.466,2.468A2.467,2.467,0,0,1,77.036,9.756Z"/><path class="cls-5" d="M77.036,0A2.467,2.467,0,1,1,74.57,2.467,2.467,2.467,0,0,1,77.036,0Z"/><path class="cls-5" d="M83.951,43.9a2.467,2.467,0,1,1-2.467,2.467A2.466,2.466,0,0,1,83.951,43.9Z"/><path class="cls-5" d="M83.951,34.147a2.467,2.467,0,1,1-2.467,2.466A2.467,2.467,0,0,1,83.951,34.147Z"/><path class="cls-5" d="M83.951,24.39a2.467,2.467,0,1,1-2.467,2.467A2.467,2.467,0,0,1,83.951,24.39Z"/><path class="cls-5" d="M83.951,14.635A2.466,2.466,0,1,1,81.484,17.1,2.466,2.466,0,0,1,83.951,14.635Z"/><path class="cls-5" d="M83.951,4.879a2.467,2.467,0,1,1-2.467,2.467A2.466,2.466,0,0,1,83.951,4.879Z"/><path class="cls-5" d="M91.862,49a2.422,2.422,0,0,0-1-.215,2.467,2.467,0,1,0,1,4.718Z"/><path class="cls-5" d="M91.862,39.24a2.466,2.466,0,1,0,0,4.5Z"/><path class="cls-5" d="M91.862,29.484a2.466,2.466,0,1,0,0,4.5Z"/><path class="cls-5" d="M91.862,19.727a2.438,2.438,0,0,0-1-.214,2.467,2.467,0,1,0,1,4.719Z"/><path class="cls-5" d="M91.862,9.971a2.438,2.438,0,0,0-1-.215,2.467,2.467,0,1,0,1,4.719Z"/><path class="cls-5" d="M91.862.215a2.438,2.438,0,0,0-1-.215,2.467,2.467,0,1,0,1,4.719Z"/></g><g class="cls-8"><rect class="cls-9" x="46.836" y="39.754" width="3.708" height="83.016"/><rect class="cls-9" x="39.575" y="39.754" width="3.708" height="83.016"/><rect class="cls-9" x="25.052" y="39.754" width="3.71" height="83.016"/><rect class="cls-9" x="17.791" y="39.754" width="3.709" height="83.016"/><rect class="cls-9" x="10.53" y="39.754" width="3.709" height="83.016"/><rect class="cls-9" x="3.27" y="39.754" width="3.708" height="83.016"/><rect class="cls-9" x="83.142" y="39.754" width="3.709" height="83.016"/><rect class="cls-9" x="75.88" y="39.754" width="3.709" height="83.016"/><rect class="cls-9" x="68.62" y="39.754" width="3.707" height="83.016"/><rect class="cls-9" x="61.358" y="39.754" width="3.708" height="83.016"/><rect class="cls-9" x="54.098" y="39.754" width="3.709" height="83.016"/><rect class="cls-9" x="32.312" y="39.754" width="3.709" height="83.016"/></g></g></g></svg>