<svg xmlns="http://www.w3.org/2000/svg" xmlns:xlink="http://www.w3.org/1999/xlink" viewBox="0 0 110.382 130.78"><defs><style>.cls-1{fill:none;}.cls-2{fill:#6ce5c8;}.cls-3{fill:#ff5cdc;}.cls-4{fill:#9639d8;}.cls-5{clip-path:url(#clip-path);}.cls-6{fill:#e834c6;}.cls-7{clip-path:url(#clip-path-2);}.cls-8{fill:#37bf9b;}</style><clipPath id="clip-path"><polygon class="cls-1" points="10.547 20.024 10.547 42.502 61.711 42.502 72.107 20.024 10.547 20.024"/></clipPath><clipPath id="clip-path-2"><polygon class="cls-1" points="21.345 130.78 49.521 130.78 89.036 42.502 62.177 42.502 21.345 130.78"/></clipPath></defs><title>Asset 10</title><g id="Layer_2" data-name="Layer 2"><g id="OBJECTS"><polygon class="cls-2" points="21.345 130.78 49.521 130.78 89.036 42.502 62.177 42.502 21.345 130.78"/><polygon class="cls-3" points="10.547 20.024 10.547 42.502 61.711 42.502 72.107 20.024 10.547 20.024"/><polygon class="cls-4" points="89.036 42.502 99.099 20.024 72.107 20.024 61.711 42.502 62.177 42.502 89.036 42.502"/><g class="cls-5"><path class="cls-6" d="M107.511,5.742a2.871,2.871,0,1,1,2.871-2.871A2.872,2.872,0,0,1,107.511,5.742Z"/><path class="cls-6" d="M107.511,17.1a2.872,2.872,0,1,1,2.871-2.872A2.872,2.872,0,0,1,107.511,17.1Z"/><path class="cls-6" d="M107.511,28.456a2.872,2.872,0,1,1,2.871-2.871A2.872,2.872,0,0,1,107.511,28.456Z"/><path class="cls-6" d="M107.511,39.813a2.872,2.872,0,1,1,2.871-2.871A2.873,2.873,0,0,1,107.511,39.813Z"/><path class="cls-6" d="M107.511,51.17a2.871,2.871,0,1,1,2.871-2.872A2.872,2.872,0,0,1,107.511,51.17Z"/><path class="cls-6" d="M107.511,62.526a2.871,2.871,0,1,1,2.871-2.871A2.872,2.872,0,0,1,107.511,62.526Z"/><path class="cls-6" d="M99.462,11.421a2.872,2.872,0,1,1,2.87-2.87A2.87,2.87,0,0,1,99.462,11.421Z"/><path class="cls-6" d="M99.462,22.777a2.871,2.871,0,1,1,2.87-2.87A2.871,2.871,0,0,1,99.462,22.777Z"/><path class="cls-6" d="M99.462,34.136a2.872,2.872,0,1,1,2.87-2.872A2.871,2.871,0,0,1,99.462,34.136Z"/><path class="cls-6" d="M99.462,45.491a2.871,2.871,0,1,1,2.87-2.87A2.871,2.871,0,0,1,99.462,45.491Z"/><path class="cls-6" d="M99.462,56.848a2.872,2.872,0,1,1,2.87-2.872A2.871,2.871,0,0,1,99.462,56.848Z"/><circle class="cls-6" cx="91.412" cy="2.871" r="2.871" transform="matrix(0.001, -1, 1, 0.001, 88.441, 94.28)"/><circle class="cls-6" cx="91.412" cy="14.227" r="2.871" transform="translate(77.085 105.624) rotate(-89.937)"/><path class="cls-6" d="M91.412,28.456a2.872,2.872,0,1,1,2.87-2.871A2.871,2.871,0,0,1,91.412,28.456Z"/><path class="cls-6" d="M91.412,39.813a2.872,2.872,0,1,1,2.87-2.871A2.872,2.872,0,0,1,91.412,39.813Z"/><path class="cls-6" d="M91.412,51.17a2.871,2.871,0,1,1,2.87-2.872A2.871,2.871,0,0,1,91.412,51.17Z"/><path class="cls-6" d="M91.412,62.526a2.871,2.871,0,1,1,2.87-2.871A2.871,2.871,0,0,1,91.412,62.526Z"/><path class="cls-6" d="M83.363,11.421a2.872,2.872,0,1,1,2.872-2.87A2.87,2.87,0,0,1,83.363,11.421Z"/><path class="cls-6" d="M83.363,22.777a2.871,2.871,0,1,1,2.872-2.87A2.87,2.87,0,0,1,83.363,22.777Z"/><path class="cls-6" d="M83.363,34.136a2.872,2.872,0,1,1,2.872-2.872A2.871,2.871,0,0,1,83.363,34.136Z"/><path class="cls-6" d="M83.363,45.491a2.871,2.871,0,1,1,2.872-2.87A2.87,2.87,0,0,1,83.363,45.491Z"/><path class="cls-6" d="M83.363,56.848a2.872,2.872,0,1,1,2.872-2.872A2.87,2.87,0,0,1,83.363,56.848Z"/><path class="cls-6" d="M75.315,5.742a2.871,2.871,0,1,1,2.87-2.871A2.872,2.872,0,0,1,75.315,5.742Z"/><path class="cls-6" d="M75.315,17.1a2.872,2.872,0,1,1,2.87-2.872A2.871,2.871,0,0,1,75.315,17.1Z"/><path class="cls-6" d="M75.315,28.456a2.872,2.872,0,1,1,2.87-2.871A2.872,2.872,0,0,1,75.315,28.456Z"/><path class="cls-6" d="M75.315,39.813a2.872,2.872,0,1,1,2.87-2.871A2.872,2.872,0,0,1,75.315,39.813Z"/><path class="cls-6" d="M75.315,51.17a2.871,2.871,0,1,1,2.87-2.872A2.872,2.872,0,0,1,75.315,51.17Z"/><path class="cls-6" d="M75.315,62.526a2.871,2.871,0,1,1,2.87-2.871A2.872,2.872,0,0,1,75.315,62.526Z"/><path class="cls-6" d="M67.266,11.421a2.872,2.872,0,1,1,2.87-2.87A2.871,2.871,0,0,1,67.266,11.421Z"/><path class="cls-6" d="M67.266,22.777a2.871,2.871,0,1,1,2.87-2.87A2.871,2.871,0,0,1,67.266,22.777Z"/><path class="cls-6" d="M67.266,34.136a2.872,2.872,0,1,1,2.87-2.872A2.872,2.872,0,0,1,67.266,34.136Z"/><path class="cls-6" d="M67.266,45.491a2.871,2.871,0,1,1,2.87-2.87A2.871,2.871,0,0,1,67.266,45.491Z"/><path class="cls-6" d="M67.266,56.848a2.872,2.872,0,1,1,2.87-2.872A2.871,2.871,0,0,1,67.266,56.848Z"/><path class="cls-6" d="M59.217,5.742a2.871,2.871,0,1,1,2.87-2.871A2.871,2.871,0,0,1,59.217,5.742Z"/><path class="cls-6" d="M59.217,17.1a2.872,2.872,0,1,1,2.87-2.872A2.871,2.871,0,0,1,59.217,17.1Z"/><path class="cls-6" d="M59.217,28.456a2.872,2.872,0,1,1,2.87-2.871A2.871,2.871,0,0,1,59.217,28.456Z"/><path class="cls-6" d="M59.217,39.813a2.872,2.872,0,1,1,2.87-2.871A2.872,2.872,0,0,1,59.217,39.813Z"/><path class="cls-6" d="M59.217,51.17a2.871,2.871,0,1,1,2.87-2.872A2.872,2.872,0,0,1,59.217,51.17Z"/><path class="cls-6" d="M59.217,62.526a2.871,2.871,0,1,1,2.87-2.871A2.871,2.871,0,0,1,59.217,62.526Z"/><path class="cls-6" d="M51.166,11.421a2.872,2.872,0,1,1,2.871-2.87A2.87,2.87,0,0,1,51.166,11.421Z"/><path class="cls-6" d="M51.166,22.777a2.871,2.871,0,1,1,2.871-2.87A2.871,2.871,0,0,1,51.166,22.777Z"/><path class="cls-6" d="M51.166,34.136a2.872,2.872,0,1,1,2.871-2.872A2.871,2.871,0,0,1,51.166,34.136Z"/><path class="cls-6" d="M51.166,45.491a2.871,2.871,0,1,1,2.871-2.87A2.871,2.871,0,0,1,51.166,45.491Z"/><path class="cls-6" d="M51.166,56.848a2.872,2.872,0,1,1,2.871-2.872A2.871,2.871,0,0,1,51.166,56.848Z"/><path class="cls-6" d="M43.117,5.742a2.871,2.871,0,1,1,2.871-2.871A2.871,2.871,0,0,1,43.117,5.742Z"/><path class="cls-6" d="M43.117,17.1a2.872,2.872,0,1,1,2.871-2.872A2.871,2.871,0,0,1,43.117,17.1Z"/><path class="cls-6" d="M43.117,28.456a2.872,2.872,0,1,1,2.871-2.871A2.871,2.871,0,0,1,43.117,28.456Z"/><path class="cls-6" d="M43.117,39.813a2.872,2.872,0,1,1,2.871-2.871A2.872,2.872,0,0,1,43.117,39.813Z"/><path class="cls-6" d="M43.117,51.17A2.871,2.871,0,1,1,45.988,48.3,2.871,2.871,0,0,1,43.117,51.17Z"/><path class="cls-6" d="M43.117,62.526a2.871,2.871,0,1,1,2.871-2.871A2.871,2.871,0,0,1,43.117,62.526Z"/><path class="cls-6" d="M35.067,11.421a2.872,2.872,0,1,1,2.872-2.87A2.87,2.87,0,0,1,35.067,11.421Z"/><path class="cls-6" d="M35.067,22.777a2.871,2.871,0,1,1,2.872-2.87A2.871,2.871,0,0,1,35.067,22.777Z"/><path class="cls-6" d="M35.067,34.136a2.872,2.872,0,1,1,2.872-2.872A2.871,2.871,0,0,1,35.067,34.136Z"/><path class="cls-6" d="M35.067,45.491a2.871,2.871,0,1,1,2.872-2.87A2.871,2.871,0,0,1,35.067,45.491Z"/><path class="cls-6" d="M35.067,56.848a2.872,2.872,0,1,1,2.872-2.872A2.871,2.871,0,0,1,35.067,56.848Z"/><path class="cls-6" d="M27.019,5.742a2.871,2.871,0,1,1,2.87-2.871A2.872,2.872,0,0,1,27.019,5.742Z"/><path class="cls-6" d="M27.019,17.1a2.872,2.872,0,1,1,2.87-2.872A2.871,2.871,0,0,1,27.019,17.1Z"/><path class="cls-6" d="M27.019,28.456a2.872,2.872,0,1,1,2.87-2.871A2.872,2.872,0,0,1,27.019,28.456Z"/><path class="cls-6" d="M27.019,39.813a2.872,2.872,0,1,1,2.87-2.871A2.872,2.872,0,0,1,27.019,39.813Z"/><path class="cls-6" d="M27.019,51.17a2.871,2.871,0,1,1,2.87-2.872A2.872,2.872,0,0,1,27.019,51.17Z"/><path class="cls-6" d="M27.019,62.526a2.871,2.871,0,1,1,2.87-2.871A2.872,2.872,0,0,1,27.019,62.526Z"/><path class="cls-6" d="M18.97,11.421a2.872,2.872,0,1,1,2.872-2.87A2.871,2.871,0,0,1,18.97,11.421Z"/><path class="cls-6" d="M18.97,22.777a2.871,2.871,0,1,1,2.872-2.87A2.871,2.871,0,0,1,18.97,22.777Z"/><path class="cls-6" d="M18.97,34.136a2.872,2.872,0,1,1,2.872-2.872A2.872,2.872,0,0,1,18.97,34.136Z"/><path class="cls-6" d="M18.97,45.491a2.871,2.871,0,1,1,2.872-2.87A2.871,2.871,0,0,1,18.97,45.491Z"/><path class="cls-6" d="M18.97,56.848a2.872,2.872,0,1,1,2.872-2.872A2.871,2.871,0,0,1,18.97,56.848Z"/><path class="cls-6" d="M10.92,5.742a2.871,2.871,0,1,1,2.873-2.871A2.872,2.872,0,0,1,10.92,5.742Z"/><path class="cls-6" d="M10.92,17.1a2.872,2.872,0,1,1,2.873-2.872A2.871,2.871,0,0,1,10.92,17.1Z"/><path class="cls-6" d="M10.92,28.456a2.872,2.872,0,1,1,2.873-2.871A2.872,2.872,0,0,1,10.92,28.456Z"/><path class="cls-6" d="M10.92,39.813a2.872,2.872,0,1,1,2.873-2.871A2.872,2.872,0,0,1,10.92,39.813Z"/><path class="cls-6" d="M10.92,51.17A2.871,2.871,0,1,1,13.793,48.3,2.872,2.872,0,0,1,10.92,51.17Z"/><path class="cls-6" d="M10.92,62.526a2.871,2.871,0,1,1,2.873-2.871A2.872,2.872,0,0,1,10.92,62.526Z"/><path class="cls-6" d="M2.872,11.421a2.872,2.872,0,1,1,2.871-2.87A2.872,2.872,0,0,1,2.872,11.421Z"/><path class="cls-6" d="M2.872,22.777a2.871,2.871,0,1,1,2.871-2.87A2.872,2.872,0,0,1,2.872,22.777Z"/><path class="cls-6" d="M2.872,34.136a2.872,2.872,0,1,1,2.871-2.872A2.873,2.873,0,0,1,2.872,34.136Z"/><path class="cls-6" d="M2.872,45.491a2.871,2.871,0,1,1,2.871-2.87A2.872,2.872,0,0,1,2.872,45.491Z"/><path class="cls-6" d="M2.872,56.848a2.872,2.872,0,1,1,2.871-2.872A2.872,2.872,0,0,1,2.872,56.848Z"/></g><g class="cls-7"><rect class="cls-8" x="72.013" y="33.599" width="4.316" height="96.635"/><rect class="cls-8" x="63.56" y="33.599" width="4.316" height="96.635"/><rect class="cls-8" x="46.654" y="33.599" width="4.317" height="96.635"/><rect class="cls-8" x="38.203" y="33.599" width="4.316" height="96.635"/><rect class="cls-8" x="29.751" y="33.599" width="4.317" height="96.635"/><rect class="cls-8" x="21.298" y="33.599" width="4.317" height="96.635"/><rect class="cls-8" x="80.465" y="33.599" width="4.317" height="96.635"/><rect class="cls-8" x="55.107" y="33.599" width="4.317" height="96.635"/></g></g></g></svg>