<svg xmlns="http://www.w3.org/2000/svg" xmlns:xlink="http://www.w3.org/1999/xlink" viewBox="0 0 120.849 116.7"><defs><style>.cls-1{fill:none;}.cls-2{fill:#6ce5c8;}.cls-3{fill:#ff5cdc;}.cls-4{fill:#9639d8;}.cls-5{clip-path:url(#clip-path);}.cls-6{fill:#37bf9b;}.cls-7{clip-path:url(#clip-path-2);}.cls-8{fill:#e834c6;}</style><clipPath id="clip-path"><path class="cls-1" d="M86.412,49.821s-12.284,9.77-26.471,9.669c8.229.043,14.841,6.092,14.8,14.477a14.874,14.874,0,1,1-29.747-.153c.043-8.385,6.561-14.367,14.949-14.324C45.753,59.391,33.41,49.7,33.41,49.7c-7.628,5.816-11.949,15.444-12,25.411-.11,21.2,18.962,35.541,38.266,35.642,20.093.1,38.528-15.148,38.639-36.667C98.364,64.437,93.983,55.08,86.412,49.821Z"/></clipPath><clipPath id="clip-path-2"><path class="cls-1" d="M59.833,0c-16.612,0-33.7,12.5-33.7,31.012A29.246,29.246,0,0,0,33.253,49.84s9.559-7,26-7.106c0-.014,0-.026,0-.041A10.955,10.955,0,0,1,48.758,31.8a11,11,0,1,1,21.992,0A10.936,10.936,0,0,1,60.7,42.677c0,.022,0,.047,0,.069,16.26.29,25.561,6.939,25.561,6.939a28.648,28.648,0,0,0,7.122-18.832C93.377,12.5,76.445,0,59.833,0Z"/></clipPath></defs><title>Asset 11</title><g id="Layer_2" data-name="Layer 2"><g id="OBJECTS"><path class="cls-1" d="M44.959,73.891a14.874,14.874,0,1,0,29.748,0c0-8.384-6.644-14.4-14.874-14.4C51.445,59.49,44.959,65.507,44.959,73.891Z"/><path class="cls-2" d="M86.412,49.821s-12.284,9.77-26.471,9.669c8.229.043,14.841,6.092,14.8,14.477a14.874,14.874,0,1,1-29.747-.153c.043-8.385,6.561-14.367,14.949-14.324C45.753,59.391,33.41,49.7,33.41,49.7c-7.628,5.816-11.949,15.444-12,25.411-.11,21.2,18.962,35.541,38.266,35.642,20.093.1,38.528-15.148,38.639-36.667C98.364,64.437,93.983,55.08,86.412,49.821Z"/><path class="cls-1" d="M70.75,31.8a11,11,0,1,0-21.992,0,11,11,0,0,0,21.992,0Z"/><path class="cls-3" d="M48.758,31.8a11,11,0,1,1,21.992,0A10.94,10.94,0,0,1,59.833,42.722c16.8.059,26.422,6.963,26.422,6.963a28.648,28.648,0,0,0,7.122-18.832C93.377,12.5,76.445,0,59.833,0s-33.7,12.5-33.7,31.012A29.246,29.246,0,0,0,33.253,49.84s9.777-7.177,26.58-7.118A10.975,10.975,0,0,1,48.758,31.8Z"/><path class="cls-4" d="M86.255,49.685s-9.618-6.9-26.422-6.963-26.58,7.118-26.58,7.118,12.393,9.624,26.58,9.65S86.255,49.685,86.255,49.685Z"/><g class="cls-5"><rect class="cls-6" x="7.815" y="27.349" width="3.992" height="89.351"/><rect class="cls-6" x="15.631" y="27.349" width="3.992" height="89.351"/><rect class="cls-6" x="31.261" y="27.349" width="3.991" height="89.351"/><rect class="cls-6" x="39.076" y="27.349" width="3.991" height="89.351"/><rect class="cls-6" x="46.891" y="27.349" width="3.992" height="89.351"/><rect class="cls-6" x="54.705" y="27.349" width="3.992" height="89.351"/><rect class="cls-6" y="27.349" width="3.991" height="89.351"/><rect class="cls-6" x="23.446" y="27.349" width="3.992" height="89.351"/><rect class="cls-6" x="69.967" y="27.349" width="3.991" height="89.351"/><rect class="cls-6" x="77.782" y="27.349" width="3.992" height="89.351"/><rect class="cls-6" x="93.412" y="27.349" width="3.992" height="89.351"/><rect class="cls-6" x="101.228" y="27.349" width="3.992" height="89.351"/><rect class="cls-6" x="109.043" y="27.349" width="3.992" height="89.351"/><rect class="cls-6" x="116.857" y="27.349" width="3.991" height="89.351"/><rect class="cls-6" x="62.151" y="27.349" width="3.991" height="89.351"/><rect class="cls-6" x="85.598" y="27.349" width="3.992" height="89.351"/></g><g class="cls-7"><path class="cls-8" d="M19.49,52.5a2.655,2.655,0,1,1-2.654,2.655A2.656,2.656,0,0,1,19.49,52.5Z"/><path class="cls-8" d="M19.49,42a2.655,2.655,0,1,1-2.654,2.655A2.656,2.656,0,0,1,19.49,42Z"/><path class="cls-8" d="M19.49,31.5a2.655,2.655,0,1,1-2.654,2.656A2.657,2.657,0,0,1,19.49,31.5Z"/><path class="cls-8" d="M19.49,21a2.655,2.655,0,1,1-2.654,2.653A2.655,2.655,0,0,1,19.49,21Z"/><path class="cls-8" d="M19.49,10.5a2.655,2.655,0,1,1-2.654,2.655A2.656,2.656,0,0,1,19.49,10.5Z"/><path class="cls-8" d="M19.49,0a2.655,2.655,0,1,1-2.654,2.656A2.657,2.657,0,0,1,19.49,0Z"/><path class="cls-8" d="M26.933,47.253a2.655,2.655,0,1,1-2.654,2.656A2.656,2.656,0,0,1,26.933,47.253Z"/><path class="cls-8" d="M26.933,36.753a2.655,2.655,0,1,1-2.654,2.655A2.655,2.655,0,0,1,26.933,36.753Z"/><path class="cls-8" d="M26.933,26.252a2.655,2.655,0,1,1-2.654,2.655A2.655,2.655,0,0,1,26.933,26.252Z"/><path class="cls-8" d="M26.933,15.751a2.655,2.655,0,1,1-2.654,2.656A2.656,2.656,0,0,1,26.933,15.751Z"/><path class="cls-8" d="M26.933,5.251a2.655,2.655,0,1,1-2.654,2.655A2.655,2.655,0,0,1,26.933,5.251Z"/><path class="cls-8" d="M34.375,52.5a2.655,2.655,0,1,1-2.653,2.655A2.655,2.655,0,0,1,34.375,52.5Z"/><path class="cls-8" d="M34.375,42a2.655,2.655,0,1,1-2.653,2.655A2.655,2.655,0,0,1,34.375,42Z"/><path class="cls-8" d="M34.375,31.5a2.655,2.655,0,1,1-2.653,2.656A2.655,2.655,0,0,1,34.375,31.5Z"/><path class="cls-8" d="M34.375,21a2.655,2.655,0,1,1-2.653,2.653A2.654,2.654,0,0,1,34.375,21Z"/><path class="cls-8" d="M34.375,10.5a2.655,2.655,0,1,1-2.653,2.655A2.655,2.655,0,0,1,34.375,10.5Z"/><path class="cls-8" d="M34.375,0a2.655,2.655,0,1,1-2.653,2.656A2.656,2.656,0,0,1,34.375,0Z"/><path class="cls-8" d="M41.816,47.253a2.655,2.655,0,1,1-2.654,2.656A2.655,2.655,0,0,1,41.816,47.253Z"/><path class="cls-8" d="M41.816,36.753a2.655,2.655,0,1,1-2.654,2.655A2.655,2.655,0,0,1,41.816,36.753Z"/><path class="cls-8" d="M41.816,26.252a2.655,2.655,0,1,1-2.654,2.655A2.655,2.655,0,0,1,41.816,26.252Z"/><path class="cls-8" d="M41.816,15.751a2.655,2.655,0,1,1-2.654,2.656A2.655,2.655,0,0,1,41.816,15.751Z"/><path class="cls-8" d="M41.816,5.251a2.655,2.655,0,1,1-2.654,2.655A2.655,2.655,0,0,1,41.816,5.251Z"/><path class="cls-8" d="M49.259,52.5a2.655,2.655,0,1,1-2.653,2.655A2.654,2.654,0,0,1,49.259,52.5Z"/><path class="cls-8" d="M49.259,42a2.655,2.655,0,1,1-2.653,2.655A2.654,2.654,0,0,1,49.259,42Z"/><path class="cls-8" d="M49.259,31.5a2.655,2.655,0,1,1-2.653,2.656A2.655,2.655,0,0,1,49.259,31.5Z"/><path class="cls-8" d="M49.259,21a2.655,2.655,0,1,1-2.653,2.653A2.653,2.653,0,0,1,49.259,21Z"/><path class="cls-8" d="M49.259,10.5a2.655,2.655,0,1,1-2.653,2.655A2.654,2.654,0,0,1,49.259,10.5Z"/><path class="cls-8" d="M49.259,0a2.655,2.655,0,1,1-2.653,2.656A2.655,2.655,0,0,1,49.259,0Z"/><path class="cls-8" d="M56.7,47.253a2.655,2.655,0,1,1-2.653,2.656A2.655,2.655,0,0,1,56.7,47.253Z"/><path class="cls-8" d="M56.7,36.753a2.655,2.655,0,1,1-2.653,2.655A2.654,2.654,0,0,1,56.7,36.753Z"/><path class="cls-8" d="M56.7,26.252a2.655,2.655,0,1,1-2.653,2.655A2.654,2.654,0,0,1,56.7,26.252Z"/><path class="cls-8" d="M56.7,15.751a2.655,2.655,0,1,1-2.653,2.656A2.655,2.655,0,0,1,56.7,15.751Z"/><path class="cls-8" d="M56.7,5.251a2.655,2.655,0,1,1-2.653,2.655A2.655,2.655,0,0,1,56.7,5.251Z"/><path class="cls-8" d="M64.145,52.5a2.655,2.655,0,1,1-2.655,2.655A2.653,2.653,0,0,1,64.145,52.5Z"/><path class="cls-8" d="M64.145,42a2.655,2.655,0,1,1-2.655,2.655A2.653,2.653,0,0,1,64.145,42Z"/><path class="cls-8" d="M64.145,31.5a2.655,2.655,0,1,1-2.655,2.656A2.654,2.654,0,0,1,64.145,31.5Z"/><path class="cls-8" d="M64.145,21a2.655,2.655,0,1,1-2.655,2.653A2.653,2.653,0,0,1,64.145,21Z"/><path class="cls-8" d="M64.145,10.5a2.655,2.655,0,1,1-2.655,2.655A2.654,2.654,0,0,1,64.145,10.5Z"/><path class="cls-8" d="M64.145,0A2.655,2.655,0,1,1,61.49,2.656,2.655,2.655,0,0,1,64.145,0Z"/><path class="cls-8" d="M71.588,47.253a2.655,2.655,0,1,1-2.656,2.656A2.654,2.654,0,0,1,71.588,47.253Z"/><path class="cls-8" d="M71.588,36.753a2.655,2.655,0,1,1-2.656,2.655A2.653,2.653,0,0,1,71.588,36.753Z"/><path class="cls-8" d="M71.588,26.252a2.655,2.655,0,1,1-2.656,2.655A2.653,2.653,0,0,1,71.588,26.252Z"/><path class="cls-8" d="M71.588,15.751a2.655,2.655,0,1,1-2.656,2.656A2.654,2.654,0,0,1,71.588,15.751Z"/><path class="cls-8" d="M71.588,5.251a2.655,2.655,0,1,1-2.656,2.655A2.654,2.654,0,0,1,71.588,5.251Z"/><path class="cls-8" d="M79.03,52.5a2.655,2.655,0,1,1-2.656,2.655A2.654,2.654,0,0,1,79.03,52.5Z"/><path class="cls-8" d="M79.03,42a2.655,2.655,0,1,1-2.656,2.655A2.654,2.654,0,0,1,79.03,42Z"/><path class="cls-8" d="M79.03,31.5a2.655,2.655,0,1,1-2.656,2.656A2.655,2.655,0,0,1,79.03,31.5Z"/><path class="cls-8" d="M79.03,21a2.655,2.655,0,1,1-2.656,2.653A2.653,2.653,0,0,1,79.03,21Z"/><path class="cls-8" d="M79.03,10.5a2.655,2.655,0,1,1-2.656,2.655A2.655,2.655,0,0,1,79.03,10.5Z"/><path class="cls-8" d="M79.03,0a2.655,2.655,0,1,1-2.656,2.656A2.655,2.655,0,0,1,79.03,0Z"/><path class="cls-8" d="M86.473,47.253a2.655,2.655,0,1,1-2.657,2.656A2.654,2.654,0,0,1,86.473,47.253Z"/><path class="cls-8" d="M86.473,36.753a2.655,2.655,0,1,1-2.657,2.655A2.653,2.653,0,0,1,86.473,36.753Z"/><path class="cls-8" d="M86.473,26.252a2.655,2.655,0,1,1-2.657,2.655A2.653,2.653,0,0,1,86.473,26.252Z"/><path class="cls-8" d="M86.473,15.751a2.655,2.655,0,1,1-2.657,2.656A2.654,2.654,0,0,1,86.473,15.751Z"/><path class="cls-8" d="M86.473,5.251a2.655,2.655,0,1,1-2.657,2.655A2.654,2.654,0,0,1,86.473,5.251Z"/><path class="cls-8" d="M93.915,52.5a2.655,2.655,0,1,1-2.654,2.655A2.654,2.654,0,0,1,93.915,52.5Z"/><path class="cls-8" d="M93.915,42a2.655,2.655,0,1,1-2.654,2.655A2.654,2.654,0,0,1,93.915,42Z"/><path class="cls-8" d="M93.915,31.5a2.655,2.655,0,1,1-2.654,2.656A2.655,2.655,0,0,1,93.915,31.5Z"/><path class="cls-8" d="M93.915,21a2.655,2.655,0,1,1-2.654,2.653A2.653,2.653,0,0,1,93.915,21Z"/><path class="cls-8" d="M93.915,10.5a2.655,2.655,0,1,1-2.654,2.655A2.654,2.654,0,0,1,93.915,10.5Z"/><path class="cls-8" d="M93.915,0a2.655,2.655,0,1,1-2.654,2.656A2.655,2.655,0,0,1,93.915,0Z"/><path class="cls-8" d="M101.357,47.253A2.655,2.655,0,1,1,98.7,49.909,2.655,2.655,0,0,1,101.357,47.253Z"/><path class="cls-8" d="M101.357,36.753A2.655,2.655,0,1,1,98.7,39.408,2.654,2.654,0,0,1,101.357,36.753Z"/><path class="cls-8" d="M101.357,26.252A2.655,2.655,0,1,1,98.7,28.907,2.654,2.654,0,0,1,101.357,26.252Z"/><path class="cls-8" d="M101.357,15.751A2.655,2.655,0,1,1,98.7,18.407,2.655,2.655,0,0,1,101.357,15.751Z"/><path class="cls-8" d="M101.357,5.251A2.655,2.655,0,1,1,98.7,7.906,2.655,2.655,0,0,1,101.357,5.251Z"/><path class="cls-8" d="M108.8,52.5a2.655,2.655,0,1,1-2.656,2.655A2.654,2.654,0,0,1,108.8,52.5Z"/><path class="cls-8" d="M108.8,42a2.655,2.655,0,1,1-2.656,2.655A2.654,2.654,0,0,1,108.8,42Z"/><path class="cls-8" d="M108.8,31.5a2.655,2.655,0,1,1-2.656,2.656A2.655,2.655,0,0,1,108.8,31.5Z"/><path class="cls-8" d="M108.8,21a2.655,2.655,0,1,1-2.656,2.653A2.653,2.653,0,0,1,108.8,21Z"/><path class="cls-8" d="M108.8,10.5a2.655,2.655,0,1,1-2.656,2.655A2.654,2.654,0,0,1,108.8,10.5Z"/><path class="cls-8" d="M108.8,0a2.655,2.655,0,1,1-2.656,2.656A2.655,2.655,0,0,1,108.8,0Z"/><path class="cls-8" d="M116.241,47.253a2.655,2.655,0,1,1-2.655,2.656A2.656,2.656,0,0,1,116.241,47.253Z"/><path class="cls-8" d="M116.241,36.753a2.655,2.655,0,1,1-2.655,2.655A2.656,2.656,0,0,1,116.241,36.753Z"/><path class="cls-8" d="M116.241,26.252a2.655,2.655,0,1,1-2.655,2.655A2.656,2.656,0,0,1,116.241,26.252Z"/><path class="cls-8" d="M116.241,15.751a2.655,2.655,0,1,1-2.655,2.656A2.656,2.656,0,0,1,116.241,15.751Z"/><path class="cls-8" d="M116.241,5.251a2.655,2.655,0,1,1-2.655,2.655A2.656,2.656,0,0,1,116.241,5.251Z"/></g></g></g></svg>