<svg xmlns="http://www.w3.org/2000/svg" xmlns:xlink="http://www.w3.org/1999/xlink" viewBox="0 0 104.788 125.588"><defs><style>.cls-1{fill:none;}.cls-2{fill:#ff5cdc;}.cls-3{fill:#9639d8;}.cls-4{fill:#6ce5c8;}.cls-5{clip-path:url(#clip-path);}.cls-6{fill:#37bf9b;}.cls-7{clip-path:url(#clip-path-2);}.cls-8{fill:#e834c6;}</style><clipPath id="clip-path"><path class="cls-1" d="M49.494,76.142l-25.2,34.671H52.386L85.932,63.779a53.522,53.522,0,0,0,8.011-15.318C84.336,73.2,62.576,75.641,49.494,76.142Z"/></clipPath><clipPath id="clip-path-2"><path class="cls-1" d="M49.494,76.142,68,48.435A16.3,16.3,0,0,1,55.6,53.988a15.967,15.967,0,0,1-16.213-15.73A15.969,15.969,0,0,1,55.6,22.527,15.868,15.868,0,0,1,71.808,38.258a15.452,15.452,0,0,1-1.666,6.974L89,17C81.842,6.633,69.528.057,55.6.057c-21.349,0-39.809,16.371-39.809,38.2A38.157,38.157,0,0,0,49.494,76.142Z"/></clipPath></defs><title>Asset 12</title><g id="Layer_2" data-name="Layer 2"><g id="OBJECTS"><path class="cls-1" d="M71.808,38.258A15.868,15.868,0,0,0,55.6,22.527,15.969,15.969,0,0,0,39.382,38.258,15.967,15.967,0,0,0,55.6,53.988,16.3,16.3,0,0,0,68,48.435l2.139-3.2A15.452,15.452,0,0,0,71.808,38.258Z"/><path class="cls-2" d="M49.494,76.142,68,48.435A16.3,16.3,0,0,1,55.6,53.988a15.967,15.967,0,0,1-16.213-15.73A15.969,15.969,0,0,1,55.6,22.527,15.868,15.868,0,0,1,71.808,38.258a15.452,15.452,0,0,1-1.666,6.974L89,17C81.842,6.633,69.528.057,55.6.057c-21.349,0-39.809,16.371-39.809,38.2A38.157,38.157,0,0,0,49.494,76.142Z"/><path class="cls-3" d="M68,48.435a15.5,15.5,0,0,0,2.139-3.2Z"/><path class="cls-3" d="M68,48.435,49.494,76.142c13.082-.5,34.842-2.945,44.449-27.681a34.276,34.276,0,0,0,1.621-10.2A37.1,37.1,0,0,0,89,17L70.142,45.232A15.5,15.5,0,0,1,68,48.435Z"/><path class="cls-4" d="M49.494,76.142l-25.2,34.671H52.386L85.932,63.779a53.522,53.522,0,0,0,8.011-15.318C84.336,73.2,62.576,75.641,49.494,76.142Z"/><g class="cls-5"><rect class="cls-6" x="30.316" y="40.165" width="3.816" height="85.423"/><rect class="cls-6" x="37.789" y="40.165" width="3.816" height="85.423"/><rect class="cls-6" x="52.731" y="40.165" width="3.816" height="85.423"/><rect class="cls-6" x="60.203" y="40.165" width="3.816" height="85.423"/><rect class="cls-6" x="67.675" y="40.165" width="3.816" height="85.423"/><rect class="cls-6" x="75.145" y="40.165" width="3.816" height="85.423"/><rect class="cls-6" x="22.845" y="40.165" width="3.816" height="85.423"/><rect class="cls-6" x="45.261" y="40.165" width="3.816" height="85.423"/></g><g class="cls-7"><path class="cls-8" d="M2.538,70.875A2.538,2.538,0,1,1,0,73.414,2.539,2.539,0,0,1,2.538,70.875Z"/><path class="cls-8" d="M2.538,60.836A2.538,2.538,0,1,1,0,63.375,2.539,2.539,0,0,1,2.538,60.836Z"/><path class="cls-8" d="M2.538,50.8A2.538,2.538,0,1,1,0,53.336,2.539,2.539,0,0,1,2.538,50.8Z"/><path class="cls-8" d="M2.538,40.758A2.538,2.538,0,1,1,0,43.3,2.539,2.539,0,0,1,2.538,40.758Z"/><path class="cls-8" d="M2.538,30.719A2.538,2.538,0,1,1,0,33.258,2.539,2.539,0,0,1,2.538,30.719Z"/><path class="cls-8" d="M2.538,20.68A2.538,2.538,0,1,1,0,23.219,2.539,2.539,0,0,1,2.538,20.68Z"/><path class="cls-8" d="M9.653,65.855a2.539,2.539,0,1,1-2.537,2.539A2.538,2.538,0,0,1,9.653,65.855Z"/><path class="cls-8" d="M9.653,55.816a2.538,2.538,0,1,1-2.537,2.538A2.538,2.538,0,0,1,9.653,55.816Z"/><path class="cls-8" d="M9.653,45.777a2.538,2.538,0,1,1-2.537,2.538A2.538,2.538,0,0,1,9.653,45.777Z"/><path class="cls-8" d="M9.653,35.738a2.538,2.538,0,1,1-2.537,2.538A2.538,2.538,0,0,1,9.653,35.738Z"/><path class="cls-8" d="M9.653,25.7a2.538,2.538,0,1,1-2.537,2.539A2.538,2.538,0,0,1,9.653,25.7Z"/><path class="cls-8" d="M16.768,70.875a2.538,2.538,0,1,1-2.537,2.539A2.539,2.539,0,0,1,16.768,70.875Z"/><path class="cls-8" d="M16.768,60.836a2.538,2.538,0,1,1-2.537,2.539A2.539,2.539,0,0,1,16.768,60.836Z"/><path class="cls-8" d="M16.768,50.8a2.538,2.538,0,1,1-2.537,2.539A2.539,2.539,0,0,1,16.768,50.8Z"/><path class="cls-8" d="M16.768,40.758A2.538,2.538,0,1,1,14.231,43.3,2.539,2.539,0,0,1,16.768,40.758Z"/><path class="cls-8" d="M16.768,30.719a2.538,2.538,0,1,1-2.537,2.539A2.538,2.538,0,0,1,16.768,30.719Z"/><path class="cls-8" d="M16.768,20.68a2.538,2.538,0,1,1-2.537,2.539A2.538,2.538,0,0,1,16.768,20.68Z"/><path class="cls-8" d="M23.883,65.855a2.539,2.539,0,1,1-2.538,2.539A2.539,2.539,0,0,1,23.883,65.855Z"/><path class="cls-8" d="M23.883,55.816a2.538,2.538,0,1,1-2.538,2.538A2.538,2.538,0,0,1,23.883,55.816Z"/><path class="cls-8" d="M23.883,45.777a2.538,2.538,0,1,1-2.538,2.538A2.538,2.538,0,0,1,23.883,45.777Z"/><path class="cls-8" d="M23.883,35.738a2.538,2.538,0,1,1-2.538,2.538A2.538,2.538,0,0,1,23.883,35.738Z"/><path class="cls-8" d="M23.883,25.7a2.538,2.538,0,1,1-2.538,2.539A2.539,2.539,0,0,1,23.883,25.7Z"/><path class="cls-8" d="M31,70.875a2.538,2.538,0,1,1-2.537,2.539A2.539,2.539,0,0,1,31,70.875Z"/><path class="cls-8" d="M31,60.836a2.538,2.538,0,1,1-2.537,2.539A2.539,2.539,0,0,1,31,60.836Z"/><path class="cls-8" d="M31,50.8a2.538,2.538,0,1,1-2.537,2.539A2.539,2.539,0,0,1,31,50.8Z"/><path class="cls-8" d="M31,40.758A2.538,2.538,0,1,1,28.461,43.3,2.538,2.538,0,0,1,31,40.758Z"/><path class="cls-8" d="M31,30.719a2.538,2.538,0,1,1-2.537,2.539A2.538,2.538,0,0,1,31,30.719Z"/><path class="cls-8" d="M31,20.68a2.538,2.538,0,1,1-2.537,2.539A2.538,2.538,0,0,1,31,20.68Z"/><path class="cls-8" d="M38.113,65.855a2.539,2.539,0,1,1-2.537,2.539A2.539,2.539,0,0,1,38.113,65.855Z"/><path class="cls-8" d="M38.113,55.816a2.538,2.538,0,1,1-2.537,2.538A2.538,2.538,0,0,1,38.113,55.816Z"/><path class="cls-8" d="M38.113,45.777a2.538,2.538,0,1,1-2.537,2.538A2.538,2.538,0,0,1,38.113,45.777Z"/><path class="cls-8" d="M38.113,35.738a2.538,2.538,0,1,1-2.537,2.538A2.538,2.538,0,0,1,38.113,35.738Z"/><path class="cls-8" d="M38.113,25.7a2.538,2.538,0,1,1-2.537,2.539A2.539,2.539,0,0,1,38.113,25.7Z"/><path class="cls-8" d="M45.228,70.875a2.538,2.538,0,1,1-2.537,2.539A2.538,2.538,0,0,1,45.228,70.875Z"/><path class="cls-8" d="M45.228,60.836a2.538,2.538,0,1,1-2.537,2.539A2.538,2.538,0,0,1,45.228,60.836Z"/><path class="cls-8" d="M45.228,50.8a2.538,2.538,0,1,1-2.537,2.539A2.538,2.538,0,0,1,45.228,50.8Z"/><path class="cls-8" d="M45.228,40.758A2.538,2.538,0,1,1,42.691,43.3,2.538,2.538,0,0,1,45.228,40.758Z"/><path class="cls-8" d="M45.228,30.719a2.538,2.538,0,1,1-2.537,2.539A2.537,2.537,0,0,1,45.228,30.719Z"/><path class="cls-8" d="M45.228,20.68a2.538,2.538,0,1,1-2.537,2.539A2.537,2.537,0,0,1,45.228,20.68Z"/><path class="cls-8" d="M52.345,65.855a2.539,2.539,0,1,1-2.539,2.539A2.538,2.538,0,0,1,52.345,65.855Z"/><path class="cls-8" d="M52.345,55.816a2.538,2.538,0,1,1-2.539,2.538A2.538,2.538,0,0,1,52.345,55.816Z"/><path class="cls-8" d="M52.345,45.777a2.538,2.538,0,1,1-2.539,2.538A2.538,2.538,0,0,1,52.345,45.777Z"/><path class="cls-8" d="M52.345,35.738a2.538,2.538,0,1,1-2.539,2.538A2.538,2.538,0,0,1,52.345,35.738Z"/><path class="cls-8" d="M52.345,25.7a2.538,2.538,0,1,1-2.539,2.539A2.538,2.538,0,0,1,52.345,25.7Z"/><path class="cls-8" d="M59.46,70.875a2.538,2.538,0,1,1-2.539,2.539A2.538,2.538,0,0,1,59.46,70.875Z"/><path class="cls-8" d="M59.46,60.836a2.538,2.538,0,1,1-2.539,2.539A2.538,2.538,0,0,1,59.46,60.836Z"/><path class="cls-8" d="M59.46,50.8a2.538,2.538,0,1,1-2.539,2.539A2.538,2.538,0,0,1,59.46,50.8Z"/><path class="cls-8" d="M59.46,40.758A2.538,2.538,0,1,1,56.921,43.3,2.538,2.538,0,0,1,59.46,40.758Z"/><path class="cls-8" d="M59.46,30.719a2.538,2.538,0,1,1-2.539,2.539A2.538,2.538,0,0,1,59.46,30.719Z"/><path class="cls-8" d="M59.46,20.68a2.538,2.538,0,1,1-2.539,2.539A2.538,2.538,0,0,1,59.46,20.68Z"/><path class="cls-8" d="M66.575,65.855a2.539,2.539,0,1,1-2.539,2.539A2.538,2.538,0,0,1,66.575,65.855Z"/><path class="cls-8" d="M66.575,55.816a2.538,2.538,0,1,1-2.539,2.538A2.538,2.538,0,0,1,66.575,55.816Z"/><path class="cls-8" d="M66.575,45.777a2.538,2.538,0,1,1-2.539,2.538A2.538,2.538,0,0,1,66.575,45.777Z"/><path class="cls-8" d="M66.575,35.738a2.538,2.538,0,1,1-2.539,2.538A2.538,2.538,0,0,1,66.575,35.738Z"/><path class="cls-8" d="M66.575,25.7a2.538,2.538,0,1,1-2.539,2.539A2.538,2.538,0,0,1,66.575,25.7Z"/><path class="cls-8" d="M73.69,70.875a2.538,2.538,0,1,1-2.537,2.539A2.538,2.538,0,0,1,73.69,70.875Z"/><path class="cls-8" d="M73.69,60.836a2.538,2.538,0,1,1-2.537,2.539A2.538,2.538,0,0,1,73.69,60.836Z"/><path class="cls-8" d="M73.69,50.8a2.538,2.538,0,1,1-2.537,2.539A2.538,2.538,0,0,1,73.69,50.8Z"/><path class="cls-8" d="M73.69,40.758A2.538,2.538,0,1,1,71.153,43.3,2.538,2.538,0,0,1,73.69,40.758Z"/><path class="cls-8" d="M73.69,30.719a2.538,2.538,0,1,1-2.537,2.539A2.538,2.538,0,0,1,73.69,30.719Z"/><path class="cls-8" d="M73.69,20.68a2.538,2.538,0,1,1-2.537,2.539A2.538,2.538,0,0,1,73.69,20.68Z"/><path class="cls-8" d="M80.806,65.855a2.539,2.539,0,1,1-2.539,2.539A2.538,2.538,0,0,1,80.806,65.855Z"/><path class="cls-8" d="M80.806,55.816a2.538,2.538,0,1,1-2.539,2.538A2.538,2.538,0,0,1,80.806,55.816Z"/><path class="cls-8" d="M80.806,45.777a2.538,2.538,0,1,1-2.539,2.538A2.538,2.538,0,0,1,80.806,45.777Z"/><path class="cls-8" d="M80.806,35.738a2.538,2.538,0,1,1-2.539,2.538A2.538,2.538,0,0,1,80.806,35.738Z"/><path class="cls-8" d="M80.806,25.7a2.538,2.538,0,1,1-2.539,2.539A2.538,2.538,0,0,1,80.806,25.7Z"/><path class="cls-8" d="M87.921,70.875a2.538,2.538,0,1,1-2.539,2.539A2.539,2.539,0,0,1,87.921,70.875Z"/><path class="cls-8" d="M87.921,60.836a2.538,2.538,0,1,1-2.539,2.539A2.539,2.539,0,0,1,87.921,60.836Z"/><path class="cls-8" d="M87.921,50.8a2.538,2.538,0,1,1-2.539,2.539A2.539,2.539,0,0,1,87.921,50.8Z"/><path class="cls-8" d="M87.921,40.758A2.538,2.538,0,1,1,85.382,43.3,2.538,2.538,0,0,1,87.921,40.758Z"/><path class="cls-8" d="M87.921,30.719a2.538,2.538,0,1,1-2.539,2.539A2.538,2.538,0,0,1,87.921,30.719Z"/><path class="cls-8" d="M87.921,20.68a2.538,2.538,0,1,1-2.539,2.539A2.538,2.538,0,0,1,87.921,20.68Z"/><path class="cls-8" d="M95.035,65.855A2.539,2.539,0,1,1,92.5,68.394,2.54,2.54,0,0,1,95.035,65.855Z"/><path class="cls-8" d="M95.035,55.816A2.538,2.538,0,1,1,92.5,58.354,2.54,2.54,0,0,1,95.035,55.816Z"/><path class="cls-8" d="M95.035,45.777A2.538,2.538,0,1,1,92.5,48.315,2.54,2.54,0,0,1,95.035,45.777Z"/><path class="cls-8" d="M95.035,35.738A2.538,2.538,0,1,1,92.5,38.276,2.54,2.54,0,0,1,95.035,35.738Z"/><path class="cls-8" d="M95.035,25.7A2.538,2.538,0,1,1,92.5,28.238,2.54,2.54,0,0,1,95.035,25.7Z"/><path class="cls-8" d="M9.752,16.381A2.538,2.538,0,1,1,7.214,18.92,2.538,2.538,0,0,1,9.752,16.381Z"/><path class="cls-8" d="M9.752,6.342A2.538,2.538,0,1,1,7.214,8.881,2.538,2.538,0,0,1,9.752,6.342Z"/><path class="cls-8" d="M7.505,0A2.532,2.532,0,0,0,9.752,1.379,2.532,2.532,0,0,0,12,0Z"/><path class="cls-8" d="M16.866,11.361A2.539,2.539,0,1,1,14.329,13.9,2.54,2.54,0,0,1,16.866,11.361Z"/><path class="cls-8" d="M16.866,1.322a2.538,2.538,0,1,1-2.537,2.537A2.54,2.54,0,0,1,16.866,1.322Z"/><path class="cls-8" d="M23.981,16.381a2.538,2.538,0,1,1-2.537,2.539A2.537,2.537,0,0,1,23.981,16.381Z"/><path class="cls-8" d="M23.981,6.342a2.538,2.538,0,1,1-2.537,2.539A2.537,2.537,0,0,1,23.981,6.342Z"/><path class="cls-8" d="M21.736,0a2.528,2.528,0,0,0,2.245,1.379A2.53,2.53,0,0,0,26.228,0Z"/><path class="cls-8" d="M31.1,11.361A2.539,2.539,0,1,1,28.558,13.9,2.539,2.539,0,0,1,31.1,11.361Z"/><path class="cls-8" d="M31.1,1.322a2.538,2.538,0,1,1-2.539,2.537A2.539,2.539,0,0,1,31.1,1.322Z"/><path class="cls-8" d="M38.212,16.381a2.538,2.538,0,1,1-2.537,2.539A2.538,2.538,0,0,1,38.212,16.381Z"/><path class="cls-8" d="M38.212,6.342a2.538,2.538,0,1,1-2.537,2.539A2.538,2.538,0,0,1,38.212,6.342Z"/><path class="cls-8" d="M35.967,0a2.528,2.528,0,0,0,2.245,1.379A2.531,2.531,0,0,0,40.458,0Z"/><path class="cls-8" d="M45.327,11.361A2.539,2.539,0,1,1,42.79,13.9,2.538,2.538,0,0,1,45.327,11.361Z"/><path class="cls-8" d="M45.327,1.322A2.538,2.538,0,1,1,42.79,3.859,2.538,2.538,0,0,1,45.327,1.322Z"/><path class="cls-8" d="M52.442,16.381a2.538,2.538,0,1,1-2.537,2.539A2.537,2.537,0,0,1,52.442,16.381Z"/><path class="cls-8" d="M52.442,6.342a2.538,2.538,0,1,1-2.537,2.539A2.537,2.537,0,0,1,52.442,6.342Z"/><path class="cls-8" d="M50.2,0a2.532,2.532,0,0,0,2.246,1.379A2.529,2.529,0,0,0,54.688,0Z"/><path class="cls-8" d="M59.558,11.361A2.539,2.539,0,1,1,57.019,13.9,2.538,2.538,0,0,1,59.558,11.361Z"/><path class="cls-8" d="M59.558,1.322a2.538,2.538,0,1,1-2.539,2.537A2.538,2.538,0,0,1,59.558,1.322Z"/><path class="cls-8" d="M66.673,16.381a2.538,2.538,0,1,1-2.538,2.539A2.537,2.537,0,0,1,66.673,16.381Z"/><path class="cls-8" d="M66.673,6.342a2.538,2.538,0,1,1-2.538,2.539A2.537,2.537,0,0,1,66.673,6.342Z"/><path class="cls-8" d="M64.427,0a2.53,2.53,0,0,0,2.246,1.379A2.532,2.532,0,0,0,68.919,0Z"/><path class="cls-8" d="M73.788,11.361A2.539,2.539,0,1,1,71.25,13.9,2.537,2.537,0,0,1,73.788,11.361Z"/><path class="cls-8" d="M73.788,1.322A2.538,2.538,0,1,1,71.25,3.859,2.537,2.537,0,0,1,73.788,1.322Z"/><path class="cls-8" d="M80.9,16.381a2.538,2.538,0,1,1-2.537,2.539A2.537,2.537,0,0,1,80.9,16.381Z"/><path class="cls-8" d="M80.9,6.342a2.538,2.538,0,1,1-2.537,2.539A2.537,2.537,0,0,1,80.9,6.342Z"/><path class="cls-8" d="M78.657,0A2.531,2.531,0,0,0,80.9,1.379,2.528,2.528,0,0,0,83.148,0Z"/><path class="cls-8" d="M88.018,11.361A2.539,2.539,0,1,1,85.479,13.9,2.539,2.539,0,0,1,88.018,11.361Z"/><path class="cls-8" d="M88.018,1.322a2.538,2.538,0,1,1-2.539,2.537A2.539,2.539,0,0,1,88.018,1.322Z"/><path class="cls-8" d="M95.134,16.381A2.538,2.538,0,1,1,92.6,18.92,2.538,2.538,0,0,1,95.134,16.381Z"/><path class="cls-8" d="M95.134,6.342A2.538,2.538,0,1,1,92.6,8.881,2.538,2.538,0,0,1,95.134,6.342Z"/><path class="cls-8" d="M92.888,0a2.529,2.529,0,0,0,2.246,1.379A2.532,2.532,0,0,0,97.379,0Z"/><path class="cls-8" d="M102.249,11.361A2.539,2.539,0,1,1,99.71,13.9,2.54,2.54,0,0,1,102.249,11.361Z"/><path class="cls-8" d="M102.249,1.322A2.538,2.538,0,1,1,99.71,3.859,2.54,2.54,0,0,1,102.249,1.322Z"/></g></g></g></svg>